<?xml version="1.0" encoding="UTF-8"?>
<svg width="12px" height="15px" viewBox="0 0 12 15" version="1.1" xmlns="http://www.w3.org/2000/svg" xmlns:xlink="http://www.w3.org/1999/xlink">
    <!-- Generator: Sketch 63.1 (92452) - https://sketch.com -->
    <title>bookmark copy 2</title>
    <desc>Created with Sketch.</desc>
    <g id="Component" stroke="none" stroke-width="1" fill="none" fill-rule="evenodd">
        <g id="bookmark-copy-2" transform="translate(0.000000, 1.000000)" fill-rule="nonzero">
            <path d="M1.4822188,0.47874986 C1.15288955,0.479453188 0.853935875,0.613606154 0.63738292,0.830159109 C0.420829965,1.04671206 0.286676999,1.34566574 0.285973502,1.67597353 L0.285973981,3.0297841 L2.83391669,3.0297841 L2.83391669,1.67544108 C2.8332059,1.34197553 2.69531255,1.04008997 2.45636832,0.824209852 C2.21730644,0.60822344 1.87995798,0.479459561 1.4822188,0.47874986 Z" id="Path" stroke="#FFFFFF" stroke-width="0.5" fill="#CE381C"></path>
            <path d="M9.90623857,0 L9.90623857,0 L2.01280907,0 C2.80926182,0.00425042708 3.45316288,0.650199423 3.45486306,1.44669082 L3.45486306,12.5039837 C3.45486306,13.3123376 4.26785384,13.7095594 4.90309948,12.6971849 L7.16123547,9.08973152 L9.42091707,12.6925481 C10.0561627,13.7049225 10.8691535,13.310792 10.8691535,12.4993468 L10.8691535,0.959823716 C10.8649417,0.430297782 10.4358031,0.002511616 9.90623857,0 Z" id="Path" stroke="#CE381C" stroke-width="0.8"></path>
            <path d="M6.39872691,5.51173557 L6.01312902,1.70007324 L8.3909827,1.70007324 L7.98931822,5.51173557 L6.39872691,5.51173557 Z M7.20491052,7.69263664 C6.62981929,7.69263664 6.21379585,7.26437722 6.21379585,6.73822992 C6.21379585,6.21208262 6.62981929,5.79605918 7.20491052,5.79605918 C7.76776577,5.79605918 8.17155323,6.21208262 8.17155323,6.73822992 C8.17155323,7.26437722 7.76776577,7.69263664 7.20491052,7.69263664 Z" id="!" fill="#CE381C"></path>
        </g>
    </g>
</svg>