<?xml version="1.0" encoding="UTF-8"?>
<svg width="11px" height="14px" viewBox="0 0 11 14" version="1.1" xmlns="http://www.w3.org/2000/svg" xmlns:xlink="http://www.w3.org/1999/xlink">
    <!-- Generator: Sketch 63.1 (92452) - https://sketch.com -->
    <title>bookmark copy</title>
    <desc>Created with Sketch.</desc>
    <g id="Component" stroke="none" stroke-width="1" fill="none" fill-rule="evenodd">
        <g id="bookmark-copy" transform="translate(0.094176, 0.000000)" fill-rule="nonzero">
            <path d="M1.63722587,0.228750258 L1.48266489,0.228750258 C0.684396041,0.230450428 0.0376742401,0.87717223 0.0359740692,1.67544108 L0.0359740692,3.2797841 L3.08391669,3.2797841 L3.08391669,1.67544108 C3.08221652,0.87717223 2.43549472,0.230450428 1.63722587,0.228750258 Z" id="Path" fill="#D08B2E"></path>
            <path d="M9.90623857,0 L9.90623857,0 L2.01280907,0 C2.80926182,0.00425042708 3.45316288,0.650199423 3.45486306,1.44669082 L3.45486306,12.5039837 C3.45486306,13.3123376 4.26785384,13.7095594 4.90309948,12.6971849 L7.16123547,9.08973152 L9.42091707,12.6925481 C10.0561627,13.7049225 10.8691535,13.310792 10.8691535,12.4993468 L10.8691535,0.959823716 C10.8649417,0.430297782 10.4358031,0.002511616 9.90623857,0 Z" id="Path" fill="#EAB034"></path>
        </g>
    </g>
</svg>