<?xml version="1.0" encoding="UTF-8"?>
<svg width="27px" height="21px" viewBox="0 0 27 21" version="1.1" xmlns="http://www.w3.org/2000/svg" xmlns:xlink="http://www.w3.org/1999/xlink">
    <!-- Generator: Sketch 63.1 (92452) - https://sketch.com -->
    <title>credit-cards</title>
    <desc>Created with Sketch.</desc>
    <g id="Component" stroke="none" stroke-width="1" fill="none" fill-rule="evenodd">
        <g id="credit-cards" transform="translate(0.000000, 0.500000)" fill-rule="nonzero">
            <path d="M26.1262011,1.63288757 L26.1262011,14.6959881 C26.1262011,15.5981426 25.395468,16.3288757 24.4933135,16.3288757 L4.89866271,16.3288757 C3.99650825,16.3288757 3.26577514,15.5981426 3.26577514,14.6959881 L3.26577514,1.63288757 C3.26577514,0.730733108 3.99650825,0 4.89866271,0 L24.4933135,0 C25.395468,0 26.1262011,0.730733108 26.1262011,1.63288757 Z" id="Path" fill="#2668ED"></path>
            <path d="M24.4933135,3.26577514 L24.4933135,16.3288757 L3.26577514,16.3288757 L3.26577514,1.63288757 L22.860426,1.63288757 C23.7625804,1.63288757 24.4933135,2.36362068 24.4933135,3.26577514 Z" id="Path" fill="#1458E0"></path>
            <path d="M21.2275384,19.5946508 L1.63288757,19.5946508 C0.730733108,19.5946508 0,18.8639177 0,17.9617633 L0,4.89866271 C0,3.99650825 0.730733108,3.26577514 1.63288757,3.26577514 L21.2275384,3.26577514 C22.1296929,3.26577514 22.860426,3.99650825 22.860426,4.89866271 L22.860426,17.9617633 C22.860426,18.8639177 22.1296929,19.5946508 21.2275384,19.5946508 Z" id="Path" fill="#40A2E7"></path>
            <polygon id="Path" fill="#57565C" points="0 7.34799406 22.860426 7.34799406 22.860426 10.6137692 0 10.6137692"></polygon>
            <g id="Group" transform="translate(3.265775, 14.695988)" fill="#FFFFFF">
                <polygon id="Path" points="0 0 2.44933135 0 2.44933135 1.63288757 0 1.63288757"></polygon>
                <polygon id="Path" points="4.08221892 0 7.34799406 0 7.34799406 1.63288757 4.08221892 1.63288757"></polygon>
                <polygon id="Path" points="8.98088163 0 12.2466568 0 12.2466568 1.63288757 8.98088163 1.63288757"></polygon>
                <polygon id="Path" points="13.8795443 0 16.3288757 0 16.3288757 1.63288757 13.8795443 1.63288757"></polygon>
            </g>
        </g>
    </g>
</svg>