<?xml version="1.0" encoding="UTF-8"?>
<svg width="12px" height="14px" viewBox="0 0 12 14" version="1.1" xmlns="http://www.w3.org/2000/svg" xmlns:xlink="http://www.w3.org/1999/xlink">
    <!-- Generator: Sketch 63.1 (92452) - https://sketch.com -->
    <title>Group 3</title>
    <desc>Created with Sketch.</desc>
    <g id="Component" stroke="none" stroke-width="1" fill="none" fill-rule="evenodd">
        <g id="Group-3" transform="translate(0.500000, 0.000000)" fill="#B5130A" fill-rule="nonzero">
            <path d="M7.40024579,4.92617399 C7.22436579,4.92617399 7.08182092,5.06871889 7.08182092,5.24459886 L7.08182092,11.2628288 C7.08182092,11.4385844 7.22436579,11.5812537 7.40024579,11.5812537 C7.57612575,11.5812537 7.71867065,11.4385844 7.71867065,11.2628288 L7.71867065,5.24459886 C7.71867065,5.06871889 7.57612575,4.92617399 7.40024579,4.92617399 Z" id="Path"></path>
            <path d="M3.64283239,4.92617399 C3.46695239,4.92617399 3.32440753,5.06871889 3.32440753,5.24459886 L3.32440753,11.2628288 C3.32440753,11.4385844 3.46695239,11.5812537 3.64283239,11.5812537 C3.81871236,11.5812537 3.96125725,11.4385844 3.96125725,11.2628288 L3.96125725,5.24459886 C3.96125725,5.06871889 3.81871236,4.92617399 3.64283239,4.92617399 Z" id="Path"></path>
            <path d="M0.90437856,4.04789355 L0.90437856,11.8932105 C0.90437856,12.3569167 1.07441244,12.7923876 1.37144313,13.104842 C1.66710558,13.4181671 2.07857025,13.5960372 2.5091901,13.5967835 L8.53388804,13.5967835 C8.96463231,13.5960372 9.37609694,13.4181671 9.67163501,13.104842 C9.96866571,12.7923876 10.1386996,12.3569167 10.1386996,11.8932105 L10.1386996,4.04789355 C10.7291538,3.89116881 11.1117612,3.3207405 11.0327769,2.71486256 C10.9536683,2.10910902 10.4375961,1.65597551 9.82661835,1.65585113 L8.19630795,1.65585113 L8.19630795,1.25782005 C8.19817369,0.923100782 8.06582836,0.601690685 7.82887549,0.365235354 C7.59192262,0.128904401 7.27001498,-0.00269462526 6.93529571,2.7533531e-14 L4.10778243,2.7533531e-14 C3.77306316,-0.00269462526 3.45115552,0.128904401 3.21420265,0.365235354 C2.97724979,0.601690685 2.84490445,0.923100782 2.84677023,1.25782005 L2.84677023,1.65585113 L1.2164598,1.65585113 C0.605482087,1.65597551 0.0894099232,2.10910902 0.0103012142,2.71486256 C-0.0686830543,3.3207405 0.313924321,3.89116881 0.90437856,4.04789355 Z M8.53388804,12.9599338 L2.5091901,12.9599338 C1.96475823,12.9599338 1.54122829,12.4922473 1.54122829,11.8932105 L1.54122829,4.0758801 L9.50184989,4.0758801 L9.50184989,11.8932105 C9.50184989,12.4922473 9.07831992,12.9599338 8.53388804,12.9599338 Z M3.48361996,1.25782005 C3.48150539,1.09201524 3.54668298,0.932429643 3.66435094,0.815383637 C3.78189448,0.69833763 3.94185321,0.63403071 4.10778243,0.636891566 L6.93529571,0.636891566 C7.1012249,0.63403071 7.26118366,0.69833763 7.37872721,0.815383637 C7.49639516,0.932305267 7.56157275,1.09201524 7.55945822,1.25782005 L7.55945822,1.65585113 L3.48361996,1.65585113 L3.48361996,1.25782005 Z M1.2164598,2.29270086 L9.82661835,2.29270086 C10.1431774,2.29270086 10.3997831,2.54930653 10.3997831,2.86586561 C10.3997831,3.1824247 10.1431774,3.43903037 9.82661835,3.43903037 L1.2164598,3.43903037 C0.899900678,3.43903037 0.64329504,3.1824247 0.64329504,2.86586561 C0.64329504,2.54930653 0.899900678,2.29270086 1.2164598,2.29270086 Z" id="Shape"></path>
            <path d="M5.52153909,4.92617399 C5.34565909,4.92617399 5.20311422,5.06871889 5.20311422,5.24459886 L5.20311422,11.2628288 C5.20311422,11.4385844 5.34565909,11.5812537 5.52153909,11.5812537 C5.69741906,11.5812537 5.83996395,11.4385844 5.83996395,11.2628288 L5.83996395,5.24459886 C5.83996395,5.06871889 5.69741906,4.92617399 5.52153909,4.92617399 Z" id="Path"></path>
        </g>
    </g>
</svg>