<?xml version="1.0" encoding="UTF-8"?>
<svg width="24px" height="24px" viewBox="0 0 24 24" version="1.1" xmlns="http://www.w3.org/2000/svg" xmlns:xlink="http://www.w3.org/1999/xlink">
    <!-- Generator: Sketch 63.1 (92452) - https://sketch.com -->
    <title>education</title>
    <desc>Created with Sketch.</desc>
    <g id="Component" stroke="none" stroke-width="1" fill="none" fill-rule="evenodd">
        <g id="education" transform="translate(0.500000, 0.500000)" fill-rule="nonzero">
            <g id="Group" transform="translate(0.366234, 0.366234)">
                <polygon id="Path" fill="#FDD79B" points="21.3374527 20.9073114 21.3374527 16.9079038 21.3374527 15.8376778 3.41320503 15.8376778 1.0371276 18.1758043 1.0371276 20.5238649 3.31423041 22.1079165 21.3374527 22.1079165"></polygon>
                <path d="M6.40885804,21.6449515 C5.72491691,20.9610104 5.30191717,20.0161279 5.30191717,18.9728201 C5.30191717,17.6674264 5.96388429,16.5166748 6.97033984,15.8377236 L3.41320503,15.8377236 L1.0371276,18.1758043 L1.0371276,20.5238649 L3.31418463,22.1079165 L6.9704314,22.1079165 C6.76854516,21.9716776 6.58048423,21.8165777 6.40885804,21.6449515 L6.40885804,21.6449515 Z" id="Path" fill="#FCCD7F"></path>
                <g id="XMLID_1066_" transform="translate(0.000000, 15.152913)" fill="#FEC165">
                    <path d="M22.6888544,6.17433124 L22.6888544,7.23274617 C22.6888544,7.42089865 22.5364097,7.57334336 22.3482573,7.57334336 L5.0849238,7.57334336 L3.79349278,7.57334336 C2.74972719,7.57334336 1.80530245,7.15034362 1.12136132,6.46640249 C0.437420184,5.78246135 0.0144204456,4.83757882 0.0144204456,3.79427103 C0.0144204456,1.70719764 1.7064194,0.0151986919 3.79349278,0.0151986919 L22.3482573,0.0151986919 C22.5364097,0.0151986919 22.6888544,0.168101195 22.6888544,0.356253675 L22.6888544,1.41421081 C22.6888544,1.60236329 22.5364097,1.754808 22.3482573,1.754808 L3.82965834,1.754808 C2.68838307,1.754808 1.7348025,2.68870353 1.75448755,3.8299788 C1.77325702,4.93783525 2.68060061,5.83373405 3.79349278,5.83373405 L5.0849238,5.83373405 L22.3482573,5.83373405 C22.5364097,5.83373405 22.6888544,5.98617876 22.6888544,6.17433124 L22.6888544,6.17433124 Z" id="Path"></path>
                </g>
                <path d="M3.82965834,16.9077207 L5.91558724,16.9077207 C6.57141995,15.9048359 7.69145368,15.2325227 8.97020386,15.1956705 C8.97945125,15.1953958 8.98856131,15.1933357 8.99698469,15.189536 L9.04422881,15.1681572 L8.98425807,15.1681572 L3.84178983,15.1681572 C1.76391806,15.1681572 0.0385003008,16.8252266 0.0146951208,18.902961 C0.00256363478,19.9638022 0.427760774,20.9257604 1.1214071,21.619361 C1.80534823,22.3033021 2.74977297,22.7263018 3.79353856,22.7263018 L5.08496958,22.7263018 L8.64649919,22.7263018 C7.77655719,22.6266405 6.99647976,22.2325732 6.40885804,21.6449973 C6.21026791,21.4464529 6.03337711,21.2252937 5.88276356,20.9866925 L5.08496958,20.9866925 L3.79353856,20.9866925 C2.68064639,20.9866925 1.7733028,20.0907937 1.75453333,18.9829373 C1.7348025,17.8416162 2.68838307,16.9077207 3.82965834,16.9077207 L3.82965834,16.9077207 Z" id="Path" fill="#FDB441"></path>
                <path d="M9.15679985,22.6227951 L7.93243534,22.1160652 L6.70807084,22.6227951 C6.58909072,22.6720535 6.45825379,22.5845694 6.45825379,22.4557926 L6.45825379,18.9472295 L9.40666268,18.9472295 L9.40666268,22.4557926 C9.4066169,22.5845694 9.27577997,22.6720077 9.15679985,22.6227951 Z" id="Path" fill="#FEE45A"></path>
                <path d="M12.0383253,4.28273501 C12.610199,3.91874465 13.5237686,3.61390101 14.7208945,4.11152083 C16.8562649,4.99917937 18.3072364,8.27349033 16.7467611,11.7557762 C15.1862857,15.238062 13.0509153,15.2736324 12.4212225,15.0778806 C12.0915208,14.975381 11.8138242,14.8665181 11.6241152,14.7860382 C11.45519,14.7098159 11.2622765,14.7080305 11.0918405,14.7806821 C10.9019027,14.8616197 10.6191704,14.973092 10.2820982,15.0778806 C9.65245116,15.2735866 7.51703495,15.238062 5.95655962,11.7557762 C4.39608429,8.27349033 5.84705579,4.99913359 7.98242622,4.11152083 C9.1795521,3.61390101 10.0931217,3.91879043 10.6649953,4.28273501 L11.2452008,4.83318402 L12.0383253,4.28273501 Z" id="Path" fill="#F47C7C"></path>
                <g transform="translate(5.264607, 3.845452)" id="Path">
                    <path d="M3.66755422,7.91032399 C2.18655157,4.60534098 3.41819496,1.48800687 5.37296648,0.420252986 C4.79953631,0.063999311 3.89617551,-0.223768693 2.7178191,0.266068666 C0.582448665,1.15372721 -0.868522838,4.42803817 0.691952493,7.91032399 C2.25242783,11.3926098 4.38784403,11.4281803 5.01749105,11.2324284 C5.35460902,11.1276399 5.63729553,11.0161675 5.8272334,10.9352299 C5.90089212,10.9038254 5.97770961,10.8863377 6.05599203,10.8827212 C5.27838666,10.4393039 4.40867357,9.5641431 3.66755422,7.91032399 L3.66755422,7.91032399 Z" fill="#EE6161"></path>
                    <path d="M8.80283513,10.9352299 C8.61289726,11.0161675 8.33016497,11.1276399 7.99309277,11.2324284 C7.89063894,11.2642907 7.74808254,11.2898813 7.57485407,11.2956037 C7.96063533,11.3083761 8.49959376,11.2218992 9.09293787,10.8835452 C8.99455839,10.8791046 8.89540066,10.895814 8.80283513,10.9352299 L8.80283513,10.9352299 Z" fill="#E94444"></path>
                </g>
                <path d="M13.7772022,2.56139159 L11.8504017,2.56139159 L11.8504017,1.47500558 C11.8504017,0.720244034 12.4622407,0.108450907 13.2169564,0.108450907 L14.8925206,0.108450907 C15.0312774,0.108450907 15.1437569,0.220930383 15.1437569,0.359687115 L15.1437569,1.19483692 C15.1437569,1.94955269 14.5319179,2.56139159 13.7772022,2.56139159 Z" id="Path" fill="#22B27F"></path>
                <path d="M12.0383253,6.31578894 L12.0383253,3.05814161 C12.0383253,2.35364562 11.8716891,1.64818826 11.5564993,1.01803768 L11.1354223,0.176478787 C11.0667535,0.0392327679 10.8998884,-0.0163431717 10.7626424,0.0523256169 L10.0313198,0.418238702 C9.89407374,0.486907491 9.8384978,0.653818426 9.90716659,0.791018666 L10.3281978,1.63253178 C10.5484873,2.07288183 10.6649038,2.56587796 10.6649038,3.05818739 L10.6649038,6.31578894 L12.0383253,6.31578894 L12.0383253,6.31578894 Z" id="Path" fill="#FDD79B"></path>
            </g>
            <g id="Group" fill="#000000">
                <path d="M22.7143992,17.6174813 C23.091574,17.6174813 23.3984319,17.3106234 23.3984319,16.9334486 L23.3984319,15.8752626 C23.3984319,15.4980878 23.091574,15.1912299 22.7143992,15.1912299 L15.2143941,15.1912299 C16.0815894,14.5884552 16.8241279,13.6061711 17.4263074,12.2624603 C17.7177835,11.6120295 17.9189373,10.9429666 18.0241836,10.2738121 C18.0536654,10.0864837 17.9257126,9.91073737 17.7383841,9.88130135 C17.5511472,9.85204844 17.3753094,9.97977239 17.3458733,10.1671466 C17.2500575,10.7762388 17.0662998,11.3867043 16.7996818,11.9816507 C16.1686614,13.3898644 15.3537002,14.3843716 14.4428774,14.8577285 C13.7381067,15.2240078 13.1347828,15.1925575 12.8894063,15.1162893 C12.5673955,15.016216 12.2979391,14.9097336 12.1275948,14.8375856 C11.8730624,14.7241448 11.5802587,14.7217185 11.3234832,14.831085 C11.1509872,14.9046063 10.8761748,15.0137439 10.546473,15.1162436 C10.3010965,15.1926032 9.69777256,15.2239162 8.9930019,14.8576827 C8.08217908,14.3843258 7.2672179,13.3898187 6.63615173,11.9816049 C5.89100382,10.3188131 5.8072279,8.5800278 6.40025155,7.08574918 C6.83098798,6.00032453 7.58922874,5.16531206 8.48050384,4.79482106 C9.27628354,4.46397483 10.0178149,4.48178294 10.6879307,4.84572752 L10.6879307,6.26680521 C10.6014538,6.23796432 10.5149311,6.20660557 10.4284085,6.1706689 C10.2533031,6.09778843 10.0523782,6.18092344 9.97963505,6.35602885 C9.90689191,6.53113426 9.98988959,6.73205914 10.164995,6.80480228 C10.682895,7.01996448 11.2092642,7.12754558 11.7405317,7.12754558 C12.2702427,7.12754558 12.8048979,7.02051383 13.3404687,6.80658767 C13.5165812,6.73627083 13.6022799,6.53649043 13.531963,6.36037788 C13.4616462,6.18426532 13.2619116,6.09856668 13.0857533,6.16888352 C12.9725413,6.21411336 12.8600161,6.25366658 12.7480402,6.28768052 L12.7480402,4.84568174 C13.4181102,4.48178294 14.1596416,4.46392905 14.955467,4.79477528 C15.600267,5.06276667 16.1728731,5.56720759 16.6112546,6.2533919 C17.0729836,6.97606224 17.3494899,7.84966656 17.4108798,8.7798082 C17.4228739,8.96132269 17.5738537,9.10053722 17.7531708,9.10053722 C17.7607702,9.10053722 17.7684153,9.10030832 17.7761062,9.09975897 C17.9653116,9.08730703 18.1085547,8.92373798 18.0961027,8.73453258 C17.9568424,6.62461538 16.8275155,4.82924701 15.2190178,4.1606419 C14.2026282,3.73814574 13.3663797,3.84059957 12.7480402,4.08817344 L12.7480402,3.42437515 C12.7480402,3.32942911 12.7452018,3.23443728 12.7396168,3.13958279 L14.3314966,3.13958279 C15.2743649,3.13958279 16.041441,2.37250665 16.041441,1.4296384 L16.041441,0.594534372 C16.0413037,0.266709575 15.7745941,-8.8817842e-15 15.4467235,-8.8817842e-15 L13.7711593,-8.8817842e-15 C13.0390127,-8.8817842e-15 12.4131196,0.462598739 12.1698032,1.11078632 L11.8087427,0.389077356 C11.7344888,0.240706994 11.6069022,0.130058686 11.4494676,0.0776415103 C11.2920787,0.0251785558 11.1236571,0.0371727042 10.9752867,0.111472334 L10.2439183,0.477339639 C9.93765553,0.630608376 9.81309035,1.00453282 9.96635908,1.31079562 L10.3873903,2.15230873 C10.5839204,2.54523154 10.6878392,2.98507802 10.6878392,3.42432937 L10.6878392,4.08812766 C10.0695454,3.84055379 9.23334266,3.73814574 8.21681569,4.1606419 C7.15537933,4.60190754 6.26057924,5.57567674 5.76186072,6.83236135 C5.09989359,8.50046356 5.18778964,10.428912 6.00938881,12.2623687 C6.61152253,13.6060796 7.35410681,14.5883179 8.22130205,15.1911383 L4.15963476,15.1911383 C1.8866063,15.1911383 0.037355821,17.0404346 0.037355821,19.313463 C0.037355821,21.5864915 1.8866063,23.435742 4.15963476,23.435742 L5.45106578,23.435742 C5.64068319,23.435742 5.79440972,23.2820612 5.79440972,23.092398 C5.79440972,22.9027348 5.64068319,22.7490541 5.45106578,22.7490541 L4.15963476,22.7490541 C2.265246,22.7490541 0.724043707,21.2078518 0.724043707,19.313463 C0.724043707,17.4190285 2.265246,15.8778262 4.15963476,15.8778262 L18.9426516,15.8778262 L22.711744,15.875171 L22.7143992,16.9307476 L19.4251185,16.9307476 C19.2355011,16.9307476 19.0817745,17.0844284 19.0817745,17.2740916 C19.0817745,17.4637548 19.2355011,17.6174355 19.4251185,17.6174355 L21.3602965,17.6174355 L21.3602965,21.0094448 L11.1462262,21.0094448 C10.9566088,21.0094448 10.8028823,21.1631255 10.8028823,21.3527887 C10.8028823,21.5424519 10.9566088,21.6961327 11.1462262,21.6961327 L22.711744,21.6934775 L22.7143992,22.7490541 L11.1462262,22.7490541 C10.9566088,22.7490541 10.8028823,22.9027348 10.8028823,23.092398 C10.8028823,23.2820612 10.9566088,23.435742 11.1462262,23.435742 L22.7143992,23.435742 C23.091574,23.435742 23.3984319,23.128884 23.3984319,22.7517093 L23.3984319,21.6935232 C23.3984319,21.3163485 23.091574,21.0094906 22.7143992,21.0094906 L22.0470302,21.0094906 L22.0470302,17.6174813 L22.7143992,17.6174813 Z M12.7479028,1.70989862 C12.7479028,1.14571585 13.2069308,0.686687886 13.7711593,0.686687886 L15.3546158,0.686687886 L15.3546158,1.4296384 C15.3546158,1.99382117 14.8955878,2.45289491 14.3313593,2.45289491 L12.7479028,2.45289491 L12.7479028,1.70989862 Z M10.6097856,1.06216882 L11.2239135,0.754898883 L11.615646,1.53786041 C11.9071222,2.12058375 12.0612149,2.77293724 12.0612149,3.42437515 L12.0612149,6.42657459 C11.8309456,6.44941841 11.6023243,6.44726678 11.374527,6.42103531 L11.374527,3.42437515 C11.374527,2.87905341 11.2455671,2.33295342 11.0015182,1.84508457 L10.6097856,1.06216882 Z" id="Shape"></path>
                <path d="M4.19580032,17.6174813 L17.9619239,17.6174813 C18.1515414,17.6174813 18.3052679,17.4638005 18.3052679,17.2741373 C18.3052679,17.0844742 18.1515414,16.9307934 17.9619239,16.9307934 L4.19580032,16.9307934 C3.54898611,16.9307934 2.91645501,17.1968621 2.46049425,17.6606968 C2.00906564,18.1198621 1.76643592,18.7215381 1.77728559,19.3548474 C1.79939694,20.6458206 2.86815796,21.6961784 4.15963476,21.6961784 L5.45106578,21.6961784 C5.64068319,21.6961784 5.79440972,21.5424977 5.79440972,21.3528345 C5.79440972,21.1631713 5.64068319,21.0094906 5.45106578,21.0094906 L4.15963476,21.0094906 C3.2403428,21.0094906 2.47962996,20.2619621 2.46388191,19.343128 C2.45623679,18.8954532 2.6289159,18.4689285 2.95019428,18.1421566 C3.27792751,17.808701 3.73191977,17.6174813 4.19580032,17.6174813 L4.19580032,17.6174813 Z" id="Path"></path>
                <path d="M10.3707725,18.9701649 L6.06432384,18.9701649 C5.87470642,18.9701649 5.7209799,19.1238456 5.7209799,19.3135088 C5.7209799,19.503172 5.87470642,19.6568528 6.06432384,19.6568528 L6.48109761,19.6568528 L6.48109761,20.4921399 C6.48109761,20.6818031 6.63482414,20.8354838 6.82444155,20.8354838 C7.01405897,20.8354838 7.16778549,20.6818031 7.16778549,20.4921399 L7.16778549,19.6568528 L9.4295065,19.6568528 L9.4295065,22.5787555 L8.42996361,22.1650489 C8.34586723,22.1302567 8.25147054,22.1302567 8.16737416,22.1650489 L7.16783127,22.5787555 L7.16783127,21.9553802 C7.16783127,21.765717 7.01410474,21.6120363 6.82448733,21.6120363 C6.63486991,21.6120363 6.48114339,21.765717 6.48114339,21.9553802 L6.48114339,23.0924438 C6.48114339,23.2071207 6.53836738,23.3141982 6.63372544,23.3778771 C6.72908349,23.4416475 6.84989478,23.4535043 6.95582783,23.4096478 L8.29871466,22.8538427 L9.64160149,23.4096478 C9.68385569,23.4271355 9.72844462,23.4357766 9.77289622,23.4357766 C9.83987118,23.4357766 9.90643412,23.4161485 9.96370389,23.3778313 C10.0590619,23.3141067 10.1162859,23.2070749 10.1162859,23.092398 L10.1162859,19.656807 L10.370864,19.656807 C10.5604814,19.656807 10.714208,19.5031262 10.714208,19.313463 C10.714208,19.1237998 10.5603899,18.9701649 10.3707725,18.9701649 Z" id="Path"></path>
            </g>
        </g>
    </g>
</svg>