<?xml version="1.0" encoding="UTF-8"?>
<svg width="21px" height="24px" viewBox="0 0 21 24" version="1.1" xmlns="http://www.w3.org/2000/svg" xmlns:xlink="http://www.w3.org/1999/xlink">
    <!-- Generator: Sketch 63.1 (92452) - https://sketch.com -->
    <title>family-insurance</title>
    <desc>Created with Sketch.</desc>
    <g id="Component" stroke="none" stroke-width="1" fill="none" fill-rule="evenodd">
        <g id="family-insurance" transform="translate(0.000000, 0.500000)">
            <path d="M10.4122351,0.444940692 C9.11950442,1.3669023 6.69297586,4.10880482 0.455129834,5.43686379 L0.455129834,11.2296801 C0.455129834,12.764592 1.46283151,14.7686939 2.88419455,16.6516829 L2.88419455,14.3991262 C2.88419455,12.6434792 3.98395446,11.9788268 4.89830758,11.5866116 C4.49599221,11.1565319 4.25007349,10.5801557 4.25007349,9.94575928 C4.25007349,8.6214823 5.32335942,7.54815187 6.64759191,7.54815187 C7.9718244,7.54815187 9.04635617,8.62143781 9.04635617,9.94575928 C9.04635617,10.5801557 8.79914712,11.1565319 8.39683175,11.5866116 C9.13966023,11.905723 10.0060932,12.4038786 10.3037586,13.5213472 C10.3403327,13.518811 10.375661,13.5175652 10.4122351,13.5175652 C10.4475634,13.5175652 10.4841375,13.518811 10.5194213,13.5213472 C10.8183325,12.4039231 11.6835196,11.905723 12.4263481,11.5866116 C12.0240328,11.1565319 11.778114,10.5801557 11.778114,9.94575928 C11.778114,8.6214823 12.8514,7.54815187 14.1756325,7.54815187 C15.4998649,7.54815187 16.5743967,8.62143781 16.5743967,9.94575928 C16.5743967,10.5801557 16.3271877,11.1565319 15.9248723,11.5866116 C16.8392254,11.9788713 17.9402757,12.6435237 17.9402757,14.3991262 L17.9402757,16.6516829 C19.3603929,14.7686939 20.36805,12.764592 20.36805,11.2296801 L20.36805,5.43686379 C14.1314943,4.10880482 11.70372,1.3669023 10.4122351,0.444940692 Z" id="Path" fill="#8EEA8E"></path>
            <path d="M6.64759191,7.54815187 C5.32335942,7.54815187 4.25007349,8.62143781 4.25007349,9.94575928 C4.25007349,10.5801557 4.49599221,11.1565319 4.89830758,11.5866116 C5.33595125,12.0520195 5.95771137,12.3433667 6.64759191,12.3433667 C7.33747245,12.3433667 7.95923258,12.0520195 8.39687624,11.5866116 C8.79919161,11.1565319 9.04640066,10.5801557 9.04640066,9.94575928 C9.04640066,8.6214823 7.9718244,7.54815187 6.64759191,7.54815187 L6.64759191,7.54815187 Z" id="Path" fill="#FFDCD5"></path>
            <path d="M4.89830758,11.5866116 C3.98395446,11.9788713 2.88419455,12.6435237 2.88419455,14.3991262 L2.88419455,16.6516829 C4.25007349,18.4615237 5.99935782,20.1591504 7.60105532,21.2198445 L7.60105532,18.6343386 C7.60105532,17.3239438 8.42210438,16.8269895 9.10566676,16.5343966 C8.80426394,16.2140393 8.62134882,15.7827137 8.62134882,15.308496 C8.62134882,14.3562784 9.36546763,13.5768313 10.3037586,13.5213472 C10.0061377,12.4039231 9.13966023,11.905723 8.39683175,11.5866116 C7.95918808,12.0520195 7.33742796,12.3433667 6.64754742,12.3433667 C5.95766687,12.3433667 5.33595125,12.0520195 4.89830758,11.5866116 Z" id="Path" fill="#FF7B79"></path>
            <path d="M10.3038031,13.5213472 C9.36546763,13.5768313 8.62139331,14.3562784 8.62139331,15.308496 C8.62139331,15.7827137 8.80426394,16.2140393 9.10571126,16.5343966 C9.43234222,16.8824737 9.89645985,17.1006726 10.4123241,17.1006726 C10.926898,17.1006726 11.3922615,16.8824737 11.7189369,16.5343966 C12.0190939,16.2140393 12.2032549,15.7827137 12.2032549,15.308496 C12.2032549,14.3562784 11.4591361,13.5768313 10.5195548,13.5213472 C10.4842265,13.518811 10.4476524,13.5175641 10.4123686,13.5175641 C10.375661,13.5175207 10.3403772,13.518811 10.3038031,13.5213472 L10.3038031,13.5213472 Z" id="Path" fill="#FFDCD5"></path>
            <path d="M9.10566676,16.5343966 C8.42210438,16.8269895 7.60105532,17.3239438 7.60105532,18.6343386 L7.60105532,21.2198445 C8.65035895,21.9147974 9.63661449,22.3360227 10.4122351,22.3360227 C11.1866099,22.3360227 12.1728654,21.9147529 13.2234149,21.2198445 L13.2234149,18.6343386 C13.2234149,17.3239438 12.40112,16.8269895 11.7188034,16.5343966 C11.3921725,16.8824737 10.9267645,17.1006726 10.4121906,17.1006726 C9.89641536,17.1006726 9.43229772,16.8824737 9.10566676,16.5343966 L9.10566676,16.5343966 Z" id="Path" fill="#FFCD69"></path>
            <path d="M10.5194658,13.5213472 C11.4590471,13.5768313 12.2031659,14.3562784 12.2031659,15.308496 C12.2031659,15.7827137 12.0190494,16.2140393 11.7188479,16.5343966 C12.4011645,16.8269895 13.2234594,17.3239438 13.2234594,18.6343386 L13.2234594,21.2198445 C14.8251569,20.1591504 16.5731954,18.4615237 17.9403201,16.6516829 L17.9403201,14.3991262 C17.9403201,12.6434792 16.8393144,11.9788268 15.9249168,11.5866116 C15.4872731,12.0520195 14.865513,12.3433667 14.1756325,12.3433667 C13.4857519,12.3433667 12.8639918,12.0520195 12.4263481,11.5866116 C11.6835196,11.9056785 10.8183325,12.4038786 10.5194658,13.5213472 L10.5194658,13.5213472 Z" id="Path" fill="#DFEDFF"></path>
            <path d="M14.1756325,7.54815187 C12.8514,7.54815187 11.778114,8.62143781 11.778114,9.94575928 C11.778114,10.5801557 12.0240328,11.1565319 12.4263481,11.5866116 C12.8639918,12.0520195 13.4857519,12.3433667 14.1756325,12.3433667 C14.865513,12.3433667 15.4872731,12.0520195 15.9249168,11.5866116 C16.3272322,11.1565319 16.5744412,10.5801557 16.5744412,9.94575928 C16.5744412,8.6214823 15.4999094,7.54815187 14.1756325,7.54815187 L14.1756325,7.54815187 Z" id="Path" fill="#FFDCD5"></path>
            <g id="Group" fill="#000000" fill-rule="nonzero">
                <path d="M20.4604642,5.00162281 C19.1717825,4.72811777 17.9494859,4.36838322 16.8277015,3.93243033 C16.598735,3.84344219 16.3408473,3.95694656 16.2518147,4.18600203 C16.1628266,4.4150575 16.2763754,4.67290063 16.5053864,4.76188876 C17.5686612,5.17506069 18.7167861,5.52198095 19.9231538,5.79481858 L19.9231538,11.2296356 C19.9231538,12.2981607 19.3644418,13.7203247 18.3852608,15.2432232 L18.3852608,14.3991262 C18.3852608,12.7221002 17.476603,11.8936206 16.6057205,11.4207822 C16.8681021,10.99048 17.0193819,10.4854723 17.0193819,9.94575928 C17.0193819,8.37836671 15.7436924,7.10321118 14.1756325,7.10321118 C12.6082844,7.10321118 11.3331733,8.37836671 11.3331733,9.94575928 C11.3331733,10.4848494 11.4840082,10.9893232 11.7456779,11.4192694 C11.2512153,11.6851659 10.7551064,12.0577593 10.4118347,12.6347584 C10.0689634,12.0582487 9.57294348,11.6856554 9.0783474,11.4196698 C9.34028399,10.9896346 9.49129686,10.4849829 9.49129686,9.94575928 C9.49129686,8.37836671 8.2156074,7.10321118 6.64759191,7.10321118 C5.08019934,7.10321118 3.8050883,8.37836671 3.8050883,9.94575928 C3.8050883,10.4852944 3.95623465,10.9901686 4.21830472,11.4203817 C3.34777826,11.8929977 2.43920937,12.7213883 2.43920937,14.3991262 L2.43920937,15.2451364 C1.45922749,13.7215705 0.900026031,12.2986502 0.900026031,11.2296356 L0.900026031,5.7946406 C5.99521987,4.64019749 8.56688808,2.51974363 9.9628895,1.36868206 C10.1260048,1.23417649 10.2758608,1.11061646 10.4121906,1.00289632 C10.5485204,1.11074994 10.6985544,1.23453244 10.8618032,1.36926048 C11.3824728,1.7989842 12.0305289,2.33380292 12.8956716,2.90697552 C13.1005668,3.04268243 13.3766525,2.9866199 13.5123594,2.7818137 C13.6480663,2.576963 13.5920038,2.3008773 13.3871976,2.16517039 C12.5609427,1.61775986 11.9328644,1.09944845 11.4282127,0.682983962 C11.1414039,0.446275514 10.8936164,0.241825266 10.6705677,0.0827589687 C10.5160398,-0.0275418288 10.3084749,-0.0274973347 10.1539025,0.0827589687 C9.93094276,0.241780772 9.68342225,0.445875067 9.39683595,0.682183069 C7.93155726,1.89033053 5.47922215,3.9123635 0.362493182,5.00175629 C0.157064064,5.04549396 0.0101891418,5.22694078 0.0101891418,5.43695278 L0.0101891418,11.2297691 C0.0101891418,12.2533997 0.401692456,13.4747619 1.17370905,14.8599512 C1.85460179,16.0814914 2.80067918,17.3663022 3.90964936,18.5754285 C5.7744403,20.6084515 8.46197106,22.7809634 10.4122796,22.7809634 C12.3619652,22.7809634 15.0490955,20.6084515 16.9137085,18.575295 C17.404745,18.0398534 17.8637014,17.4895952 18.2819456,16.9365339 C18.2921348,16.9242981 19.2770555,15.5279407 19.6494708,14.8598178 C20.4215764,13.4746284 20.8129907,12.2532217 20.8129907,11.2296356 L20.8129907,5.43686379 C20.8129907,5.22671831 20.6660268,5.04527149 20.4604642,5.00162281 Z M14.1756325,7.99309256 C15.2530119,7.99309256 16.1295005,8.8690473 16.1295005,9.94575928 C16.1295005,11.0224713 15.2530119,11.898426 14.1756325,11.898426 C13.0990095,11.898426 12.2230547,11.0224713 12.2230547,9.94575928 C12.2230547,8.8690473 13.098965,7.99309256 14.1756325,7.99309256 Z M10.4122796,13.9624614 C11.1544407,13.9624614 11.7582252,14.5662904 11.7582252,15.3084515 C11.7582252,16.0513244 11.1544407,16.6556874 10.4122796,16.6556874 C9.67007403,16.6556874 9.06628951,16.0513244 9.06628951,15.3084515 C9.06628951,14.5662904 9.67007403,13.9624614 10.4122796,13.9624614 Z M6.64759191,7.99309256 C7.72492681,7.99309256 8.60141548,8.8690473 8.60141548,9.94575928 C8.60141548,11.0224713 7.72492681,11.898426 6.64759191,11.898426 C5.57092442,11.898426 4.69496968,11.0224713 4.69496968,9.94575928 C4.69496968,8.8690473 5.57092442,7.99309256 6.64759191,7.99309256 Z M7.15611463,18.6343386 L7.15611463,20.3587063 C6.31148371,19.7199049 5.42262569,18.9082886 4.56549194,17.9738242 C4.11823756,17.4861692 3.70511013,16.9939313 3.32913524,16.5047635 L3.32913524,14.3991262 C3.32913524,13.0855278 4.01283111,12.5013651 4.8126565,12.1141777 C5.30823144,12.5342018 5.94863458,12.7882629 6.64759191,12.7882629 C7.34668272,12.7882629 7.98721934,12.5343352 8.48292777,12.1145337 C8.95727904,12.344746 9.42210858,12.6616328 9.7002855,13.1895104 C8.81556543,13.4875762 8.17640813,14.3245096 8.17640813,15.308496 C8.17640813,15.6912784 8.27313823,16.0518584 8.44319457,16.3672323 C7.79740765,16.7426288 7.15611463,17.3865025 7.15611463,18.6343386 L7.15611463,18.6343386 Z M12.7785187,20.9773518 C11.8567796,21.5601796 11.0293678,21.891082 10.4122796,21.891082 C9.79510236,21.891082 8.96769065,21.5603131 8.04599601,20.9777078 L8.04599601,18.6343386 C8.04599601,17.750019 8.49075873,17.3354678 9.02624485,17.0619627 C9.40755902,17.3643889 9.88902934,17.5456133 10.4122796,17.5456133 C10.9354409,17.5456133 11.4168222,17.3643889 11.7981364,17.0620962 C12.333667,17.3360462 12.7785187,17.7508199 12.7785187,18.6343386 L12.7785187,20.9773518 L12.7785187,20.9773518 Z M17.495335,16.5032062 C17.1190486,16.9928634 16.7055652,17.4856797 16.2578659,17.9738242 C15.4011326,18.9080217 14.512675,19.7194155 13.6684001,20.3581279 L13.6684001,18.6343386 C13.6684001,17.3873034 13.0269736,16.7432517 12.3811867,16.3674993 C12.551332,16.0520363 12.6481066,15.6914119 12.6481066,15.308496 C12.6481066,14.3242427 12.0085933,13.4871312 11.1235173,13.1892434 C11.4022726,12.6610988 11.8668797,12.3443011 12.3408305,12.1142667 C12.836361,12.5342018 13.4767641,12.7882629 14.1756325,12.7882629 C14.8747678,12.7882629 15.5153934,12.5342907 16.0111018,12.1144447 C16.8113276,12.5018546 17.495335,13.0861507 17.495335,14.3991262 L17.495335,16.5032062 Z" id="Shape"></path>
                <path d="M14.6463797,3.92913777 L14.6489159,3.9303836 C14.7126314,3.96224135 14.7802179,3.97732484 14.846781,3.97732484 C15.0097628,3.97732484 15.1665599,3.88682391 15.244558,3.73073871 C15.3544583,3.51093801 15.2640909,3.24303922 15.0442902,3.13313887 C14.824534,3.02323852 14.5572581,3.11236014 14.4473577,3.33211635 C14.3374574,3.55196154 14.4265345,3.81923742 14.6463797,3.92913777 L14.6463797,3.92913777 Z" id="Path"></path>
            </g>
        </g>
    </g>
</svg>