<?xml version="1.0" encoding="UTF-8"?>
<svg width="21px" height="21px" viewBox="0 0 21 21" version="1.1" xmlns="http://www.w3.org/2000/svg" xmlns:xlink="http://www.w3.org/1999/xlink">
    <!-- Generator: Sketch 63.1 (92452) - https://sketch.com -->
    <title>fitnes</title>
    <desc>Created with Sketch.</desc>
    <g id="Component" stroke="none" stroke-width="1" fill="none" fill-rule="evenodd">
        <g id="fitnes" transform="translate(0.579652, 0.500000)" fill-rule="nonzero">
            <g id="Group" transform="translate(0.268028, 0.268028)">
                <path d="M18.1566795,1.51049121 C18.3925059,1.76148033 18.654331,2.05902976 18.9345352,2.40804057 C18.9345352,2.40804057 18.3345735,2.94088033 17.3690599,3.82188852 L13.3137955,7.60751668 C12.3772673,8.50234746 11.3952508,9.45782917 10.4265208,10.4265591 C9.45779088,11.3952891 8.50230917,12.3773055 7.60747839,13.3138338 L3.82185023,17.3690982 C2.94084204,18.3346118 2.40800228,18.9345735 2.40800228,18.9345735 C2.05818738,18.6535269 1.7601019,18.3911657 1.50884475,18.1550713 C0.702539805,17.3969731 0.377383492,16.9039547 0.377383492,16.9039547 C0.377383492,16.9039547 0.908040738,16.3061373 1.78556457,15.3447206 L5.57793172,11.2815686 C6.47249447,10.3458444 7.42740183,9.36386619 8.39563401,8.39563401 C9.36386619,7.42740183 10.3458444,6.47249447 11.2815686,5.57793172 L15.3446824,1.78556457 C16.306099,0.908079028 16.9039164,0.377383492 16.9039164,0.377383492 C16.9039164,0.377383492 17.3975092,0.703114151 18.1566795,1.51049121 Z" id="Path" fill="#C7CDE0"></path>
                <path d="M18.1566795,1.51049121 C18.3925059,1.76148033 18.654331,2.05902976 18.9345352,2.40804057 C18.9345352,2.40804057 18.3345735,2.94088033 17.3690599,3.82188852 L13.3137955,7.60751668 C12.3772673,8.50234746 11.3952508,9.45782917 10.4265208,10.4265591 C9.45779088,11.3952891 8.50230917,12.3773055 7.60747839,13.3138338 L3.82185023,17.3690982 C2.94084204,18.3346118 2.40800228,18.9345735 2.40800228,18.9345735 C2.05818738,18.6535269 1.7601019,18.3911657 1.50884475,18.1550713 C3.26737678,16.1144589 9.05571051,9.61619545 18.1566795,1.51049121 Z" id="Path" fill="#B1ACCC"></path>
                <g transform="translate(0.000000, 7.466496)" id="Path">
                    <path d="M11.5755954,9.40766963 C11.2141404,9.68301102 10.8307454,9.90773339 10.4663421,10.088614 C9.52682724,10.5537576 8.71106473,10.7273249 8.71106473,10.7273249 C8.53669334,10.5822068 8.36450447,10.4370888 8.19445982,10.2925068 L4.03006974,7.21489388 L1.30361185,3.40977625 C1.02202924,3.0761962 0.873388541,2.88964868 0.873388541,2.88964868 C0.873388541,2.88964868 1.04611347,2.07687277 1.50938081,1.13980842 C1.69052948,0.773490658 1.91605594,0.388219483 2.19273746,0.0248500291 C2.19277575,0.0248500291 5.89581298,4.6847091 11.5755954,9.40766963 L11.5755954,9.40766963 Z" fill="#8389AA"></path>
                    <path d="M11.5755954,9.40766963 C11.2141404,9.68301102 10.8307454,9.90773339 10.4663421,10.088614 C5.7869553,6.14461959 2.4805613,2.3080661 1.5094191,1.13980842 C1.69056777,0.773490658 1.91609423,0.388219483 2.19277575,0.0248500291 C2.19277575,0.0248500291 5.89581298,4.6847091 11.5755954,9.40766963 L11.5755954,9.40766963 Z" fill="#646D91"></path>
                    <path d="M8.19204756,10.2981737 C7.83982042,10.5794883 7.46998,10.8107199 7.12855056,10.995621 C6.38343258,11.3995775 5.77290298,11.5828704 5.77290298,11.5828704 C2.22961047,8.74675075 0.0189151223,5.82892084 0.0189151223,5.82892084 C0.0189151223,5.82892084 0.200867877,5.222986 0.601837838,4.48139068 C0.787313248,4.13781701 1.02015304,3.76472197 1.30361185,3.40977625 C1.30365014,3.40977625 3.94992935,6.90294752 8.19204756,10.2981737 L8.19204756,10.2981737 Z" fill="#8389AA"></path>
                    <path d="M8.19204756,10.2981737 C7.83982042,10.5794883 7.46998,10.8107199 7.12855056,10.995621 C4.22611311,8.42783567 1.95913188,6.01301782 0.601837838,4.48139068 C0.787313248,4.13781701 1.02015304,3.76472197 1.30361185,3.40977625 C1.30365014,3.40977625 3.94992935,6.90294752 8.19204756,10.2981737 L8.19204756,10.2981737 Z" fill="#646D91"></path>
                </g>
                <g transform="translate(7.466496, 0.000000)" id="Path">
                    <path d="M9.40747818,11.5757102 C9.68281957,11.2142553 9.90754194,10.8308603 10.0884226,10.466457 C10.5535661,9.52694211 10.7271334,8.7111796 10.7271334,8.7111796 C10.5820154,8.53680821 10.4368973,8.36461934 10.2923154,8.19457468 L7.21470243,4.03018461 L3.4095848,1.30372672 C3.07600475,1.02214411 2.88945723,0.87350341 2.88945723,0.87350341 C2.88945723,0.87350341 2.07668132,1.04622834 1.13961697,1.50949568 C0.77329921,1.69064435 0.388028035,1.91617081 0.0246585805,2.19285233 C0.0246585805,2.19289062 4.68455594,5.89592785 9.40747818,11.5757102 L9.40747818,11.5757102 Z" fill="#8389AA"></path>
                    <path d="M9.40747818,11.5757102 C9.68281957,11.2142553 9.90754194,10.8308603 10.0884226,10.466457 C6.14442814,5.78707017 2.30791295,2.48067617 1.13961697,1.50949568 C0.77329921,1.69064435 0.388028035,1.91617081 0.0246585805,2.19285233 C0.0246585805,2.19289062 4.68455594,5.89592785 9.40747818,11.5757102 L9.40747818,11.5757102 Z" fill="#646D91"></path>
                    <path d="M10.2979822,8.19212414 C10.5792968,7.839897 10.8105284,7.47005658 10.9954295,7.12862714 C11.3993861,6.38350916 11.582679,5.77297956 11.582679,5.77297956 C8.7465976,2.22968705 5.82872939,0.0190299914 5.82872939,0.0190299914 C5.82872939,0.0190299914 5.22279455,0.200982747 4.48119923,0.601952707 C4.13762556,0.787428117 3.76453052,1.02026791 3.4095848,1.30372672 C3.4095848,1.30372672 6.90279436,3.95004422 10.2979822,8.19212414 L10.2979822,8.19212414 Z" fill="#8389AA"></path>
                    <path d="M10.2979822,8.19212414 C10.5792968,7.839897 10.8105284,7.47005658 10.9954295,7.12862714 C8.42764422,4.22618969 6.01282637,1.95920845 4.48119923,0.601952707 C4.13762556,0.787428117 3.76453052,1.02026791 3.4095848,1.30372672 C3.4095848,1.30372672 6.90279436,3.95004422 10.2979822,8.19212414 L10.2979822,8.19212414 Z" fill="#646D91"></path>
                </g>
            </g>
            <path d="M19.541389,5.86150539 C19.0401382,5.23516213 18.5349819,4.64913795 18.0428824,4.10867853 C18.8721229,3.35394984 19.387694,2.89585162 19.393246,2.89095053 C19.507694,2.78929132 19.5222824,2.61568573 19.4264049,2.49633666 C18.2300809,1.00744085 17.3660733,0.429610672 17.3298895,0.405756176 C17.2213765,0.334192687 17.0782878,0.344454332 16.9811085,0.430759364 C16.9755564,0.435698738 16.4524423,0.900497663 15.6128636,1.66479879 C14.5064438,0.645334961 13.7516385,0.069495844 13.7368204,0.0582769557 C13.6637636,0.00294830853 13.5686902,-0.0142437763 13.4808536,0.0121378416 C13.4286264,0.0277983376 12.2536297,0.386419866 11.1521493,1.20348423 C10.9310262,1.01885119 10.8089203,0.921710169 10.8026408,0.916732505 C10.7355189,0.863356634 10.6481417,0.842871633 10.5642107,0.860676353 C10.4974334,0.87488184 8.91388539,1.22021684 7.58530864,2.23236733 C7.51485555,2.28604952 7.47308147,2.36925308 7.47216251,2.45785549 C7.47124356,2.54645791 7.51129461,2.63050385 7.58063729,2.68564105 C7.58373876,2.68809159 7.89526393,2.93609411 8.42756764,3.3917035 C8.4817093,3.43803407 8.54810368,3.46070158 8.61419174,3.46070158 C8.6951745,3.46070158 8.77569778,3.42662373 8.83248144,3.36026764 C8.93559566,3.23976989 8.92154333,3.05850635 8.80104558,2.95535384 C8.56598498,2.75417965 8.37476611,2.59397545 8.23255809,2.47631114 C9.17471497,1.84927867 10.1985821,1.54663671 10.5538724,1.45424361 C10.6410198,1.52538591 10.7906178,1.64848737 10.9708092,1.80084217 C10.9939362,1.81837886 13.316629,3.58816806 15.9761564,6.49983333 C16.0832145,6.61699988 16.2648226,6.62515559 16.3819126,6.51817411 C16.4990026,6.41123092 16.5071966,6.22954619 16.4002534,6.11245622 C14.2632275,3.77283939 12.3338467,2.15555815 11.6151486,1.5775748 C12.3894817,1.03163996 13.1936424,0.718927805 13.508269,0.608308801 C14.0726978,1.05438405 16.5632144,3.0884872 18.9952627,6.09886337 C18.8840693,6.41555766 18.5718166,7.21795706 18.0242736,7.99294101 C17.7667752,7.67701252 17.5013126,7.36058627 17.2320976,7.04883136 C17.128409,6.92879308 16.9471455,6.91550655 16.8270306,7.01919511 C16.7069923,7.12284539 16.6937441,7.30418551 16.7973944,7.42422378 C17.1438015,7.8253469 17.4839291,8.23428113 17.8083196,8.63961611 C17.9214657,8.77248145 18.0354542,8.9168337 18.148294,9.05180496 C18.0549054,9.41015846 17.7514594,10.4336044 17.1242737,11.3744595 C14.3746888,8.10417265 11.6728895,5.50954627 9.86906077,3.89192042 C9.75101356,3.78601105 9.56940541,3.79596638 9.46353434,3.9139753 C9.35762497,4.0320608 9.36750371,4.21363066 9.48558921,4.31950174 C9.97451066,4.75795734 10.5299414,5.26878051 11.1346126,5.84580661 C10.1865209,6.7547663 9.28797596,7.63347711 8.46072654,8.46076483 C7.63363027,9.28786109 6.7554938,10.1857933 5.84745306,11.1328896 C3.86335629,9.05394919 2.70612605,7.60652115 2.68564105,7.58075216 C2.63050385,7.51140948 2.54680252,7.47174133 2.45785549,7.47227738 C2.36929137,7.47319634 2.28604952,7.51493213 2.23236733,7.58542351 C1.22021684,8.91400026 0.87488184,10.4975483 0.860676353,10.5643255 C0.842833343,10.64818 0.863394924,10.7356337 0.916732505,10.8027556 C0.921710169,10.8089968 1.01888948,10.9311411 1.20348423,11.1522642 C0.386419866,12.2537446 0.0277983376,13.4287796 0.0121378416,13.4809685 C-0.0142054866,13.5687668 0.00294830853,13.6638785 0.0582769557,13.7369353 C0.069495844,13.7517534 0.645334961,14.5065204 1.6647605,15.6129019 C0.900497663,16.4524806 0.435698738,16.9755947 0.430759364,16.981185 C0.344454332,17.0784026 0.334192687,17.221453 0.405756176,17.3299661 C0.429648962,17.3661499 1.00744085,18.2301575 2.49633666,19.4264432 C2.54925306,19.4689448 2.612814,19.4897361 2.67606862,19.4897361 C2.7554815,19.4897361 2.83432003,19.4569601 2.89091224,19.393246 C2.89581333,19.387694 3.35391155,18.8721612 4.10864024,18.0429207 C4.64909966,18.5349819 5.23512384,19.0401382 5.8614671,19.541389 C5.91304336,19.5826653 5.97648942,19.6043755 6.04093103,19.6043755 C6.06853791,19.6043755 6.09637454,19.6003934 6.12348366,19.592276 C6.17574913,19.5765772 7.35354096,19.2171516 8.45617006,18.3979813 C8.56943106,18.4936673 8.68299837,18.5888556 8.79553186,18.6823974 C8.84756759,18.7256647 8.91269841,18.7487534 8.97913107,18.7487534 C8.99904173,18.7487534 9.01906725,18.7466858 9.03890133,18.7424739 C9.1056786,18.7282684 10.6892266,18.3829334 12.0178033,17.370783 C12.0873758,17.31779 12.1289967,17.2359266 12.1308729,17.1484728 C12.1327491,17.0610191 12.0946508,16.9774709 12.0273758,16.9215679 C10.6574844,15.782487 9.40020314,14.6434827 8.2820667,13.5722512 C8.66844827,13.1691753 9.05207299,12.7722257 9.42520632,12.3894817 C9.53590191,12.2759144 9.53360453,12.0941148 9.42003721,11.9833809 C9.3064699,11.8726853 9.1246703,11.8749444 9.01393643,11.98855 C8.64015217,12.3719833 8.25583824,12.769622 7.86880574,13.1733488 C7.28504065,12.6055889 6.74266675,12.0600369 6.24585761,11.5472227 C7.15684666,10.5967952 8.03766341,9.69599123 8.86682732,8.86686561 C9.69618268,8.03751025 10.597561,7.15611916 11.548984,6.24421116 C12.0634064,6.74262846 12.6085372,7.2848492 13.1748039,7.86750389 C12.2234192,8.77952676 11.3216579,9.66130075 10.4914602,10.4914985 C10.3252828,10.6576376 10.1595266,10.8242362 9.99438303,10.990873 C9.8827302,11.1035214 9.88357258,11.2853593 9.99622094,11.3969738 C10.0522005,11.4524556 10.1252956,11.4801774 10.1983524,11.4801774 C10.2722898,11.4801774 10.346189,11.4518047 10.4023217,11.3951359 C10.5668527,11.2291117 10.7320345,11.063164 10.8975993,10.8975993 C11.7253082,10.0698904 12.6245806,9.19052862 13.573553,8.28087972 C14.6445931,9.39974366 15.7811086,10.6558763 16.9215679,12.0274524 C16.9762074,12.0931192 17.0571136,12.1310261 17.1423848,12.1310261 C17.1444141,12.1310261 17.1464435,12.1310261 17.1485111,12.1309495 C17.2359648,12.1291116 17.3178283,12.0874524 17.3708212,12.0178799 C18.3829717,10.6892649 18.7283067,9.10571689 18.7425122,9.03897791 C18.7608147,8.95290261 18.738645,8.86322809 18.6824356,8.79560844 C18.5884344,8.68257718 18.4932461,8.56900987 18.3980196,8.45628493 C19.2171516,7.35365583 19.5766155,6.17590229 19.5923143,6.12363682 C19.6193468,6.03311992 19.6003551,5.93517482 19.541389,5.86150539 L19.541389,5.86150539 Z M16.0336676,2.05834054 C16.5707575,1.56964883 16.9737951,1.20758123 17.1883707,1.01559657 C17.4678474,1.23595391 18.0599214,1.74735143 18.8062263,2.64505394 C18.5806999,2.84699393 18.1796533,3.20756824 17.6530548,3.68684068 C17.0790153,3.07497093 16.5297492,2.52918924 16.0336676,2.05834054 L16.0336676,2.05834054 Z M2.64505394,18.8062263 C1.74719827,18.0597682 1.23576246,17.4676177 1.01559657,17.1883707 C1.20754294,16.9738334 1.56961054,16.5707575 2.05830225,16.0336676 C2.52911267,16.5297492 3.07489435,17.0790153 3.68680239,17.6530548 C3.20756824,18.1796533 2.84703222,18.5806999 2.64505394,18.8062263 L2.64505394,18.8062263 Z M11.3744595,17.1241971 C10.433413,17.7514977 9.40985215,18.0549437 9.05176667,18.1482557 C8.9175612,18.0360669 8.77320895,17.9221166 8.63957782,17.8083196 C6.36804011,15.9903619 4.56172252,14.1425383 3.44641952,12.912481 C3.33989751,12.7950081 3.15828936,12.7861249 3.04077821,12.8926469 C2.92330535,12.9991689 2.91442213,13.180777 3.02094413,13.2982882 C4.10282021,14.4914342 5.82692977,16.2588112 7.99290272,18.0242736 C7.21960351,18.570285 6.41574911,18.8835333 6.09871021,18.9951478 C3.09101432,16.5652821 1.05480524,14.0729658 0.608347091,13.508269 C0.719042675,13.1934509 1.03160167,12.3897114 1.57726849,11.6156081 C1.70381601,11.7732852 1.88067624,11.9895455 2.1058198,12.2553145 C2.20832138,12.37631 2.38954663,12.3913579 2.51054215,12.2887797 C2.63157596,12.1862781 2.64654724,12.0050529 2.54400737,11.8840574 C2.06477322,11.3184416 1.79119316,10.9588628 1.79119316,10.9588628 C1.63883836,10.7786714 1.52538591,10.6410964 1.45420532,10.5539107 C1.54671329,10.1983141 1.84947011,9.17429378 2.47657917,8.23217519 C3.37186943,9.3112944 6.69706369,13.190809 11.3744595,17.1241971 L11.3744595,17.1241971 Z" id="Shape" fill="#000000"></path>
        </g>
    </g>
</svg>