<?xml version="1.0" encoding="UTF-8"?>
<svg width="28px" height="31px" viewBox="0 0 28 31" version="1.1" xmlns="http://www.w3.org/2000/svg" xmlns:xlink="http://www.w3.org/1999/xlink">
    <!-- Generator: Sketch 63.1 (92452) - https://sketch.com -->
    <title>goal</title>
    <desc>Created with Sketch.</desc>
    <g id="Component" stroke="none" stroke-width="1" fill="none" fill-rule="evenodd">
        <g id="goal" fill-rule="nonzero">
            <g id="Group" transform="translate(1.952434, 0.000000)" fill="#A7C7D3">
                <path d="M21.9893849,16.8882802 L18.3685528,16.8882802 C17.776906,16.8882802 17.2975796,17.3678377 17.2975796,17.9592534 L17.2975796,22.2916795 C17.2975796,21.7002638 16.8180222,21.2207063 16.2266065,21.2207063 L12.6055433,21.2207063 C12.0138965,21.2207063 11.5345701,21.7000327 11.5345701,22.2916795 L11.5345701,25.147993 C11.5345701,24.5565773 11.0550127,24.0770199 10.463597,24.0770199 L6.84253379,24.0770199 C6.250887,24.0770199 5.77156063,24.5565773 5.77156063,25.147993 L5.77156063,27.8069369 C5.77156063,27.2155212 5.29200316,26.7359637 4.70035637,26.7359637 L1.07952429,26.7359637 C0.488108601,26.7359637 0.0085511302,27.2152901 0.0085511302,27.8069369 L0.0085511302,29.8400294 L23.0605891,29.8400294 L23.0605891,17.9592534 C23.0605891,17.3678377 22.5810317,16.8882802 21.9893849,16.8882802 L21.9893849,16.8882802 Z" id="Path"></path>
                <path d="M18.861977,17.3405665 C18.6119137,17.3405665 18.4094596,17.1381124 18.4094596,16.8882802 L18.4094596,0.452286222 C18.4094596,0.202454135 18.6119137,2.93098879e-14 18.861977,2.93098879e-14 C19.1118091,2.93098879e-14 19.3142632,0.202454135 19.3142632,0.452286222 L19.3142632,16.8882802 C19.3142632,17.1381124 19.111578,17.3405665 18.861977,17.3405665 Z" id="Path"></path>
                <path d="M5.77156063,29.8400294 L0.0085511302,29.8400294 L0.0085511302,27.8069369 C0.0085511302,27.2155212 0.488108601,26.7359637 1.07952429,26.7359637 L4.70058753,26.7359637 C5.29200316,26.7359637 5.77156063,27.2152901 5.77156063,27.8069369 L5.77156063,29.8400294 Z" id="Path"></path>
            </g>
            <path d="M13.4870045,29.8400294 L7.72399503,29.8400294 L7.72399503,25.147993 C7.72399503,24.5565773 8.2035525,24.0770199 8.7949682,24.0770199 L12.4160314,24.0770199 C13.0074471,24.0770199 13.4870045,24.5565773 13.4870045,25.147993 L13.4870045,29.8400294 Z" id="Path" fill="#89B4C9"></path>
            <path d="M19.250014,29.8400294 L13.4870045,29.8400294 L13.4870045,22.2916795 C13.4870045,21.7002638 13.9663309,21.2207063 14.5579777,21.2207063 L18.1790409,21.2207063 C18.7704566,21.2207063 19.250014,21.7000327 19.250014,22.2916795 L19.250014,29.8400294 Z" id="Path" fill="#6C96B3"></path>
            <path d="M25.0130235,29.8400294 L19.250014,29.8400294 L19.250014,17.9592534 C19.250014,17.3678377 19.7293404,16.8882802 20.3209872,16.8882802 L23.9418193,16.8882802 C24.5334661,16.8882802 25.0130235,17.3678377 25.0130235,17.9592534 L25.0130235,29.8400294 Z" id="Path" fill="#618AAA"></path>
            <path d="M26.6102388,30.2923156 L0.452286222,30.2923156 C0.202454135,30.2923156 -2.84217094e-14,30.0898614 -2.84217094e-14,29.8400294 C-2.84217094e-14,29.5901972 0.202454135,29.3877431 0.452286222,29.3877431 L26.6102388,29.3877431 C26.8600709,29.3877431 27.062525,29.5901972 27.062525,29.8400294 C27.062525,30.0898614 26.8600709,30.2923156 26.6102388,30.2923156 Z" id="Path" fill="#2F5066"></path>
            <path d="M20.8144114,4.75258772 L26.6109321,4.75258772 C26.7905061,4.75258772 26.8743998,4.53025792 26.7396615,4.41169747 L25.2339666,3.08557668 C25.1456819,3.00815414 25.1456819,2.87087363 25.2339666,2.79321999 L26.7396615,1.46733024 C26.8743998,1.34853869 26.7905061,1.12620889 26.6109321,1.12620889 L20.8144114,1.12620889 L20.8144114,4.75258772 Z" id="Path" fill="#FDB659"></path>
            <path d="M21.2759421,6.44964335 L14.9966283,9.86016351 C14.4364127,10.164538 14.2831855,10.6993313 14.0876647,11.3882762 L12.8389664,15.8045959 L14.4881818,16.3710515 L15.8991207,14.550351 L17.0868055,10.9595634 L20.2468003,9.03948469 C21.1298793,8.50307369 21.5498098,7.44596725 21.2759421,6.44964335 L21.2759421,6.44964335 Z" id="Path" fill="#32CD32"></path>
            <path d="M21.2759421,6.44964335 L20.5514059,6.84322708 C20.4293787,7.46676736 20.0526661,8.02998736 19.482975,8.3761932 L16.6035502,10.1257112 C16.4223584,10.2357205 16.2862334,10.4069746 16.219442,10.6082731 L15.8082937,11.8514247 C15.3809676,13.143341 14.4102971,14.1840384 13.1511988,14.7001116 L12.8389664,15.8045959 L15.8991207,14.5505821 L17.0868055,10.9597946 L20.2468003,9.03948469 C21.1298793,8.50307369 21.5498098,7.44596725 21.2759421,6.44964335 L21.2759421,6.44964335 Z" id="Path" fill="#38B638"></path>
            <path d="M15.8991207,14.550351 L17.7073412,16.687675 C18.0070936,17.0844944 18.267788,17.3634465 18.2137077,17.8000172 L17.7907727,21.2188574 L16.6872128,21.2188574 L16.398785,18.2798058 C16.3812205,18.1018495 16.2686689,17.9476977 16.1045794,17.8769775 L12.8389664,15.8045959 L15.8991207,14.550351 Z" id="Path" fill="#174896"></path>
            <path d="M12.8389664,15.8045959 L12.662628,19.0450177 C12.6510723,19.313801 12.6887436,19.495455 12.5835876,19.6953669 L10.5012683,24.0770199 L11.6718507,24.0770199 L14.8027253,19.9174656 C14.985766,19.7043803 15.0070284,19.4150281 15.0687352,19.148787 L15.8988896,14.550351 L12.8389664,15.8045959 Z" id="Path" fill="#2055A9"></path>
            <path d="M15.674711,7.14921947 L16.1882419,8.15178341 C16.4295229,8.62278975 16.2432466,9.20056976 15.7720092,9.44185077 L15.3751898,9.6449982 C14.9039524,9.88627916 14.3264034,9.70000289 14.0851225,9.22876545 L13.5715916,8.22620145 C13.3303106,7.75496407 13.5165869,7.1774151 13.9878243,6.93613415 L14.3846436,6.73298666 C14.85565,6.49170571 15.4331989,6.67798203 15.674711,7.14921947 L15.674711,7.14921947 Z" id="Path" fill="#FECBAA"></path>
        </g>
    </g>
</svg>