<?xml version="1.0" encoding="UTF-8"?>
<svg width="25px" height="25px" viewBox="0 0 25 25" version="1.1" xmlns="http://www.w3.org/2000/svg" xmlns:xlink="http://www.w3.org/1999/xlink">
    <!-- Generator: Sketch 63.1 (92452) - https://sketch.com -->
    <title>health-insurance</title>
    <desc>Created with Sketch.</desc>
    <g id="Component" stroke="none" stroke-width="1" fill="none" fill-rule="evenodd">
        <g id="health-insurance" transform="translate(0.500000, 0.500000)" fill-rule="nonzero">
            <g id="Group" transform="translate(0.374384, 0.327586)">
                <g id="Path">
                    <path d="M11.4186256,23.2817857 C23.1596429,18.473569 22.8241946,4.94341626 22.8241946,4.94341626 C19.1341232,1.25339163 11.4186256,0.0233990148 11.4186256,0.0233990148 C11.4186256,0.0233990148 3.70308128,1.25339163 0.0130566502,4.94341626 C0.0130566502,4.94341626 -0.322391626,18.473569 11.4186256,23.2817857 Z" fill="#32CD32"></path>
                    <path d="M11.418532,23.2820197 C-0.322485222,18.473569 0.0130566502,4.94341626 0.0130566502,4.94341626 C3.62300985,1.33346305 11.085798,0.0779187192 11.4077685,0.0255049261 C11.1574926,0.0741280788 6.54512562,0.993194581 3.29486207,3.49015025 C2.27166995,4.27621675 1.72399261,5.53236946 1.83242365,6.81809852 C2.16005665,10.7030369 3.75357635,19.5788916 11.418532,23.2820197 Z" fill="#39AA39"></path>
                    <path d="M11.4186256,20.5481256 C7.78803448,18.7806576 5.20188177,15.7879704 3.72362562,11.63867 C2.90597044,9.34360099 2.63795813,7.23740887 2.55058621,6.03699261 C5.13365025,4.05621921 9.43013054,2.92726355 11.4164729,2.55765271 C13.4032833,2.9306798 17.7098719,4.0659532 20.2867118,6.03792857 C20.1994335,7.23595813 19.9315616,9.34275862 19.113532,11.6386232 C17.6352759,15.7879704 15.04917,18.7806576 11.4186256,20.5481256 Z" fill="#F5F0F0"></path>
                    <path d="M11.4187192,20.5484532 C7.78817488,18.7808916 5.20216256,15.7882044 3.72381281,11.63867 C2.90578325,9.34369458 2.63809852,7.23736207 2.55058621,6.03699261 C5.13383744,4.0565 9.43031773,2.92731034 11.4163793,2.55760591 C10.4104089,2.77339163 8.72156158,3.24792365 7.044133,3.9994532 C4.90803695,4.95647291 3.72559113,7.27676601 4.20714286,9.56738916 C4.34538424,10.2249483 4.52031527,10.9226133 4.74166995,11.63867 C6.02435714,15.7882044 8.26832266,18.7808916 11.4187192,20.5484532 Z" fill="#E8DED8"></path>
                </g>
                <path d="M15.2078153,9.03852463 C14.7460591,9.01863547 14.284303,9.00267734 13.8225468,8.99013547 C13.5434433,8.98255419 13.3196552,8.75876601 13.3120739,8.47966256 C13.2995788,8.0179064 13.2835739,7.55615025 13.2636847,7.09439409 C13.2533892,6.85553695 13.0822488,6.65116995 12.847697,6.6048867 C11.8949828,6.41689901 10.9422685,6.41689901 9.98950739,6.6048867 C9.75495567,6.65116995 9.58381527,6.85553695 9.5735197,7.09439409 C9.55363054,7.55615025 9.53767241,8.0179064 9.52513054,8.47966256 C9.51754926,8.75876601 9.29376108,8.98255419 9.01465764,8.99013547 C8.55290148,9.00263054 8.09114532,9.01863547 7.62938916,9.03852463 C7.39053202,9.0488202 7.18616502,9.21996059 7.13988177,9.45451232 C6.95189409,10.4072266 6.95189409,11.3599409 7.13988177,12.312702 C7.18616502,12.5472537 7.39053202,12.7183941 7.62938916,12.7286897 C8.09114532,12.7485788 8.55290148,12.7645369 9.01465764,12.7770788 C9.29376108,12.7846601 9.51754926,13.0084483 9.52513054,13.2875517 C9.53762562,13.7493079 9.55363054,14.211064 9.5735197,14.6728202 C9.58381527,14.9116773 9.75495567,15.1160443 9.98950739,15.1623276 C10.9422217,15.3503153 11.894936,15.3503153 12.847697,15.1623276 C13.0822488,15.1160443 13.2533892,14.9116773 13.2636847,14.6728202 C13.2835739,14.211064 13.299532,13.7493079 13.3120739,13.2875517 C13.3196552,13.0084483 13.5434433,12.7846601 13.8225468,12.7770788 C14.284303,12.7645837 14.7460591,12.7485788 15.2078153,12.7286897 C15.4466724,12.7183941 15.6510394,12.5472537 15.6973227,12.312702 C15.8853103,11.3599877 15.8853103,10.4072734 15.6973227,9.45451232 C15.6510394,9.21996059 15.4466724,9.0487734 15.2078153,9.03852463 Z" id="Path" fill="#DD636E"></path>
            </g>
            <g id="Group" fill="#000000">
                <path d="M23.5494236,5.26234483 C23.5471773,5.17230542 23.5103941,5.08652463 23.4467488,5.02287931 C21.8765813,3.45275862 19.4450025,2.13062069 16.2194483,1.09315517 C13.8311576,0.324965517 11.928069,0.0171280788 11.8482315,0.00439901478 C11.8116823,-0.00145073892 11.7742906,-0.00145073892 11.7377414,0.00439901478 C11.6579039,0.0171280788 9.75481527,0.324965517 7.36652463,1.09315517 C4.14097044,2.13057389 1.70939163,3.45271182 0.139224138,5.02283251 C0.0755788177,5.08652463 0.0387955665,5.17225862 0.0365492611,5.26229803 C0.0330862069,5.4030197 -0.0328990148,8.75446059 1.35578571,12.7522759 C2.1731133,15.105234 3.32785468,17.1870911 4.7879532,18.9401453 C6.61616502,21.1352537 8.92831527,22.8154901 11.6599631,23.9341502 C11.7025961,23.9516059 11.747803,23.9603571 11.7930099,23.9603571 C11.8382167,23.9603571 11.8834236,23.9516059 11.9260567,23.9341502 C14.6577044,22.8154433 16.9698079,21.1352069 18.7980665,18.9401453 C20.258165,17.1870911 21.4129064,15.1051872 22.230234,12.7522759 C23.6189187,8.75450739 23.5529335,5.4030197 23.5494236,5.26234483 Z M21.5592906,12.5443054 C20.7685911,14.8128399 19.655032,16.8172463 18.2495936,18.5017882 C16.5267241,20.5668448 14.354968,22.1569015 11.7929631,23.2295123 C9.23095813,22.1569015 7.05924877,20.5668448 5.33633251,18.5017882 C3.93094089,16.8172463 2.81738177,14.8128867 2.02663547,12.5443054 C0.829541872,9.11007882 0.741561576,6.09099754 0.737724138,5.41869704 C4.17906404,2.08953202 11.1024581,0.82579803 11.7930099,0.706884236 C12.4835616,0.82579803 19.4069089,2.08953202 22.848202,5.41869704 C22.8443177,6.09137192 22.7562906,9.11031281 21.5592906,12.5443054 Z" id="Shape"></path>
                <path d="M11.7264631,2.54000985 C11.1328768,2.6505 5.83744581,3.68862069 2.71119704,6.08599015 C2.61741379,6.15791872 2.56607635,6.27219951 2.57468719,6.39003695 C2.67282266,7.73576108 2.95941379,9.81602709 3.76738177,12.0840468 C5.27615025,16.3186601 7.92468473,19.3827143 11.6393251,21.1912241 C11.6878079,21.2148103 11.7404089,21.2266502 11.7929631,21.2266502 C11.8455172,21.2266502 11.8981182,21.2148571 11.946601,21.1912241 C15.6612414,19.3827143 18.3097759,16.3186133 19.8185443,12.0840468 C20.6261847,9.81747783 20.9129163,7.73711823 21.0112389,6.3910197 C21.0198498,6.27299507 20.9684187,6.15857389 20.8744015,6.08669212 C20.2906897,5.64019212 19.5848818,5.2084803 18.7765862,4.80353695 C18.6032931,4.7167266 18.3924212,4.78687685 18.305564,4.96016995 C18.2188005,5.13346305 18.2889039,5.34438177 18.462197,5.43119212 C19.1616404,5.78156897 19.7776897,6.15094581 20.2962586,6.53075862 C20.1883892,7.83478571 19.9013768,9.76033744 19.1572882,11.8484655 C17.7333177,15.8449704 15.256064,18.7495837 11.7929631,20.4842463 C8.32986207,18.7495837 5.85256158,15.8449704 4.42863793,11.8485123 C3.65221182,9.66917488 3.38288916,7.64651724 3.28971429,6.52944828 C4.38315025,5.72559852 5.86477586,4.99353695 7.69757389,4.35188916 C9.54862315,3.70383005 11.1338596,3.36697783 11.7903424,3.24230788 C12.5342906,3.38485468 14.8312783,3.87300493 17.2090862,4.86030296 C17.3880419,4.93461823 17.5934852,4.8497734 17.6678473,4.67077094 C17.7421626,4.49172167 17.6572709,4.28637192 17.4782685,4.21200985 C14.9642783,3.16808621 12.5388768,2.66842365 11.8554384,2.54010345 C11.8128054,2.53214778 11.7690493,2.53210099 11.7264631,2.54000985 Z" id="Path"></path>
                <path d="M15.5669433,12.7055246 C15.1274631,12.724665 14.6633202,12.7409975 14.1875714,12.7540074 C13.7223054,12.7664557 13.3480616,13.1405123 13.3355665,13.6053571 C13.3228374,14.0716995 13.3066921,14.535936 13.2875517,14.9851034 C13.2841823,15.0633498 13.2280714,15.1307389 13.1541773,15.1453399 C12.250835,15.3236872 11.3348571,15.3236404 10.4317956,15.1453399 C10.3578547,15.1307389 10.3017906,15.0633498 10.2983744,14.9852438 C10.279234,14.535936 10.2630887,14.0716995 10.2503596,13.6055443 C10.2378645,13.1405123 9.86362069,12.7665025 9.39830788,12.7540074 C9.17133744,12.7479236 8.94394581,12.7409507 8.71697537,12.7330419 C8.52238916,12.7261158 8.36074877,12.877835 8.35396305,13.0715788 C8.34717734,13.2653227 8.49875616,13.4278522 8.6924532,13.4345911 C8.92134236,13.4425936 9.15065271,13.4496133 9.37949507,13.4557438 C9.47187438,13.4582241 9.54618966,13.5323054 9.54862315,13.6245443 C9.56144581,14.0943966 9.57773153,14.5622833 9.59701232,15.0152882 C9.61437438,15.4194828 9.90171429,15.7561946 10.2957069,15.8340665 C10.792468,15.9321552 11.2926921,15.9811995 11.7929163,15.9811995 C12.2931404,15.9811995 12.7934113,15.9321552 13.2901724,15.8340665 C13.6841182,15.7561946 13.9714581,15.4195296 13.9888202,15.0151478 C14.008101,14.5622833 14.0243867,14.0944433 14.0372094,13.6244039 C14.0396897,13.5323054 14.1140049,13.4582241 14.2065246,13.4557438 C14.6862044,13.4425936 15.1541847,13.4261675 15.5972685,13.4068867 C16.0015567,13.3894778 16.3381749,13.1021379 16.4159532,12.7081921 C16.6121305,11.7148571 16.6121305,10.7075764 16.416,9.71424138 C16.3381749,9.32029557 16.0015567,9.03300246 15.5974089,9.0155468 C15.1444039,8.99579803 14.67633,8.97951232 14.2069458,8.96715764 C14.1142857,8.96453695 14.0396897,8.89022167 14.0372094,8.79784236 C14.0243867,8.32794335 14.008101,7.86010345 13.9888202,7.40714532 C13.9714581,7.00295074 13.6841182,6.66623892 13.2901256,6.588367 C12.2966034,6.39223645 11.2891823,6.39223645 10.2956601,6.588367 C9.90171429,6.66623892 9.61437438,7.00290394 9.59701232,7.40728571 C9.57773153,7.86010345 9.56144581,8.32794335 9.54862315,8.79802956 C9.54614286,8.89022167 9.4715936,8.96453695 9.37968227,8.96715764 C8.90950246,8.97955911 8.44142857,8.99584483 7.98856404,9.0155468 C7.58427586,9.03300246 7.24765764,9.32029557 7.16987931,9.71419458 C6.97861576,10.6822118 6.97365517,11.6638473 7.15518473,12.6318645 C7.19084483,12.8224261 7.37452709,12.9478448 7.56480788,12.9121847 C7.75532266,12.8764778 7.88083498,12.6930764 7.84508128,12.5025148 C7.68016502,11.622665 7.68465764,10.7303202 7.85855911,9.85023645 C7.8731601,9.77634236 7.94054926,9.72023153 8.01898276,9.71686207 C8.46800985,9.69730049 8.93201232,9.68115517 9.39891626,9.66884729 C9.86390148,9.65560345 10.2378645,9.28135961 10.2503128,8.81702956 C10.2630419,8.35068719 10.2791872,7.88645074 10.2983276,7.43733005 C10.301697,7.35908374 10.3578079,7.29164778 10.431702,7.2770468 C11.3349507,7.09869951 12.2509286,7.09874631 13.1540837,7.2770468 C13.2280246,7.29164778 13.2840887,7.35903695 13.2875049,7.43718966 C13.3066453,7.88645074 13.3227906,8.35068719 13.3355197,8.81688916 C13.3480148,9.2814064 13.7219778,9.65565025 14.1877118,9.66889409 C14.653867,9.68115517 15.1178695,9.69730049 15.5670369,9.71686207 C15.64533,9.72023153 15.7127192,9.77634236 15.727367,9.85023645 C15.9057143,10.753298 15.9057143,11.6691355 15.7273202,12.572197 C15.712766,12.6460443 15.6453768,12.7021552 15.5669433,12.7055246 L15.5669433,12.7055246 Z" id="Path"></path>
            </g>
        </g>
    </g>
</svg>