<?xml version="1.0" encoding="UTF-8"?>
<svg width="24px" height="23px" viewBox="0 0 24 23" version="1.1" xmlns="http://www.w3.org/2000/svg" xmlns:xlink="http://www.w3.org/1999/xlink">
    <!-- Generator: Sketch 63.1 (92452) - https://sketch.com -->
    <title>house (1)</title>
    <desc>Created with Sketch.</desc>
    <g id="Component" stroke="none" stroke-width="1" fill="none" fill-rule="evenodd">
        <g id="house-(1)" transform="translate(0.500000, 0.000000)" fill-rule="nonzero">
            <polygon id="Path" fill="#FF6E37" points="3.44418732 11.326115 11.326115 3.44423156 19.2079984 11.326115 22.209761 11.326115 11.326115 0.442513122 0.44246888 11.326115"></polygon>
            <polygon id="Path" fill="#FFFFFF" points="2.83156192 11.3666853 2.83156192 22.2098053 19.820668 22.2098053 19.820668 11.3666853 11.326115 3.44423156"></polygon>
            <rect id="Rectangle" fill="#9BBEFF" x="9.0254626" y="13.3612683" width="4.60121623" height="8.84849274"></rect>
            <g id="Group" transform="translate(4.689701, 7.698189)" fill="#F5C86E">
                <rect id="Rectangle" x="10.7951611" y="5.6630796" width="2.47757797" height="4.42424637"></rect>
                <rect id="Rectangle" x="0" y="5.6630796" width="2.47757797" height="4.42424637"></rect>
                <circle id="Oval" cx="6.63636956" cy="1.60693052" r="1.59272869"></circle>
            </g>
            <path d="M22.209761,21.7673806 L20.2630926,21.7673806 L20.2630926,18.272226 C20.2630926,18.0278749 20.0649749,17.8298014 19.820668,17.8298014 C19.5763611,17.8298014 19.3782434,18.0278749 19.3782434,18.272226 L19.3782434,21.7673806 L14.0691477,21.7673806 L14.0691477,13.3613125 C14.0691477,13.1169614 13.87103,12.9188879 13.6267231,12.9188879 L9.02550684,12.9188879 C8.78119996,12.9188879 8.58308221,13.1169614 8.58308221,13.3613125 L8.58308221,21.7673806 L3.27398656,21.7673806 L3.27398656,11.7685396 L3.44423156,11.7685396 C3.56156257,11.7685396 3.67407116,11.721908 3.75707002,11.6389534 L11.326115,4.06990848 L18.8951599,11.6389534 C18.9781588,11.721908 19.0906673,11.7685396 19.2079984,11.7685396 L19.3782434,11.7685396 L19.3782434,15.0867244 C19.3782434,15.3310755 19.5763611,15.529149 19.820668,15.529149 C20.0649749,15.529149 20.2630926,15.3310755 20.2630926,15.0867244 L20.2630926,11.7685396 L22.209761,11.7685396 C22.3887218,11.7685396 22.5500298,11.6607207 22.6185172,11.4954309 C22.6870045,11.330141 22.6490887,11.1398099 22.5225995,11.0132765 L11.6389534,0.129630419 C11.4661424,-0.0431364021 11.1860876,-0.0431364021 11.0132323,0.129630419 L6.85444066,4.28842201 C6.68167384,4.46118883 6.68167384,4.74133211 6.85444066,4.91409893 C7.02725173,5.08690999 7.30739501,5.08690999 7.48016183,4.91409893 L11.326115,1.0681458 L21.1416152,10.8836903 L19.3912506,10.8836903 L11.6389534,3.1313931 C11.4661424,2.95862628 11.1860876,2.95862628 11.0132323,3.1313931 L3.26093503,10.8836903 L1.51057044,10.8836903 L5.00258386,7.39172114 C5.17535068,7.21895432 5.17535068,6.93881104 5.00258386,6.76599998 C4.82981704,6.5932774 4.54967376,6.59323316 4.37686269,6.76599998 L0.129586176,11.0132765 C0.00309697246,11.1398099 -0.034818819,11.3300968 0.0336685149,11.4954309 C0.102155849,11.660765 0.263508114,11.7685396 0.44246888,11.7685396 L2.38913728,11.7685396 L2.38913728,21.7673364 L0.44246888,21.7673364 C0.198161995,21.7673364 -1.30982506e-05,21.9654099 -1.30982506e-05,22.209761 C-1.30982506e-05,22.4541122 0.198161995,22.6521857 0.44246888,22.6521857 L2.83156192,22.6521857 L9.02550684,22.6521857 L13.6267231,22.6521857 L19.820668,22.6521857 L22.209761,22.6521857 C22.4540679,22.6521857 22.6521988,22.4541122 22.6521988,22.209761 C22.6521988,21.9654099 22.4540679,21.7673806 22.209761,21.7673806 Z M9.46793148,21.7673806 L9.46793148,13.8037372 L13.1842984,13.8037372 L13.1842984,21.7673806 L9.46793148,21.7673806 Z" id="Shape" fill="#000000"></path>
            <path d="M15.4849065,12.9188879 C15.2405997,12.9188879 15.0424819,13.1169614 15.0424819,13.3613125 L15.0424819,17.7855589 C15.0424819,18.02991 15.2405997,18.2279835 15.4849065,18.2279835 L17.9624845,18.2279835 C18.2067914,18.2279835 18.4049092,18.02991 18.4049092,17.7855589 L18.4049092,13.3613125 C18.4049092,13.1169614 18.2067914,12.9188879 17.9624845,12.9188879 L15.4849065,12.9188879 Z M17.5200599,17.3431343 L15.9273312,17.3431343 L15.9273312,13.8037372 L17.5200599,13.8037372 L17.5200599,17.3431343 Z" id="Shape" fill="#000000"></path>
            <path d="M4.6897454,12.9188879 C4.44543851,12.9188879 4.24732076,13.1169614 4.24732076,13.3613125 L4.24732076,17.7855589 C4.24732076,18.02991 4.44543851,18.2279835 4.6897454,18.2279835 L7.16732337,18.2279835 C7.41163025,18.2279835 7.609748,18.02991 7.609748,17.7855589 L7.609748,13.3613125 C7.609748,13.1169614 7.41163025,12.9188879 7.16732337,12.9188879 L4.6897454,12.9188879 Z M6.72489873,17.3431343 L5.13217003,17.3431343 L5.13217003,13.8037372 L6.72489873,13.8037372 L6.72489873,17.3431343 Z" id="Shape" fill="#000000"></path>
            <path d="M9.29096162,9.30516346 C9.29096162,10.4273293 10.2039491,11.3403168 11.326115,11.3403168 C12.4482808,11.3403168 13.3612683,10.4273293 13.3612683,9.30516346 C13.3612683,8.18299761 12.4482808,7.27001012 11.326115,7.27001012 C10.2039491,7.27001012 9.29096162,8.18299761 9.29096162,9.30516346 Z M12.476419,9.30516346 C12.476419,9.93942342 11.9604192,10.4554675 11.326115,10.4554675 C10.6918108,10.4554675 10.1758109,9.93942342 10.1758109,9.30516346 C10.1758109,8.6709035 10.6918108,8.1548594 11.326115,8.1548594 C11.9604192,8.1548594 12.476419,8.6709035 12.476419,9.30516346 Z" id="Shape" fill="#000000"></path>
            <path d="M10.4855081,17.3431343 C10.3691505,17.3431343 10.2550049,17.3904737 10.1727139,17.4727647 C10.0904229,17.5550557 10.0430835,17.6692012 10.0430835,17.7855589 C10.0430835,17.9019166 10.0903787,18.0160621 10.1727139,18.0983531 C10.2550492,18.1806441 10.3691505,18.2279835 10.4855081,18.2279835 C10.6018658,18.2279835 10.7160114,18.1806441 10.7982581,18.0983531 C10.8805491,18.0160621 10.9279328,17.9019166 10.9279328,17.7855589 C10.9279328,17.6692012 10.8805933,17.5550557 10.7982581,17.4727647 C10.7160114,17.3904737 10.6018216,17.3431343 10.4855081,17.3431343 Z" id="Path" fill="#000000"></path>
            <path d="M5.88429192,6.3267608 C6.0006496,6.3267608 6.11479515,6.27942136 6.19704189,6.19713038 C6.27933288,6.1148394 6.32671656,6.00069384 6.32671656,5.88433616 C6.32671656,5.76797848 6.27937712,5.65383292 6.19704189,5.57154194 C6.11479515,5.48925096 6.0006496,5.44191152 5.88429192,5.44191152 C5.76793424,5.44191152 5.65378868,5.48925096 5.5714977,5.57154194 C5.48920672,5.65383292 5.44186728,5.76797848 5.44186728,5.88433616 C5.44186728,6.00069384 5.48916247,6.1148394 5.5714977,6.19713038 C5.65383292,6.27942136 5.76793424,6.3267608 5.88429192,6.3267608 Z" id="Path" fill="#000000"></path>
            <path d="M19.820668,16.1189011 C19.7043103,16.1189011 19.5901648,16.1662405 19.5078738,16.2485315 C19.4255828,16.3312649 19.3782434,16.444968 19.3782434,16.5613257 C19.3782434,16.6776834 19.4255385,16.7918289 19.5078738,16.8745623 C19.5901648,16.9568533 19.7043103,17.0037503 19.820668,17.0037503 C19.9370257,17.0037503 20.0511712,16.9568533 20.133418,16.8745623 C20.2157089,16.7918289 20.2630926,16.6781258 20.2630926,16.5613257 C20.2630926,16.444968 20.2157532,16.3308225 20.133418,16.2485315 C20.0511712,16.1662847 19.9369814,16.1189011 19.820668,16.1189011 Z" id="Path" fill="#000000"></path>
        </g>
    </g>
</svg>