<?xml version="1.0" encoding="UTF-8"?>
<svg width="20px" height="20px" viewBox="0 0 20 20" version="1.1" xmlns="http://www.w3.org/2000/svg" xmlns:xlink="http://www.w3.org/1999/xlink">
    <!-- Generator: Sketch 63.1 (92452) - https://sketch.com -->
    <title>analytics</title>
    <desc>Created with Sketch.</desc>
    <g id="Component" stroke="none" stroke-width="1" fill="none" fill-rule="evenodd" opacity="0.541038876">
        <g id="Bottom-Nav-1-1" transform="translate(-315.000000, -16.000000)" fill="#B3C3D6" fill-rule="nonzero">
            <g id="analytics" transform="translate(315.500000, 16.513672)">
                <path d="M18.3626279,7.63581715 L16.0215757,7.63581715 C15.8195502,7.63581715 15.6557863,7.79961764 15.6557863,8.00160655 L15.6557863,9.84884302 C15.6557863,10.0508319 15.8195502,10.2146324 16.0215757,10.2146324 C16.2236012,10.2146324 16.3873651,10.0508319 16.3873651,9.84884302 L16.3873651,8.36739595 L17.9968385,8.36739595 L17.9968385,17.9968385 L17.1921018,17.9968385 L16.3873651,17.9968385 L16.3873651,12.5922635 C16.3873651,12.3902746 16.2236012,12.2264741 16.0215757,12.2264741 C15.8195502,12.2264741 15.6557863,12.3902746 15.6557863,12.5922635 L15.6557863,17.9968385 L14.9242075,17.9968385 L14.9242075,10.4249979 C14.9242075,10.223009 14.7604436,10.0592085 14.5584181,10.0592085 L12.217366,10.0592085 C12.0153405,10.0592085 11.8515766,10.223009 11.8515766,10.4249979 L11.8515766,17.9968385 L11.1199978,17.9968385 L11.1199978,12.9855237 C11.1199978,12.7835348 10.9562338,12.6197343 10.7542084,12.6197343 L8.4131562,12.6197343 C8.21113071,12.6197343 8.0473668,12.7835348 8.0473668,12.9855237 L8.0473668,17.9968385 L7.315788,17.9968385 L7.315788,15.0842404 C7.315788,14.8822515 7.15202409,14.718451 6.9499986,14.718451 L4.60894644,14.718451 C4.40692095,14.718451 4.24315704,14.8822515 4.24315704,15.0842404 L4.24315704,17.9968385 L1.0973682,17.9968385 C0.895671925,17.9968385 0.7315788,17.8327454 0.7315788,17.6310491 L0.7315788,1.0973682 C0.7315788,0.895671925 0.895671925,0.7315788 1.0973682,0.7315788 L10.5338202,0.7315788 L10.5338202,3.14589858 C10.5338202,3.7509874 11.0260996,4.24326678 11.6311884,4.24326678 L14.0453985,4.24326678 L14.0453985,8.74236666 C14.0453985,8.94435557 14.2091624,9.10815606 14.4111879,9.10815606 C14.6132134,9.10815606 14.7769773,8.94435557 14.7769773,8.74236666 L14.7769773,3.87747738 C14.7769773,3.78047003 14.7384231,3.68744978 14.6698376,3.61882769 L11.1582593,0.107139715 C11.0896372,0.0385542028 10.996617,0 10.8996096,0 L1.0973682,0 C0.492279375,0 0,0.492279375 0,1.0973682 L0,17.6310491 C0,18.2361379 0.492279375,18.7284173 1.0973682,18.7284173 L18.3626279,18.7284173 C18.5646534,18.7284173 18.7284173,18.5646168 18.7284173,18.3626279 L18.7284173,8.00160655 C18.7284173,7.79961764 18.5646534,7.63581715 18.3626279,7.63581715 Z M11.265399,1.24891475 L13.5281357,3.51168798 L11.6311884,3.51168798 C11.4294556,3.51168798 11.265399,3.34759485 11.265399,3.14589858 L11.265399,1.24891475 Z M6.5842092,17.9968385 L4.97473584,17.9968385 L4.97473584,15.4500298 L6.5842092,15.4500298 L6.5842092,17.9968385 Z M10.388419,17.9968385 L8.7789456,17.9968385 L8.7789456,13.3513131 L10.388419,13.3513131 L10.388419,17.9968385 Z M14.1926287,17.9968385 L12.5831554,17.9968385 L12.5831554,10.7907873 L14.1926287,10.7907873 L14.1926287,17.9968385 Z" id="Shape"></path>
                <path d="M16.2801888,10.8939399 C16.212152,10.8255739 16.1177783,10.7867636 16.0215757,10.7867636 C15.9253731,10.7867636 15.8309994,10.8255739 15.7629626,10.8939399 C15.6949258,10.9619767 15.6557863,11.0563504 15.6557863,11.152553 C15.6557863,11.2487556 15.6949258,11.3431293 15.7629626,11.4111661 C15.8309994,11.4791664 15.9253731,11.5183424 16.0215757,11.5183424 C16.1177783,11.5183424 16.212152,11.479203 16.2801888,11.4111661 C16.3482257,11.3431293 16.3873651,11.2487556 16.3873651,11.152553 C16.3873651,11.0563504 16.3482257,10.9619767 16.2801888,10.8939399 Z" id="Path"></path>
                <path d="M5.32505235,2.00192881 C5.12302686,2.00192881 4.95926295,2.1657293 4.95926295,2.36771821 L4.95926295,3.02573676 C3.27549776,3.20852172 1.96070434,4.63875828 1.96070434,6.37033214 C1.96070434,8.22543308 3.46995141,9.73468014 5.32505235,9.73468014 C7.05662621,9.73468014 8.48686276,8.4199233 8.66964773,6.73612154 L9.3276297,6.73612154 C9.52965519,6.73612154 9.6934191,6.57232104 9.6934191,6.37033214 C9.6934191,3.96157236 7.73377555,2.00192881 5.32505235,2.00192881 Z M5.32505235,9.00306477 C3.87334396,9.00306477 2.69228314,7.82200395 2.69228314,6.37029556 C2.69228314,5.04273609 3.68009742,3.94149052 4.95926295,3.76287556 L4.95926295,6.37029556 C4.95926295,6.57228447 5.12302686,6.73608496 5.32505235,6.73608496 L7.93247235,6.73608496 C7.75385739,8.01525049 6.65261182,9.00306477 5.32505235,9.00306477 Z M5.69084175,6.00454274 L5.69084175,6.00450616 L5.69084175,2.7517605 C7.40463825,2.92375467 8.77159323,4.29074624 8.94358741,6.00454274 L5.69084175,6.00454274 Z" id="Shape"></path>
                <path d="M9.3276297,10.7633531 L2.34105216,10.7633531 C2.13902667,10.7633531 1.97526276,10.9271536 1.97526276,11.1291425 C1.97526276,11.3311314 2.13902667,11.4949319 2.34105216,11.4949319 L9.3276297,11.4949319 C9.52965519,11.4949319 9.6934191,11.3311314 9.6934191,11.1291425 C9.6934191,10.9271536 9.52965519,10.7633531 9.3276297,10.7633531 Z" id="Path"></path>
                <path d="M4.68210432,12.528287 L2.34105216,12.528287 C2.13902667,12.528287 1.97526276,12.6920874 1.97526276,12.8940764 C1.97526276,13.0960653 2.13902667,13.2598658 2.34105216,13.2598658 L4.68210432,13.2598658 C4.88412981,13.2598658 5.04789372,13.0960653 5.04789372,12.8940764 C5.04789372,12.6920874 4.88412981,12.528287 4.68210432,12.528287 Z" id="Path"></path>
                <path d="M6.77259074,12.6354632 C6.70455391,12.5674264 6.61018025,12.528287 6.51397764,12.528287 C6.41740923,12.528287 6.32340136,12.5673898 6.25536453,12.6354632 C6.18696191,12.7035001 6.14818824,12.7978737 6.14818824,12.8940764 C6.14818824,12.990279 6.18696191,13.0846526 6.25536453,13.1526529 C6.32340136,13.2206897 6.41740923,13.2598658 6.51397764,13.2598658 C6.61018025,13.2598658 6.70455391,13.2207263 6.77259074,13.1526529 C6.84062757,13.0846526 6.87976704,12.990279 6.87976704,12.8940764 C6.87976704,12.7978737 6.84062757,12.7035001 6.77259074,12.6354632 Z" id="Path"></path>
            </g>
        </g>
    </g>
</svg>