<?xml version="1.0" encoding="UTF-8"?>
<svg width="22px" height="22px" viewBox="0 0 22 22" version="1.1" xmlns="http://www.w3.org/2000/svg" xmlns:xlink="http://www.w3.org/1999/xlink">
    <!-- Generator: Sketch 63.1 (92452) - https://sketch.com -->
    <title>life-insurance</title>
    <desc>Created with Sketch.</desc>
    <g id="Component" stroke="none" stroke-width="1" fill="none" fill-rule="evenodd">
        <g id="life-insurance" fill-rule="nonzero">
            <path d="M16.4433728,2.86479844 L16.4433728,8.49573517 C16.4437402,9.66991333 15.8794591,10.7726409 14.9269153,11.4591938 L11.1412888,14.1924453 C11.0342537,14.2691779 10.8902241,14.2691779 10.783189,14.1924453 L10.414127,13.9256975 L6.99756251,11.4591938 C6.04501871,10.7726409 5.48073765,9.66991333 5.48110509,8.49573517 L5.48110509,2.86479844 C5.48023053,2.79652856 5.52063819,2.73447394 5.58343369,2.70767301 L10.414127,0.588306822 L10.8928114,0.380024283 C10.9372928,0.361750593 10.9871851,0.361750593 11.0316664,0.380024283 L16.3410442,2.70767301 C16.4038397,2.73447394 16.4442473,2.79652856 16.4433728,2.86479844 Z" id="Shape" fill="#6A1B9A"></path>
            <path d="M15.3471489,2.86479844 L15.3471489,8.49573517 C15.3475163,9.66991333 14.7832352,10.7726409 13.8306914,11.4591938 L10.414127,13.9256975 L6.99756251,11.4591938 C6.04501871,10.7726409 5.48073765,9.66991333 5.48110509,8.49573517 L5.48110509,2.86479844 C5.48023053,2.79652856 5.52063819,2.73447394 5.58343369,2.70767301 L10.414127,0.588306822 L15.2448203,2.70767301 C15.3076158,2.73447394 15.3480234,2.79652856 15.3471489,2.86479844 Z" id="Shape" fill="#9D27B0"></path>
            <path d="M7.86102153,10.1663804 C7.28524049,9.74580381 6.94422329,9.07611823 6.94275132,8.36309208 L6.94275132,3.60255712 L10.9622389,1.82703982 L14.9817265,3.60255712 L14.9817265,8.36309208 C14.9806086,9.07620351 14.6395146,9.74603994 14.0634563,10.1663804 L10.9622389,12.4238708 L7.86102153,10.1663804 Z" id="Shape" fill="#E91E63"></path>
            <path d="M5.23118041,15.2513976 L3.56199683,13.5818486 C3.20396478,13.2238099 2.91748507,12.8007873 2.71790444,12.3354421 L1.90012141,10.4283779 C1.77410344,10.1346223 1.48529623,9.94409577 1.16565141,9.94384693 C0.893957199,9.9442393 0.641038411,10.0825202 0.494065298,10.3110302 C0.347092186,10.5395401 0.326162406,10.8270318 0.438489557,11.0744192 L1.87052337,14.2249666 C2.04614446,14.6111631 2.2897212,14.9626662 2.58964624,15.2627253 L5.23118041,17.9049902 L8.76979114,17.9049902 L8.76979114,16.8595581 C8.78172218,16.0770965 8.52766411,15.3137629 8.04920663,14.6945159 C7.7817986,14.3416567 7.41756268,14.0741611 7.00085118,13.9246013 C6.18964938,13.5822198 5.44191671,13.1056376 4.78903678,12.5148574 C4.2676747,12.0796251 3.50010822,12.1151635 3.02119305,12.5967087" id="Shape" fill="#FFE0B2"></path>
            <path d="M16.6925666,15.2513976 L18.3621156,13.5818486 C18.7201477,13.2238099 19.0066274,12.8007873 19.206208,12.3354421 L20.0243564,10.4283779 C20.1504791,10.1343784 20.4396469,9.94384692 20.7595573,9.94384692 C21.0311217,9.94448701 21.2838123,10.0828682 21.430611,10.3113365 C21.5774097,10.5398049 21.5982624,10.8271498 21.4859883,11.0744192 L20.0539545,14.2249666 C19.8783334,14.6111631 19.6347566,14.9626662 19.3348316,15.2627253 L16.6925666,17.9049902 L13.1546867,17.9049902 L13.1546867,16.8595581 C13.1428601,16.077053 13.3970484,15.3137149 13.8756366,14.6945159 C14.1430447,14.3416567 14.5072806,14.0741611 14.9239921,13.9246013 C15.735081,13.5822146 16.4826926,13.1056308 17.1354411,12.5148574 C17.6569814,12.0797529 18.4245365,12.1152834 18.9036502,12.5967087" id="Shape" fill="#FFE0B2"></path>
            <path d="M21.5590734,10.7429941 C21.5594149,10.8578555 21.5344636,10.9713838 21.4859883,11.0755154 L20.0535891,14.225332 C19.8780686,14.6117668 19.6342041,14.9633278 19.3337354,15.2630907 L16.6918358,17.9049902 L15.5956119,17.9049902 L18.2375115,15.2630907 C18.5379802,14.9633278 18.7818447,14.6117668 18.9573652,14.225332 L20.3897644,11.0755154 C20.4382397,10.9713838 20.463191,10.8578555 20.462846,10.7429941 C20.4618469,10.5229857 20.3707213,10.3130005 20.2107145,10.1619955 C20.3579911,10.020472 20.5545755,9.94183832 20.7588264,9.94274285 C21.1999574,9.94475131 21.5570693,10.3018632 21.5590734,10.7429941 Z" id="Shape" fill="#DFC49C"></path>
            <rect id="Rectangle-path" fill="#283593" x="12.4238708" y="17.9049902" width="4.75030353" height="3.65407964" rx="1.82703982"></rect>
            <rect id="Rectangle-path" fill="#3F51B5" x="12.4238708" y="17.9049902" width="3.65407964" height="3.65407964" rx="1.82703982"></rect>
            <rect id="Rectangle-path" fill="#3F51B5" x="4.74993813" y="17.9049902" width="4.75030353" height="3.65407964" rx="1.82703982"></rect>
            <path d="M10.9622389,14.6163186 C10.8214114,14.6163186 10.6841888,14.5717942 10.5701562,14.4891566 L6.78197181,11.7570012 C5.73723672,11.0015094 5.11769245,9.79122424 5.1157115,8.5019471 L5.1157115,2.76467666 C5.1157115,2.61945068 5.20185445,2.48805334 5.33495628,2.42996296 L10.8160757,0.030694269 C10.9092732,-0.0099804418 11.0152046,-0.0099804418 11.1084021,0.030694269 L16.5895216,2.42996296 C16.7226234,2.48805334 16.8087664,2.61945068 16.8087664,2.76467666 L16.8087664,8.50158169 C16.8067854,9.79085884 16.1872411,11.0011439 15.142506,11.7566358 L11.3543217,14.489522 C11.2401766,14.5718949 11.1030025,14.6163186 10.9622389,14.6163186 Z M5.84652743,3.00365347 L5.84652743,8.5019471 C5.84820114,9.55648116 6.35497331,10.5463852 7.20949913,11.1643095 L10.9622389,13.8708863 L14.7149787,11.1643095 C15.5695045,10.5463852 16.0762767,9.55648116 16.0779504,8.5019471 L16.0779504,3.00365347 L10.9622389,0.764433461 L5.84652743,3.00365347 Z" id="Shape" fill="#000000"></path>
            <path d="M10.9622389,12.8850156 C10.8855003,12.8850156 10.8107103,12.8608492 10.7484753,12.8159535 L7.63702645,10.5716178 C6.97252344,10.091421 6.578471,9.32179585 6.57734335,8.5019471 L6.57734335,3.72058389 C6.57734335,3.57535791 6.66348631,3.44396058 6.79658813,3.3858702 L10.8160757,1.62606544 C10.9092732,1.58539073 11.0152046,1.58539073 11.1084021,1.62606544 L15.1278897,3.3858702 C15.2609915,3.44396058 15.3471345,3.57535791 15.3471345,3.72058389 L15.3471345,8.5019471 C15.3460068,9.32179585 14.9519544,10.091421 14.2874514,10.5716178 L11.1760026,12.8159535 C11.1137675,12.8608492 11.0389776,12.8850156 10.9622389,12.8850156 Z M8.06455377,9.97892609 L10.9622389,12.0690596 L13.8599241,9.97892609 C14.3339848,9.63609694 14.6151998,9.08698053 14.6163186,8.5019471 L14.6163186,3.95919529 L10.9622389,2.35980463 L7.30815928,3.95919529 L7.30815928,8.5019471 C7.30927809,9.08698053 7.59049306,9.63609694 8.06455377,9.97892609 Z" id="Shape" fill="#000000"></path>
            <path d="M8.76979114,18.2703982 L5.23154582,18.2703982 C5.13464153,18.2703982 5.04171372,18.2318657 4.97320239,18.1633337 L2.3309374,15.5210687 C1.99959492,15.1903128 1.73083225,14.8023339 1.53763671,14.3758801 L0.105602902,11.2256981 C-0.0624772663,10.8449557 -0.0146661184,10.4034656 0.231026348,10.0675327 C0.476718816,9.73159986 0.882966068,9.55226048 1.2967387,9.59706995 C1.71051132,9.64187945 2.06894741,9.90403021 2.23702756,10.2847726 L3.02740498,12.1315444 C3.64388431,11.7238928 4.45431314,11.7667499 5.02435951,12.2371473 C5.63892926,12.8020874 6.34671181,13.2563045 7.1163201,13.5796562 C7.60024251,13.7506271 8.02359113,14.0594061 8.33422485,14.4679629 C8.86366397,15.151818 9.14598098,15.9947764 9.1351991,16.8595581 L9.1351991,17.9049902 C9.1351991,18.1067995 8.97160037,18.2703982 8.76979114,18.2703982 Z M5.38282472,17.5395823 L8.40438318,17.5395823 L8.40438318,16.8595581 C8.41541236,16.1602331 8.18966872,15.4777224 7.76382301,14.9228958 C7.5402863,14.6250756 7.23494808,14.3987064 6.88501686,14.2713734 C6.0262681,13.9219252 5.23678669,13.4220027 4.55371405,12.7951253 C4.21199581,12.513549 3.72107215,12.5053644 3.37015765,12.7753932 C3.50194657,12.9724717 3.65286038,13.1560651 3.82070567,13.3235052 L5.48988925,14.9930542 C5.58487947,15.0847988 5.62297544,15.2206587 5.58953498,15.3484161 C5.55609449,15.4761735 5.45632171,15.5759463 5.3285643,15.6093868 C5.20080694,15.6428272 5.06494701,15.6047312 4.97320239,15.509741 L3.30401881,13.840192 C2.91239073,13.4497703 2.59952018,12.9876598 2.38245993,12.4790474 L1.56504231,10.572714 C1.49689788,10.4128249 1.33982185,10.3091144 1.16601681,10.3092547 C1.0183264,10.3092547 0.880777314,10.3843849 0.800841665,10.5085733 C0.72090602,10.6327617 0.709532109,10.7890526 0.770645396,10.9235057 L2.20267921,14.0736877 C2.35987958,14.4202154 2.57836729,14.7355062 2.84762426,15.0043818 L5.38282472,17.5395823 Z" id="Shape" fill="#000000"></path>
            <path d="M9.1351991,21.9244778 L5.1157115,21.9244778 C4.71209301,21.9244778 4.38489557,21.5972804 4.38489557,21.1936619 L4.38489557,18.2703982 C4.38489557,17.8667797 4.71209301,17.5395823 5.1157115,17.5395823 L9.1351991,17.5395823 C9.5388176,17.5395823 9.86601503,17.8667797 9.86601503,18.2703982 L9.86601503,21.1936619 C9.86601503,21.5972804 9.5388176,21.9244778 9.1351991,21.9244778 Z M5.1157115,18.2703982 L5.1157115,21.1936619 L9.1351991,21.1936619 L9.1351991,18.2703982 L5.1157115,18.2703982 Z" id="Shape" fill="#000000"></path>
            <path d="M8.03897521,20.097438 L7.67356725,20.097438 C7.47175802,20.097438 7.30815928,19.9338393 7.30815928,19.7320301 C7.30815928,19.5302208 7.47175802,19.3666221 7.67356725,19.3666221 L8.03897521,19.3666221 C8.24078444,19.3666221 8.40438318,19.5302208 8.40438318,19.7320301 C8.40438318,19.9338393 8.24078444,20.097438 8.03897521,20.097438 Z" id="Shape" fill="#000000"></path>
            <path d="M16.692932,18.2703982 L13.1546867,18.2703982 C12.9528775,18.2703982 12.7892787,18.1067995 12.7892787,17.9049902 L12.7892787,16.8595581 C12.7780827,15.9941524 13.060422,15.1504833 13.590253,14.4661359 C13.9008867,14.0575791 14.3242353,13.7488001 14.8081577,13.5778291 C15.577766,13.2544774 16.2855486,12.8002603 16.9001183,12.2353203 C17.4702268,11.7639991 18.2810405,11.7195385 18.8992653,12.1256979 L19.6878157,10.2858688 C19.851508,9.89837063 20.2113947,9.62922117 20.6293578,9.58171503 C21.0473209,9.53420892 21.4584309,9.71572606 21.7049112,10.0566036 C21.9513915,10.397481 21.994952,10.8447644 21.8188749,11.2267943 L20.3868411,14.3769763 C20.1936456,14.8034301 19.9248829,15.191409 19.5935404,15.5221649 L16.9512755,18.1633337 C16.8827641,18.2318657 16.7898363,18.2703982 16.692932,18.2703982 Z M13.5200947,17.5395823 L16.5416531,17.5395823 L19.0768536,15.0043818 C19.3461105,14.7355062 19.5645983,14.4202154 19.7217986,14.0736877 L21.1538325,10.9235057 C21.2149457,10.7890526 21.2035718,10.6327617 21.1236362,10.5085733 C21.0437005,10.3843849 20.9061514,10.3092548 20.758461,10.3092548 C20.5847727,10.3091487 20.4277695,10.4126674 20.3594355,10.5723486 L19.5420179,12.4790474 C19.3249577,12.9876598 19.0120871,13.4497703 18.620459,13.840192 L16.9512755,15.509741 C16.8078971,15.6482205 16.57999,15.6462401 16.4390398,15.5052899 C16.2980896,15.3643397 16.2961091,15.1364326 16.4345886,14.9930542 L18.1037722,13.3235052 C18.2726729,13.1551092 18.4243386,12.9702705 18.5565126,12.7717392 C18.2044125,12.5014847 17.7121088,12.5110425 17.3707638,12.7947599 C16.6876247,13.4217301 15.8980061,13.921661 15.0390956,14.271008 C14.6898619,14.3987061 14.3852077,14.6250387 14.1621165,14.9225304 C13.73567,15.4772647 13.509401,16.159935 13.5200947,16.8595581 L13.5200947,17.5395823 Z" id="Shape" fill="#000000"></path>
            <path d="M16.8087664,21.9244778 L12.7892787,21.9244778 C12.3856603,21.9244778 12.0584628,21.5972804 12.0584628,21.1936619 L12.0584628,18.2703982 C12.0584628,17.8667797 12.3856603,17.5395823 12.7892787,17.5395823 L16.8087664,17.5395823 C17.2123848,17.5395823 17.5395823,17.8667797 17.5395823,18.2703982 L17.5395823,21.1936619 C17.5395823,21.5972804 17.2123848,21.9244778 16.8087664,21.9244778 Z M12.7892787,18.2703982 L12.7892787,21.1936619 L16.8087664,21.1936619 L16.8087664,18.2703982 L12.7892787,18.2703982 Z" id="Shape" fill="#000000"></path>
            <path d="M14.2509106,20.097438 L13.8855026,20.097438 C13.6836934,20.097438 13.5200947,19.9338393 13.5200947,19.7320301 C13.5200947,19.5302208 13.6836934,19.3666221 13.8855026,19.3666221 L14.2509106,19.3666221 C14.4527198,19.3666221 14.6163186,19.5302208 14.6163186,19.7320301 C14.6163186,19.9338393 14.4527198,20.097438 14.2509106,20.097438 Z" id="Shape" fill="#000000"></path>
            <path d="M10.231423,9.50060707 C10.1523596,9.50060707 10.0754289,9.4749635 10.0121782,9.42752547 L8.55054636,8.33130158 C8.38909896,8.21021602 8.35637924,7.98117783 8.47746477,7.81973043 C8.59855033,7.65828304 8.82758852,7.62556331 8.98903592,7.74664884 L10.1415326,8.61120408 L12.8506673,4.54750211 C12.9626714,4.37959683 13.1895828,4.33427999 13.3574881,4.44628411 C13.5253934,4.55828823 13.5707103,4.78519967 13.4587061,4.95310495 L10.5354424,9.33800052 C10.4797556,9.42155361 10.3921405,9.47851001 10.2931769,9.49549136 C10.2727601,9.49882764 10.2521106,9.50053826 10.231423,9.50060707 Z" id="Shape" fill="#000000"></path>
        </g>
    </g>
</svg>