<?xml version="1.0" encoding="UTF-8"?>
<svg width="22px" height="22px" viewBox="0 0 22 22" version="1.1" xmlns="http://www.w3.org/2000/svg" xmlns:xlink="http://www.w3.org/1999/xlink">
    <!-- Generator: Sketch 63.1 (92452) - https://sketch.com -->
    <title>money</title>
    <desc>Created with Sketch.</desc>
    <g id="Component" stroke="none" stroke-width="1" fill="none" fill-rule="evenodd">
        <g id="money" fill-rule="nonzero">
            <path d="M18.088057,17.3389843 L20.7269858,14.7000555 C21.0443839,14.3826575 21.2224042,13.9526342 21.2224042,13.5041155 L21.2224042,7.86328125 C21.2224042,7.45802896 21.0321636,7.09736434 20.7362336,6.86517826 C20.4403037,7.09736434 20.250063,7.45802896 20.250063,7.86328125 L20.250063,11.5683505 L20.2495676,11.5686808 C19.809636,11.1738323 19.1609682,11.1411347 18.6858619,11.4689365 L18.6858619,11.5683505 L18.6853665,11.5686808 C18.6648892,11.5503503 18.6435862,11.5328455 18.6221181,11.5160013 C18.5826497,11.5470475 18.5443374,11.5805709 18.5078415,11.6169015 L15.6723968,14.4523463 C15.3549987,14.7694141 15.1769783,15.1997676 15.1769783,15.6482864 L15.1769783,18.5590348 L17.8403478,18.5590348 L17.8403478,17.9367892 C17.8403478,17.712695 17.9295231,17.4975182 18.088057,17.3389843 L18.088057,17.3389843 Z" id="Path" fill="#FEBDAD"></path>
            <polygon id="Path" fill="#4DBBEB" points="18.6858619 18.5590348 18.6858619 21.2224042 14.9233241 21.2224042 14.9233241 18.5590348"></polygon>
            <path d="M12.1331275,0.569235782 C9.49832718,1.16720581 7.5250756,3.52803975 7.5250756,6.34135585 C7.5250756,9.15467195 9.49832718,11.5155059 12.1331275,12.1134759 C14.7679279,11.5155059 16.7411794,9.15467195 16.7411794,6.34135585 C16.7411794,3.52803975 14.7679279,1.16720581 12.1331275,0.569235782 Z" id="Path" fill="#FEB756"></path>
            <polygon id="Path" fill="#4DBBEB" points="8.87789819 18.5590348 8.87789819 21.2224042 4.86170615 21.2224042 4.86170615 18.5590348"></polygon>
            <path d="M7.53696565,14.4523463 L4.70152088,11.6169015 C4.63959357,11.5549742 4.57287722,11.5011387 4.50252778,11.4545694 C4.45116939,11.4885881 4.40179272,11.5265702 4.35489311,11.5686808 L4.35439768,11.5683505 L4.35439768,11.3703483 C3.90274121,11.1531899 3.34952399,11.2190805 2.95979482,11.5686808 L2.9592994,11.5683505 L2.9592994,7.86328125 C2.9592994,7.42054233 2.73239774,7.0309783 2.38857737,6.80424181 C2.044757,7.0309783 1.81785534,7.42054233 1.81785534,7.86328125 L1.81785534,13.5041155 C1.81785534,13.9526342 1.99587572,14.3826575 2.31327377,14.7000555 L4.95220258,17.3389843 C5.11073648,17.4975182 5.19991179,17.712695 5.19991179,17.9367892 L5.19991179,18.5590348 L8.03238407,18.5590348 L8.03238407,15.6482864 C8.03238407,15.1997676 7.8543637,14.7694141 7.53696565,14.4523463 L7.53696565,14.4523463 Z" id="Path" fill="#FEBDAD"></path>
            <path d="M8.28603831,3.38205645 C8.51938037,3.38205645 8.70879536,3.19264146 8.70879536,2.9592994 C8.70879536,2.72595733 8.51938037,2.53654234 8.28603831,2.53654234 C8.05269624,2.53654234 7.86328125,2.72595733 7.86328125,2.9592994 C7.86328125,3.19264146 8.05269624,3.38205645 8.28603831,3.38205645 Z" id="Path" fill="#000000"></path>
            <path d="M10.8225806,7.60962702 C10.641918,7.60962702 10.4470535,7.49601106 10.273657,7.28975186 C10.1233801,7.11107093 9.85667987,7.0879514 9.67799893,7.23822835 C9.49931804,7.38850525 9.47619851,7.65520551 9.62647542,7.83388644 C9.85238622,8.10273347 10.1182608,8.29000165 10.3998236,8.38446143 L10.3998236,8.87789819 C10.3998236,9.11140542 10.5890734,9.30065524 10.8225806,9.30065524 C11.0560879,9.30065524 11.2453377,9.11140542 11.2453377,8.87789819 L11.2453377,8.38247976 C11.7374533,8.20792735 12.0908518,7.73794038 12.0908518,7.18686996 C12.0908518,6.48750427 11.5219463,5.91859879 10.8225806,5.91859879 C10.5894037,5.91859879 10.3998236,5.72901867 10.3998236,5.49584173 C10.3998236,5.26266479 10.5894037,5.07308468 10.8225806,5.07308468 C10.9723622,5.07308468 11.1304006,5.14954426 11.2798518,5.29404127 C11.4476335,5.45637339 11.7151595,5.45207978 11.8776567,5.28429808 C12.0399889,5.11651637 12.0355301,4.84882525 11.8677484,4.68649318 C11.6532322,4.4787477 11.4385509,4.36133352 11.2453377,4.29725944 L11.2453377,3.80481351 C11.2453377,3.57130627 11.0560879,3.38205645 10.8225806,3.38205645 C10.5890734,3.38205645 10.3998236,3.57130627 10.3998236,3.80481351 L10.3998236,4.30023193 C9.90770795,4.47478435 9.55430948,4.94477132 9.55430948,5.49584173 C9.55430948,6.19520742 10.123215,6.7641129 10.8225806,6.7641129 C11.0557576,6.7641129 11.2453377,6.95369302 11.2453377,7.18686996 C11.2453377,7.4200469 11.0557576,7.60962702 10.8225806,7.60962702 Z" id="Path" fill="#000000"></path>
            <path d="M19.9541331,6.17225302 C19.0217556,6.17225302 18.2631048,6.93090375 18.2631048,7.86328125 L18.2631048,10.876251 C17.7014655,10.7315888 17.0818622,10.88104 16.644738,11.3179991 L13.8094583,14.1532787 C13.4099859,14.5522557 13.1900202,15.0831791 13.1900202,15.6482864 L13.1900202,18.1362777 L12.7672631,18.1362777 C12.5337559,18.1362777 12.344506,18.3255275 12.344506,18.5590348 L12.344506,21.2224042 C12.344506,21.4559115 12.5337559,21.6451613 12.7672631,21.6451613 L18.6858619,21.6451613 C18.9193691,21.6451613 19.108619,21.4559115 19.108619,21.2224042 L19.108619,18.5590348 C19.108619,18.3255275 18.9193691,18.1362777 18.6858619,18.1362777 L18.2631048,18.1362777 L18.2631048,17.9367892 C18.2631048,17.8256504 18.3081879,17.7166583 18.3871246,17.6378868 L21.0258882,14.998958 C21.4251955,14.5996507 21.6451613,14.0687273 21.6451613,13.5041155 L21.6451613,7.86328125 C21.6451613,6.93090375 20.8865106,6.17225302 19.9541331,6.17225302 L19.9541331,6.17225302 Z M18.2631048,20.7996472 L13.1900202,20.7996472 L13.1900202,18.9817918 L18.2631048,18.9817918 L18.2631048,20.7996472 Z M20.7996472,13.5041155 C20.7996472,13.8429816 20.6677007,14.1615357 20.4280834,14.4011531 L17.7891545,17.0400819 C17.5530051,17.2762313 17.4175907,17.6030424 17.4175907,17.9367892 L17.4175907,18.1362777 L14.0355343,18.1362777 L14.0355343,15.6482864 C14.0355343,15.309255 14.1674807,14.990701 14.4070981,14.7512488 L17.2425429,11.915804 C17.559941,11.598571 18.0697265,11.5842039 18.4031431,11.8834366 C18.4054551,11.8855834 18.4079321,11.8877302 18.4104093,11.889712 C18.4199874,11.8979689 18.42907,11.9068865 18.4381527,11.9159691 C18.5978426,12.075659 18.6858619,12.2878632 18.6858619,12.5136089 C18.6858619,12.7393545 18.5978426,12.9515588 18.4381527,13.1114138 L16.3374134,15.2119879 C16.172274,15.3771274 16.172274,15.6448184 16.3374134,15.8099579 C16.5025529,15.9750974 16.7700789,15.9750974 16.9353835,15.8099579 L19.0359576,13.7093838 C19.3553373,13.3900041 19.531376,12.9654305 19.531376,12.5136089 C19.531376,12.0976225 19.3817597,11.7047557 19.108619,11.3957798 L19.108619,7.86328125 C19.108619,7.3970925 19.4879443,7.01776714 19.9541331,7.01776714 C20.4203218,7.01776714 20.7996472,7.3970925 20.7996472,7.86328125 L20.7996472,13.5041155 Z" id="Shape" fill="#000000"></path>
            <path d="M8.87789819,18.1362777 L8.45514113,18.1362777 L8.45514113,15.6482864 C8.45514113,15.0831791 8.23517535,14.5522557 7.83586808,14.1534438 L5.00042331,11.3179991 C4.56329911,10.8808749 3.9436958,10.7315888 3.38205645,10.876251 L3.38205645,7.86328125 C3.38205645,6.93090375 2.62340572,6.17225302 1.69102823,6.17225302 C0.758650728,6.17225302 0,6.93090375 0,7.86328125 L0,13.5041155 C0,14.0687273 0.219965781,14.5996507 0.619273053,14.998958 L3.2580367,17.6378868 C3.33697339,17.7166583 3.38205645,17.8254853 3.38205645,17.9367892 L3.38205645,18.1362777 L2.9592994,18.1362777 C2.72579216,18.1362777 2.53654234,18.3255275 2.53654234,18.5590348 L2.53654234,21.2224042 C2.53654234,21.4559115 2.72579216,21.6451613 2.9592994,21.6451613 L8.87789819,21.6451613 C9.11140542,21.6451613 9.30065524,21.4559115 9.30065524,21.2224042 L9.30065524,18.5590348 C9.30065524,18.3255275 9.11140542,18.1362777 8.87789819,18.1362777 Z M3.85600677,17.0400819 L1.21707791,14.4011531 C0.977460564,14.1615357 0.845514113,13.8429816 0.845514113,13.5041155 L0.845514113,7.86328125 C0.845514113,7.3970925 1.22483948,7.01776714 1.69102823,7.01776714 C2.15721697,7.01776714 2.53654234,7.3970925 2.53654234,7.86328125 L2.53654234,11.3957798 C2.26340163,11.7047557 2.11378528,12.0974574 2.11378528,12.5136089 C2.11378528,12.9654305 2.28982394,13.3900041 2.60920371,13.7092187 L4.72298899,15.823004 C4.88812847,15.9881434 5.15565442,15.9881434 5.32095902,15.823004 C5.48593337,15.6578645 5.48593337,15.3901734 5.32095902,15.2250339 L3.20700861,13.1112486 C3.04731872,12.9515588 2.9592994,12.7393545 2.9592994,12.5136089 C2.9592994,12.2878632 3.04731872,12.075659 3.20684348,11.9159691 C3.21609129,11.9068865 3.22517393,11.8979689 3.23475204,11.889712 L3.24201818,11.8834366 C3.57543479,11.5842039 4.08522032,11.598571 4.40245328,11.915804 L7.23822835,14.7514139 C7.47768056,14.990701 7.60962702,15.309255 7.60962702,15.6482864 L7.60962702,18.1362777 L4.22757056,18.1362777 L4.22757056,17.9367892 C4.22757056,17.6030424 4.09215619,17.2762313 3.85600677,17.0400819 L3.85600677,17.0400819 Z M8.45514113,20.7996472 L3.38205645,20.7996472 L3.38205645,18.9817918 L8.45514113,18.9817918 L8.45514113,20.7996472 Z" id="Shape" fill="#000000"></path>
            <path d="M17.1639365,6.34135585 C17.1639365,2.84469258 14.3192439,0 10.8225806,0 C7.32591738,0 4.4812248,2.84469258 4.4812248,6.34135585 C4.4812248,9.83801912 7.32591738,12.6827117 10.8225806,12.6827117 C14.3192439,12.6827117 17.1639365,9.83801912 17.1639365,6.34135585 Z M10.8225806,11.8371976 C7.79210613,11.8371976 5.32673891,9.37183037 5.32673891,6.34135585 C5.32673891,3.31088133 7.79210613,0.845514113 10.8225806,0.845514113 C13.8530552,0.845514113 16.3184224,3.31088133 16.3184224,6.34135585 C16.3184224,9.37183037 13.8530552,11.8371976 10.8225806,11.8371976 Z" id="Shape" fill="#000000"></path>
            <path d="M13.7419163,2.72116829 C12.6417571,1.83304817 11.2020711,1.49798019 9.79244058,1.80200195 C9.56421784,1.8512135 9.41906024,2.07613348 9.46827182,2.30435622 C9.51748336,2.53257899 9.74240335,2.67757147 9.97062608,2.62852502 C11.1294098,2.378669 12.3103222,2.65213997 13.2108278,3.37908396 C14.111003,4.10602791 14.6273942,5.18570978 14.6273942,6.34135585 C14.6273942,8.43928774 12.9205125,10.1461694 10.8225806,10.1461694 C8.72464875,10.1461694 7.01776714,8.43928774 7.01776714,6.34135585 C7.01776714,5.71465153 7.17332854,5.09339684 7.46760707,4.54496861 C7.57808537,4.33920485 7.50080009,4.08290838 7.29503633,3.97259521 C7.08927252,3.86211692 6.83297605,3.93940219 6.72266288,4.14516596 C6.36265883,4.81629278 6.17225302,5.57560411 6.17225302,6.34135585 C6.17225302,8.90547649 8.25846,10.9916835 10.8225806,10.9916835 C13.3867013,10.9916835 15.4729083,8.90547649 15.4729083,6.34135585 C15.4729083,4.92891793 14.8419103,3.6094535 13.7419163,2.72116829 Z" id="Path" fill="#000000"></path>
        </g>
    </g>
</svg>