<?xml version="1.0" encoding="UTF-8"?>
<svg width="23px" height="24px" viewBox="0 0 23 24" version="1.1" xmlns="http://www.w3.org/2000/svg" xmlns:xlink="http://www.w3.org/1999/xlink">
    <!-- Generator: Sketch 63.1 (92452) - https://sketch.com -->
    <title>money3</title>
    <desc>Created with Sketch.</desc>
    <g id="Component" stroke="none" stroke-width="1" fill="none" fill-rule="evenodd">
        <g id="money3" fill-rule="nonzero">
            <path d="M22.4914909,12.9559279 L20.9672427,14.4801761 L16.7641422,17.5172318 L16.021086,16.7741755 L16.0363403,16.7551077 C17.1879026,16.6366146 18.0250724,15.6073589 17.9065793,14.4557965 C17.7880861,13.3042341 16.7588305,12.4670644 15.6072681,12.5855575 C14.6104278,12.68807 13.8254222,13.4822008 13.7343505,14.4801761 L13.7305369,14.4839897 L12.3933808,13.1464703 L17.537707,8.00214406 L22.4914909,12.9559279 Z" id="Path" fill="#03AA6F"></path>
            <polygon id="Path" fill="#F5D0C7" points="22.4914909 16.0043789 14.4892561 22.8634503 12.2028838 22.8634503 4.96277302 20.1960387 0.00898913266 20.1960387 0.00898913266 16.0043789 4.96277302 16.0043789 5.22949603 15.8900626 6.86806055 15.1889556 7.63018464 14.8612155 11.4102965 14.8612155 13.727132 14.8612155 13.727132 17.1475877 9.15438742 17.1475877 14.1081713 19.4339146 16.7641422 17.5171864 20.9672427 14.4801761"></polygon>
            <path d="M17.9188289,14.6706731 C17.9199268,15.7456462 17.1060017,16.6468295 16.0363403,16.7550623 L16.021086,16.7741301 L13.9176289,14.6706731 L13.7309001,14.4839443 L13.7347137,14.4801307 C13.833004,13.3266616 14.8477772,12.471559 16.0012463,12.5698946 C17.0903388,12.6628731 17.9252385,13.5774493 17.9188289,14.6706731 Z" id="Path" fill="#79DCA0"></path>
            <polygon id="Path" fill="#03AA6F" points="16.7641422 17.5171864 14.1081713 19.4339146 9.15438742 17.1475877 13.727132 17.1475877 13.727132 14.8612155 13.9176289 14.6706731 16.021086 16.7741301"></polygon>
            <path d="M12.5839231,7.04952299 C12.8773411,7.05333656 13.163132,6.9550009 13.3917647,6.77135928 C13.5986963,6.6078751 13.7217748,6.36058315 13.7270866,6.09690193 C13.7141477,5.84960998 13.5433995,5.63886476 13.3040979,5.57485124 L12.5838777,5.33477784 L12.5838777,3.62003268 C12.2904597,3.61621911 12.0046689,3.71455477 11.7760362,3.8981964 C11.5691045,4.06168057 11.4460261,4.30897252 11.4407143,4.57265375 C11.4536532,4.81994569 11.6244013,5.03069092 11.8637029,5.09470444 L12.5839231,5.33477784 L12.5839231,7.04952299 Z M12.5839231,1.90519673 C14.4781785,1.90519673 16.0134588,3.44047703 16.0134588,5.33473244 C16.0134588,7.22898785 14.4781785,8.76426815 12.5839231,8.76426815 C10.6896677,8.76426815 9.15438742,7.22898785 9.15438742,5.33473244 C9.15438742,3.44047703 10.6900763,1.90519673 12.5839231,1.90519673 Z" id="Shape" fill="#FFDB6F"></path>
            <path d="M13.9176289,14.6706731 L13.7270866,14.8612155 L11.4102965,14.8612155 C11.2060435,13.615131 10.0304647,12.7703341 8.7844256,12.9745872 C7.69496996,13.1533257 6.888672,14.0849721 6.86806055,15.1889102 L5.22949603,15.8900626 L1.91427666,12.5748432 L6.86806055,7.62110471 L12.3934262,13.1464703 L13.7309455,14.4839897 L13.9176289,14.6706731 Z" id="Path" fill="#03AA6F"></path>
            <g id="Group" transform="translate(11.440714, 3.586573)" fill="#FFDB6F">
                <path d="M2.28641767,2.5102834 C2.28106051,2.77396462 2.15798203,3.02130197 1.95109578,3.18474074 C1.7224631,3.36842777 1.43667224,3.46671803 1.14325424,3.46290446 L1.14325424,1.7481593 L1.86347444,1.98823271 C2.10273065,2.05224623 2.27343337,2.26299145 2.28641767,2.5102834 Z" id="Path"></path>
                <path d="M1.14320884,0.0334141497 L1.14320884,1.7481593 L0.422988631,1.5080859 C0.183687024,1.44407238 0.0129843027,1.23332716 0,0.986035214 C0.00531176021,0.722353989 0.128435638,0.475016642 0.335321888,0.311577866 C0.564408572,0.127890842 0.849790834,0.0296005783 1.14320884,0.0334141497 Z" id="Path"></path>
            </g>
            <path d="M11.4102965,14.8612155 L7.63018464,14.8612155 L6.86806055,15.1889102 C6.89130518,13.9264819 7.93349977,12.9216058 9.19597351,12.9448504 C10.2998662,12.9654619 11.2319213,13.7717598 11.4102965,14.8612155 Z" id="Path" fill="#79DCA0"></path>
            <g id="Group" transform="translate(7.218546, 0.000000)" fill="#FFDB6F">
                <path d="M7.82667437,1.48261669 C6.32149405,0.539484159 4.40935117,0.539484159 2.90417084,1.48261669 L2.49185113,0.841664295 C4.24318841,-0.280569898 6.4876568,-0.280569898 8.23899408,0.841664295 L7.82667437,1.48261669 Z" id="Path"></path>
                <path d="M0.440603699,7.38634307 C0.169658529,6.73626534 0.0301907738,6.03892656 0.0305984756,5.33473244 L0.792723462,5.33473244 C0.792360264,5.93872951 0.911988368,6.53659763 1.14484322,7.09369686 L0.440603699,7.38634307 Z" id="Path"></path>
                <path d="M5.36537721,10.6695566 L5.36537721,9.90743158 C5.96937428,9.90779478 6.5672424,9.78816668 7.12434163,9.55531182 L7.41698784,10.2595059 C6.76691011,10.5304965 6.06957133,10.6699643 5.36537721,10.6695566 Z" id="Path"></path>
                <path d="M10.2901961,7.38634307 L9.58600199,7.09369686 C9.81881145,6.53659763 9.93848495,5.93868411 9.93812175,5.33473244 L10.7002466,5.33473244 C10.700609,6.03892656 10.5611413,6.73626534 10.2901961,7.38634307 Z" id="Path"></path>
            </g>
            <g id="Group" transform="translate(8.762134, 1.498189)" fill="#FF8030">
                <path d="M3.82178877,7.64716412 C1.71719674,7.64716412 0.011213716,5.94118109 0.011213716,3.83658906 C0.011213716,1.73199703 1.71719674,0.0260140051 3.82178877,0.0260140051 C5.92638081,0.0260140051 7.63236383,1.73199703 7.63236383,3.83658906 C7.63009384,5.9400007 5.92524581,7.64484873 3.82178877,7.64716412 Z M3.82178877,0.788092696 C2.13827858,0.788092696 0.773292407,2.15303347 0.773292407,3.83658906 C0.773292407,5.52014465 2.13823318,6.88508542 3.82178877,6.88508542 C5.50534436,6.88508542 6.87028513,5.52014465 6.87028513,3.83658906 C6.86837835,2.15380527 5.50457257,0.789999482 3.82178877,0.788092696 Z" id="Shape"></path>
                <path d="M3.82178877,5.93237356 C3.43920584,5.93655033 3.06692863,5.8070251 2.76969705,5.56581671 C2.47627905,5.32955688 2.30326095,4.97516713 2.29758599,4.59866775 L3.05971008,4.59866775 C3.06543044,4.74880443 3.13784289,4.88904398 3.2578796,4.9797071 C3.59474507,5.22168728 4.04856007,5.22168728 4.38542555,4.9797071 C4.50546225,4.88899858 4.5782379,4.74916762 4.58395826,4.59866775 C4.58395826,4.54532315 4.52870688,4.47331929 4.42315267,4.43863395 L2.98121407,3.95771535 C2.58641863,3.84185542 2.31093349,3.48560429 2.29758599,3.07441957 C2.30330635,2.69792019 2.47668765,2.34316725 2.77010565,2.10727061 C3.06733722,1.86606222 3.43925124,1.73649159 3.82183417,1.74071376 C4.60947287,1.69268092 5.28928738,2.28714407 5.34608235,3.07441957 L4.58395826,3.07441957 C4.58395826,2.76461229 4.23492568,2.50283785 3.82183417,2.50283785 C3.6175811,2.49979607 3.41868519,2.56685137 3.25824279,2.69338022 C3.13820609,2.78408874 3.06543044,2.9239197 3.05971008,3.07441957 C3.05971008,3.12776417 3.11496147,3.19976803 3.22051568,3.23445337 L4.66245427,3.71537197 C5.05724972,3.8312319 5.33273485,4.18748303 5.34608235,4.59866775 C5.340362,4.97516713 5.16698069,5.32992007 4.87356269,5.56581671 C4.57669432,5.8070251 4.20437171,5.93655033 3.82178877,5.93237356 Z" id="Path"></path>
                <rect id="Rectangle" x="3.44074943" y="1.55017139" width="1" height="4.57269915"></rect>
            </g>
            <path d="M10.1223082,1.48297989 C11.6274885,0.540255953 13.5392682,0.540255953 15.0444485,1.48297989 L15.4559964,0.841255698 C13.7050223,-0.280206701 11.4617343,-0.280206701 9.71076026,0.841255698 L10.1223082,1.48297989 Z" id="Path" fill="#000000"></path>
            <path d="M7.24909304,5.33473244 C7.24796491,6.03969836 7.38779586,6.73780893 7.65987602,7.38824985 L8.36329835,7.09406006 C8.1300803,6.53696083 8.01045219,5.93868411 8.01117859,5.33468704 L7.24909304,5.33468704 L7.24909304,5.33473244 Z" id="Path" fill="#000000"></path>
            <path d="M12.5839231,10.6695557 C13.2884805,10.6710993 13.9862278,10.5312229 14.6363056,10.2591427 L14.341344,9.55572042 C13.7850165,9.78893847 13.1875116,9.90856658 12.5838777,9.90743158 L12.5839231,10.6695557 L12.5839231,10.6695557 Z" id="Path" fill="#000000"></path>
            <path d="M17.5083788,7.38711486 C17.780459,6.73703713 17.9199268,6.03928976 17.9187986,5.33473244 L17.1566677,5.33473244 C17.1578027,5.93832092 17.0381746,6.53623444 16.8049565,7.09292507 L17.5083788,7.38711486 Z" id="Path" fill="#000000"></path>
            <path d="M16.3945436,5.33473244 C16.3945436,3.2301404 14.6885606,1.52415738 12.5839685,1.52415738 C10.4793765,1.52415738 8.77339348,3.2301404 8.77339348,5.33473244 C8.77339348,7.43932447 10.4793765,9.14530749 12.5839685,9.14530749 C14.6873802,9.14303751 16.3922282,7.43818948 16.3945436,5.33473244 Z M12.5839231,8.3832288 C10.9004129,8.3832288 9.53542677,7.01828803 9.53542677,5.33473244 C9.53542677,3.65117685 10.9003675,2.28623607 12.5839231,2.28623607 C14.2674787,2.28623607 15.6324195,3.65117685 15.6324195,5.33473244 C15.6305127,7.01751623 14.2667069,8.38132202 12.5839231,8.3832288 Z" id="Shape" fill="#000000"></path>
            <path d="M13.3460472,4.57260835 L14.1081713,4.57260835 C14.0742578,3.92938597 13.5994681,3.39553136 12.9650079,3.28616358 L12.9650079,3.04836016 L12.2028838,3.04836016 L12.2028838,3.28616358 C11.5684235,3.39553136 11.0936339,3.92938597 11.0597204,4.57260835 C11.074566,4.98415626 11.3508684,5.339681 11.7456184,5.45626733 L12.2028838,5.60867399 L12.2028838,6.58572007 C11.9910036,6.51180942 11.8416387,6.32049525 11.8218444,6.09681113 L11.0597204,6.09681113 C11.0936339,6.74003351 11.5684235,7.27388811 12.2028838,7.38325589 L12.2028838,7.62105931 L12.9650079,7.62105931 L12.9650079,7.38325589 C13.5994681,7.27388811 14.0742578,6.74003351 14.1081713,6.09681113 C14.0933256,5.68526321 13.8170233,5.32973848 13.4222733,5.21315215 L12.9650079,5.06074549 L12.9650079,4.08297301 C13.1772513,4.15688366 13.326253,4.34856103 13.3460472,4.57260835 Z M13.1821999,5.93568774 C13.2786287,5.96805769 13.3460472,6.0343866 13.3460472,6.09685653 C13.326253,6.32090385 13.1772513,6.51258121 12.9650079,6.58653726 L12.9650079,5.86250348 L13.1821999,5.93568774 Z M11.9856918,4.73382254 C11.8892629,4.70145258 11.8218444,4.63512368 11.8218444,4.57265375 C11.8416387,4.34860642 11.9906404,4.15692906 12.2028838,4.08297301 L12.2028838,4.80700679 L11.9856918,4.73382254 Z" id="Shape" fill="#000000"></path>
            <path d="M17.8071086,7.73274247 C17.6585155,7.58414939 17.4168985,7.58414939 17.2683054,7.73274247 L12.3934262,12.6076218 L7.13746213,7.35170313 C6.98886905,7.20311004 6.74725206,7.20311004 6.59865897,7.35170313 L1.64487508,12.3054416 C1.49628199,12.4540347 1.49628199,12.6956517 1.64487508,12.8442448 L4.42392446,15.6232942 L0.00898913266,15.6232942 L0.00898913266,16.3854183 L4.96277302,16.3854183 C5.01461944,16.3854183 5.06564865,16.3751125 5.1129097,16.3545465 L7.70831746,15.2422548 L13.3460926,15.2422548 L13.3460926,16.766503 L9.15438742,16.766503 C8.9440508,16.766503 8.77334808,16.9372057 8.77334808,17.1475423 C8.77334808,17.2961354 8.85983443,17.4314264 8.99476222,17.4935332 L13.9485461,19.7799054 C14.0731682,19.8367004 14.2187195,19.8222179 14.3295855,19.7418151 L20.9291524,14.9793454 L21.9324849,15.9826779 L14.3482447,22.482411 L12.2710741,22.482411 L5.09456824,19.8386072 C5.05225575,19.8229897 5.00767329,19.8149994 4.96272762,19.8149994 L0.00898913266,19.8149994 L0.00898913266,20.5771235 L4.89453734,20.5771235 L12.0710432,23.2209273 C12.1133557,23.2365447 12.1579381,23.2445351 12.2028838,23.2445351 L14.4892561,23.2445351 C14.5803278,23.2445351 14.6679945,23.2121651 14.7369566,23.1526916 L22.7391915,16.2936201 C22.8988621,16.156831 22.9175213,15.9159858 22.7807322,15.7563152 C22.77424,15.7490966 22.7677932,15.7418327 22.7609379,15.7349773 L21.5060913,14.4801307 L22.7609379,13.2252841 C22.909531,13.076691 22.909531,12.8350741 22.7609379,12.686481 L17.8071086,7.73274247 Z M6.86806055,8.15990787 L13.1883288,14.4801761 L11.7094349,14.4801761 C11.3756112,13.3480448 10.3349602,12.5714382 9.15443282,12.5748886 C7.80588133,12.5828789 6.67261502,13.590025 6.50645226,14.9283162 L5.31639098,15.4381544 L2.45312522,12.5748886 L6.86806055,8.15990787 Z M16.1354023,16.3496433 L14.1439916,14.3582326 C14.288408,13.5446707 14.9968243,12.9528862 15.8229165,12.9559163 C16.7679558,12.9540212 17.5353916,13.7188238 17.5369383,14.6638178 C17.5384788,15.4907272 16.948601,16.2002784 16.1354023,16.3496433 Z M17.1989348,16.7306827 L16.8030043,17.0164735 L16.7538365,16.9673057 C16.9096935,16.904064 17.0590584,16.8251594 17.1989348,16.7314091 L17.1989348,16.7306827 L17.1989348,16.7306827 Z M7.63018464,14.4801761 C7.57838363,14.4801761 7.52730901,14.4904819 7.48004797,14.5110479 L7.38743266,14.5491382 C7.76352344,13.5728639 8.86024303,13.0862704 9.83651731,13.4623612 C10.3117156,13.6456396 10.6931181,14.0122418 10.8951012,14.4801761 L7.63018464,14.4801761 Z M14.0658588,18.9945821 L10.8893354,17.5286271 L13.7270866,17.5286271 C13.9374232,17.5286271 14.1081259,17.3579244 14.1081259,17.1475877 L14.1081259,15.4000186 L16.1772608,17.4691535 L14.0658588,18.9945821 Z M20.7199508,14.1886649 L17.3620557,16.6140963 C18.4316717,15.7616723 18.6081402,14.2031474 17.7553076,13.133486 C16.902475,12.06387 15.3443587,11.8874016 14.2746973,12.7402342 C13.9435521,13.0039154 13.6855913,13.348408 13.5255575,13.7405249 L12.9322293,13.1464703 L17.537707,8.54099262 L21.9526424,12.9559279 L20.7199508,14.1886649 Z" id="Shape" fill="#000000"></path>
        </g>
    </g>
</svg>