<?xml version="1.0" encoding="UTF-8"?>
<svg width="35px" height="49px" viewBox="0 0 35 49" version="1.1" xmlns="http://www.w3.org/2000/svg" xmlns:xlink="http://www.w3.org/1999/xlink">
    <!-- Generator: Sketch 63.1 (92452) - https://sketch.com -->
    <title>no-debt</title>
    <desc>Created with Sketch.</desc>
    <g id="Component" stroke="none" stroke-width="1" fill="none" fill-rule="evenodd">
        <g id="no-debt" transform="translate(0.000000, 0.217386)" fill-rule="nonzero">
            <path d="M23.4812386,33.4337157 L20.5656996,29.9152466 L18.3852399,31.2202187 L17.3445659,33.7971257 L19.8223611,36.8200357 C17.3445659,41.775626 20.5161437,47.9040393 25.6038831,47.9040393 C29.2545012,47.9040393 32.2113368,44.6003124 32.2113368,40.4706539 C32.2113368,35.3663959 27.7430462,31.7983709 23.4812386,33.4337157 L23.4812386,33.4337157 Z M25.6038831,44.6003124 C23.778574,44.6003124 22.3001562,42.7502254 22.3001562,40.4706539 C22.3001562,38.1910824 23.778574,36.3409953 25.6038831,36.3409953 C27.4291922,36.3409953 28.9076099,38.1910824 28.9076099,40.4706539 C28.9076099,42.7502254 27.4291922,44.6003124 25.6038831,44.6003124 Z" id="Shape" fill="#202942"></path>
            <path d="M21.1108146,21.4742245 L17.3445659,26.0251082 L13.9912832,26.85104 L14.1234323,29.9235059 L11.2078933,33.441975 C6.93782638,31.7983709 2.47779514,35.3746552 2.47779514,40.4706539 C2.47779514,44.6003124 5.43463066,47.9040393 9.08524883,47.9040393 C14.1234323,47.9040393 17.3445659,41.8004039 14.8667708,36.8200357 L27.5530819,21.4742245 L24.1089467,20.2353269 L21.1108146,21.4742245 Z M9.08524883,44.6003124 C7.25993975,44.6003124 5.78152198,42.7502254 5.78152198,40.4706539 C5.78152198,38.1910824 7.25993975,36.3409953 9.08524883,36.3409953 C10.9105579,36.3409953 12.3889757,38.1910824 12.3889757,40.4706539 C12.3889757,42.7502254 10.9105579,44.6003124 9.08524883,44.6003124 Z" id="Shape" fill="#174896"></path>
            <path d="M7.13604999,21.4742245 L2.47779514,21.4742245 C1.10934667,21.4742245 0,20.3648778 0,18.9964294 L0,2.47779514 C0,1.10934667 1.10934667,0 2.47779514,0 L32.2113368,0 C33.5797852,0 34.6891319,1.10934667 34.6891319,2.47779514 L34.6891319,18.9964294 C34.6891319,20.3648778 33.5797852,21.4742245 32.2113368,21.4742245 L7.13604999,21.4742245 Z" id="Shape" fill="#32CD32"></path>
            <polygon id="Shape" fill="#174896" points="9.46517742 16.5186342 34.6891319 16.5186342 34.6891319 10.7371123 0 10.7371123 0 16.5186342"></polygon>
            <circle id="Oval" fill="#D25627" cx="24.3649855" cy="5.36855613" r="2.06482928"></circle>
            <circle id="Oval" fill="#3B97D3" cx="28.4946441" cy="5.36855613" r="2.06482928"></circle>
            <path d="M17.3445659,26.0251082 L14.1234323,29.9152466 L5.91367106,20.0040661 C4.48090089,18.2529623 4.72396691,15.6749894 6.45878599,14.2225441 L7.09475341,13.6939478 L17.3445659,26.0251082 Z" id="Shape" fill="#202942"></path>
            <circle id="Oval" fill="#D1D4D1" cx="17.3445659" cy="29.7335416" r="1"></circle>
        </g>
    </g>
</svg>