<?xml version="1.0" encoding="UTF-8"?>
<svg width="14px" height="17px" viewBox="0 0 14 17" version="1.1" xmlns="http://www.w3.org/2000/svg" xmlns:xlink="http://www.w3.org/1999/xlink">
    <!-- Generator: Sketch 63.1 (92452) - https://sketch.com -->
    <title>notification</title>
    <desc>Created with Sketch.</desc>
    <g id="Component" stroke="none" stroke-width="1" fill="none" fill-rule="evenodd">
        <g id="notification" transform="translate(0.603875, 0.000000)" fill="#162857" fill-rule="nonzero">
            <path d="M6.64746556,16.1716121 C7.56384395,16.1716121 8.3061054,15.4293895 8.3061054,14.5129723 L4.98886459,14.5129723 C4.98882571,15.4293895 5.73108716,16.1716121 6.64746556,16.1716121 Z" id="Path"></path>
            <path d="M11.6233462,11.1957315 L11.6233462,7.0491513 C11.6233462,4.49901246 10.2674187,2.37182349 7.89143572,1.80787739 L7.89143572,1.24397016 C7.89143572,0.555627048 7.33580867,0 6.64746556,0 C5.95912244,0 5.40349539,0.555627048 5.40349539,1.24397016 L5.40349539,1.80791626 C3.02751238,2.37186236 1.67158491,4.49905134 1.67158491,7.04919017 L1.67158491,11.1957315 L0.0129450645,12.8543713 L0.0129450645,13.6836718 L13.2819472,13.6836718 L13.2819472,12.8543713 L11.6233462,11.1957315 Z" id="Path"></path>
        </g>
    </g>
</svg>