<?xml version="1.0" encoding="UTF-8"?>
<svg width="24px" height="23px" viewBox="0 0 24 23" version="1.1" xmlns="http://www.w3.org/2000/svg" xmlns:xlink="http://www.w3.org/1999/xlink">
    <!-- Generator: Sketch 63.1 (92452) - https://sketch.com -->
    <title>public-transport</title>
    <desc>Created with Sketch.</desc>
    <g id="Component" stroke="none" stroke-width="1" fill="none" fill-rule="evenodd">
        <g id="public-transport" transform="translate(0.500000, 0.000000)" fill-rule="nonzero">
            <g id="Group" transform="translate(6.869940, 19.376753)" fill="#685E68">
                <path d="M0.963200797,1.51931362 L0.877370587,1.51931362 C0.392819637,1.51931362 0,1.12649398 0,0.641943033 L0,0.022019038 L1.32114228,0.022019038 L1.32114228,1.16137214 C1.32114228,1.35905906 1.16088772,1.51931362 0.963200797,1.51931362 Z" id="Path"></path>
                <path d="M7.84441439,1.51931362 L7.9302446,1.51931362 C8.41479555,1.51931362 8.80761519,1.12649398 8.80761519,0.641943033 L8.80761519,0.022019038 L7.48647291,0.022019038 L7.48647291,1.16137214 C7.48647291,1.35905906 7.64672747,1.51931362 7.84441439,1.51931362 Z" id="Path"></path>
            </g>
            <path d="M21.1602955,22.2172093 L1.38719939,22.2172093 C0.803474695,22.2172093 0.330285569,21.7440202 0.330285569,21.1602955 C0.330285569,21.0143533 0.448571841,20.896067 0.594514025,20.896067 L21.9529809,20.896067 C22.098923,20.896067 22.2172093,21.0143533 22.2172093,21.1602955 C22.2172093,21.7440202 21.7440202,22.2172093 21.1602955,22.2172093 Z" id="Path" fill="#CBC4CC"></path>
            <path d="M21.9529809,20.896067 L20.6318386,20.896067 C20.7777808,20.896067 20.896067,21.0143533 20.896067,21.1602955 C20.896067,21.7440202 20.4228779,22.2172093 19.8391532,22.2172093 L21.1602955,22.2172093 C21.7440202,22.2172093 22.2172093,21.7440202 22.2172093,21.1602955 C22.2172093,21.0143533 22.098923,20.896067 21.9529809,20.896067 Z" id="Path" fill="#B5ADB6"></path>
            <path d="M17.1308115,18.1216682 L5.41668334,18.1216682 L5.41668334,7.55253002 C5.41668334,7.06608544 5.81100027,6.6717685 6.29744486,6.6717685 L16.25005,6.6717685 C16.7364946,6.6717685 17.1308115,7.06608544 17.1308115,7.55253002 L17.1308115,18.1216682 Z" id="Path" fill="#FFE177"></path>
            <path d="M16.25005,6.6717685 L14.9289077,6.6717685 C15.4153523,6.6717685 15.8096693,7.06608544 15.8096693,7.55253002 L15.8096693,18.1216682 L17.1308115,18.1216682 L17.1308115,7.55253002 C17.1308115,7.06608544 16.7364946,6.6717685 16.25005,6.6717685 Z" id="Path" fill="#FFD15B"></path>
            <path d="M17.1308115,18.1216682 L17.1308115,18.8262775 C17.1308115,19.312722 16.7364946,19.707039 16.25005,19.707039 L14.0606971,19.707039 C13.6736024,19.707039 13.2894142,19.640013 12.9251753,19.5088676 C12.5609364,19.3777222 12.1767482,19.3106963 11.7896535,19.3106963 L10.7578854,19.3106963 C10.3707907,19.3106963 9.98660256,19.3777222 9.62236363,19.5088676 C9.2581247,19.640013 8.87393653,19.707039 8.48684184,19.707039 L6.29744486,19.707039 C5.81100027,19.707039 5.41668334,19.312722 5.41668334,18.8262775 L5.41668334,18.1216682 L17.1308115,18.1216682 Z" id="Path" fill="#E2DEE2"></path>
            <path d="M15.8096693,18.1216682 L15.8096693,18.8262775 C15.8096693,19.312722 15.4153523,19.707039 14.9289077,19.707039 L16.25005,19.707039 C16.7364946,19.707039 17.1308115,19.312722 17.1308115,18.8262775 L17.1308115,18.1216682 L15.8096693,18.1216682 Z" id="Path" fill="#CBC4CC"></path>
            <path d="M13.8719939,6.6717685 L8.67550096,6.6717685 L8.67550096,5.96715929 C8.67550096,5.723937 8.87265942,5.52677853 9.11588172,5.52677853 L13.4316132,5.52677853 C13.6748355,5.52677853 13.8719939,5.723937 13.8719939,5.96715929 L13.8719939,6.6717685 Z" id="Path" fill="#75CDD5"></path>
            <polygon id="Path" fill="#B9F5FF" points="5.41668334 8.49934865 17.1308115 8.49934865 17.1308115 13.9600701 5.41668334 13.9600701"></polygon>
            <polygon id="Path" fill="#8AEEFF" points="15.8096693 8.49934865 17.1308115 8.49934865 17.1308115 13.9600701 15.8096693 13.9600701"></polygon>
            <g id="Group" transform="translate(7.090130, 15.237174)" fill="#DCF5F8">
                <path d="M2.13835685,1.45325651 L0.473937773,1.45325651 C0.228249348,1.45325651 0.029021092,1.25407229 0.029021092,1.00833982 L0.029021092,0.488910719 C0.029021092,0.243222293 0.228205309,0.0439940379 0.473937773,0.0439940379 L1.61892775,0.0439940379 C2.15152424,0.0439940379 2.5832295,0.475743334 2.5832295,1.00829579 C2.58327353,1.25407229 2.38408932,1.45325651 2.13835685,1.45325651 L2.13835685,1.45325651 Z" id="Path"></path>
                <path d="M6.22887757,1.45325651 L7.89329665,1.45325651 C8.13898508,1.45325651 8.33821333,1.25407229 8.33821333,1.00833982 L8.33821333,0.488910719 C8.33821333,0.243222293 8.13902912,0.0439940379 7.89329665,0.0439940379 L6.74830668,0.0439940379 C6.21571019,0.0439940379 5.78400492,0.475743334 5.78400492,1.00829579 C5.78396089,1.25407229 5.98314511,1.45325651 6.22887757,1.45325651 L6.22887757,1.45325651 Z" id="Path"></path>
            </g>
            <polygon id="Path" fill="#FFD15B" points="10.6131763 8.49934865 11.9343186 8.49934865 11.9343186 13.9600701 10.6131763 13.9600701"></polygon>
            <g id="Group" fill="#000000">
                <path d="M21.9529809,20.5657815 L19.6290035,20.5657815 C19.4465538,20.5657815 19.2987179,20.7136173 19.2987179,20.896067 C19.2987179,21.0785168 19.4465538,21.2263526 19.6290035,21.2263526 L21.8839732,21.2263526 C21.8505042,21.5961844 21.5387147,21.8869237 21.1602955,21.8869237 L1.38719939,21.8869237 C1.00878021,21.8869237 0.697034666,21.5961844 0.66352169,21.2263526 L18.0804486,21.2263526 C18.2628984,21.2263526 18.4107342,21.0785168 18.4107342,20.896067 C18.4107342,20.7136173 18.2628984,20.5657815 18.0804486,20.5657815 L15.8762989,20.5657815 C15.9575491,20.4066279 16.0044937,20.2272608 16.0073562,20.0373245 L16.25005,20.0373245 C16.9177994,20.0373245 17.4610971,19.4940268 17.4610971,18.8262775 L17.4610971,7.55253002 C17.4610971,6.88478068 16.9177994,6.34148293 16.25005,6.34148293 L15.9174745,6.34148293 C15.7350247,6.34148293 15.5871889,6.48931875 15.5871889,6.6717685 C15.5871889,6.85421825 15.7350247,7.00205407 15.9174745,7.00205407 L16.25005,7.00205407 C16.5536045,7.00205407 16.800526,7.24897556 16.800526,7.55253002 L16.800526,8.16906309 L5.74696891,8.16906309 L5.74696891,7.55253002 C5.74696891,7.24897556 5.9938904,7.00205407 6.29744486,7.00205407 L14.3505557,7.00205407 C14.5330054,7.00205407 14.6808413,6.85421825 14.6808413,6.6717685 C14.6808413,6.48931875 14.5330054,6.34148293 14.3505557,6.34148293 L14.2022795,6.34148293 L14.2022795,5.96715929 C14.2022795,5.54223589 13.8565366,5.19649296 13.4316132,5.19649296 L11.604033,5.19649296 L11.604033,3.82580785 C11.604033,3.6433581 11.4561972,3.49552228 11.2737474,3.49552228 C11.0913417,3.49552228 10.9434619,3.6433581 10.9434619,3.82580785 L10.9434619,5.19649296 L9.11588172,5.19649296 C8.69095832,5.19649296 8.34521539,5.54223589 8.34521539,5.96715929 L8.34521539,6.34148293 L6.29744486,6.34148293 C5.62965147,6.34148293 5.08639777,6.88478068 5.08639777,7.55253002 L5.08639777,14.7856959 C5.08639777,14.9681457 5.23427763,15.1159815 5.41668334,15.1159815 C5.59908905,15.1159815 5.74696891,14.9681457 5.74696891,14.7856959 L5.74696891,14.2903556 L16.800526,14.2903556 L16.800526,17.7913827 L5.74696891,17.7913827 L5.74696891,16.3260157 C5.74696891,16.143566 5.59908905,15.9957301 5.41668334,15.9957301 C5.23427763,15.9957301 5.08639777,16.143566 5.08639777,16.3260157 L5.08639777,18.8262775 C5.08639777,19.4940268 5.62965147,20.0373245 6.29744486,20.0373245 L6.54013869,20.0373245 C6.54300117,20.2272608 6.58994576,20.4066279 6.67119601,20.5657815 L0.594514025,20.5657815 C0.266694588,20.5657815 5.68434189e-14,20.832476 5.68434189e-14,21.1602955 C5.68434189e-14,21.9251928 0.622302051,22.5474949 1.38719939,22.5474949 L21.1602955,22.5474949 C21.9251928,22.5474949 22.5474949,21.9251928 22.5474949,21.1602955 C22.5474949,20.832476 22.2808003,20.5657815 21.9529809,20.5657815 Z M9.00578653,5.96715929 C9.00578653,5.90643078 9.05519725,5.8570641 9.11588172,5.8570641 L13.4316132,5.8570641 C13.4923417,5.8570641 13.5417083,5.90643078 13.5417083,5.96715929 L13.5417083,6.34148293 L9.00578653,6.34148293 L9.00578653,5.96715929 Z M8.52136769,20.5380375 L8.52136769,20.0365759 C8.93594214,20.0327006 9.3438228,19.9601698 9.73422034,19.8196003 C10.063493,19.7010938 10.4079148,19.6409378 10.7578854,19.6409378 L11.7896975,19.6409378 C12.1396681,19.6409378 12.4840899,19.7010498 12.8133626,19.8196003 C13.2037161,19.9601258 13.6115968,20.0327006 14.0261712,20.0365759 L14.0261712,20.5380375 C14.0261712,20.5473735 14.0271841,20.5564894 14.0275804,20.5657815 L8.51995847,20.5657815 C8.52035482,20.5565335 8.52136769,20.5474176 8.52136769,20.5380375 L8.52136769,20.5380375 Z M14.8003166,20.5657815 L14.7144423,20.5657815 C14.6991171,20.5657815 14.6866983,20.5533627 14.6866983,20.5380375 L14.6866983,20.0373245 L15.3463447,20.0373245 C15.3364801,20.3303099 15.0956799,20.5657815 14.8003166,20.5657815 Z M5.74696891,8.82963422 L10.2828907,8.82963422 L10.2828907,13.6297845 L5.74696891,13.6297845 L5.74696891,8.82963422 Z M10.9434619,13.6297845 L10.9434619,8.82963422 L11.604033,8.82963422 L11.604033,13.6297845 L10.9434619,13.6297845 Z M12.2646041,13.6297845 L12.2646041,8.82963422 L16.800526,8.82963422 L16.800526,13.6297845 L12.2646041,13.6297845 Z M5.74696891,18.8262775 L5.74696891,18.4519538 L16.800526,18.4519538 L16.800526,18.8262775 C16.800526,19.1298319 16.5536045,19.3767534 16.25005,19.3767534 L14.0606971,19.3767534 C13.7107265,19.3767534 13.3663047,19.3166414 13.037032,19.1980909 C12.6358451,19.053646 12.2161182,18.9804107 11.7896535,18.9804107 L10.7578414,18.9804107 C10.3313767,18.9804107 9.91169379,19.053646 9.51041884,19.1980909 C9.18114615,19.3165974 8.83672435,19.3767534 8.48675376,19.3767534 L6.29744486,19.3767534 C5.9938904,19.3767534 5.74696891,19.1298319 5.74696891,18.8262775 Z M7.20115021,20.0373245 L7.86079655,20.0373245 L7.86079655,20.5380375 C7.86079655,20.5533627 7.84833378,20.5657815 7.83305257,20.5657815 L7.74717832,20.5657815 C7.45185898,20.5657815 7.21101474,20.3303099 7.20115021,20.0373245 Z" id="Shape"></path>
                <path d="M9.22848708,17.0207163 C9.65592064,17.0207163 10.0036893,16.6729917 10.0036893,16.2455141 C10.0036893,15.5316569 9.42291518,14.9509268 8.70910201,14.9509268 L7.56411204,14.9509268 C7.13667847,14.9509268 6.78890979,15.2986514 6.78890979,15.726129 L6.78890979,16.2455581 C6.78890979,16.6729917 7.13663443,17.0207604 7.56411204,17.0207604 L9.22848708,17.0207604 L9.22848708,17.0207163 Z M7.44948092,16.2455141 L7.44948092,15.726085 C7.44948092,15.6628904 7.50087336,15.6114539 7.56411204,15.6114539 L8.70910201,15.6114539 C9.0587203,15.6114539 9.34311819,15.8958958 9.34311819,16.2454701 C9.34311819,16.3086647 9.29172575,16.3601012 9.22848708,16.3601012 L7.564068,16.3601012 C7.50087336,16.3601452 7.44948092,16.3087087 7.44948092,16.2455141 Z" id="Shape"></path>
                <path d="M14.9833828,17.0207163 C15.4108164,17.0207163 15.7585851,16.6729917 15.7585851,16.2455141 L15.7585851,15.726085 C15.7585851,15.2986514 15.4108604,14.9508827 14.9833828,14.9508827 L13.8383929,14.9508827 C13.1245357,14.9508827 12.5438055,15.5316569 12.5438055,16.2454701 C12.5438055,16.6729036 12.8915302,17.0206723 13.3190078,17.0206723 L14.9833828,17.0206723 L14.9833828,17.0207163 Z M13.2043767,16.2455141 C13.2043767,15.8959398 13.4888186,15.6114979 13.8383929,15.6114979 L14.9833828,15.6114979 C15.0465775,15.6114979 15.098014,15.6629344 15.098014,15.726129 L15.098014,16.2455581 C15.098014,16.3087528 15.0465775,16.3601892 14.9833828,16.3601892 L13.3189638,16.3601892 C13.2558132,16.3601452 13.2043767,16.3087087 13.2043767,16.2455141 L13.2043767,16.2455141 Z" id="Shape"></path>
                <path d="M11.2752888,2.35339478 C10.7717134,2.35339478 10.2936801,2.51466221 9.89275742,2.81984608 C9.74760792,2.93033761 9.71951162,3.13753676 9.83000316,3.28273029 C9.89500336,3.36807609 9.99342846,3.41295088 10.0930426,3.41295088 C10.1627549,3.41295088 10.2330837,3.39097588 10.2928433,3.34548455 C10.5777697,3.12859703 10.9174794,3.01400995 11.2752888,3.01400995 C11.6320853,3.01400995 11.9708702,3.12793646 12.2550919,3.34350284 C12.4004616,3.45377418 12.6075727,3.42523751 12.717844,3.2799559 C12.8280713,3.13463024 12.7996227,2.9274311 12.6542971,2.81720379 C12.2542992,2.51378145 11.777455,2.35339478 11.2752888,2.35339478 Z" id="Path"></path>
                <path d="M13.2721513,2.27214453 C13.3824226,2.12681888 13.353974,1.91966377 13.2086924,1.80939243 C12.6475152,1.38358827 11.9789291,1.15850966 11.2753328,1.15850966 C10.5698869,1.15850966 9.90011177,1.38451307 9.33845015,1.81207875 C9.19330066,1.92257028 9.16520436,2.12981347 9.2756959,2.27496296 C9.3406961,2.36030876 9.4391212,2.40518356 9.53873532,2.40518356 C9.6084476,2.40518356 9.6787764,2.38320856 9.73858011,2.33771722 C10.1842895,1.99844789 10.7156969,1.81912484 11.2753328,1.81912484 C11.8335595,1.81912484 12.3640862,1.99774328 12.8094432,2.33564743 C12.9546368,2.44578666 13.161924,2.41747018 13.2721513,2.27214453 L13.2721513,2.27214453 Z" id="Path"></path>
                <path d="M9.00600672,1.42621713 C9.07571899,1.42621713 9.1460478,1.40424213 9.20580747,1.35875079 C9.80587029,0.901987871 10.521445,0.660571139 11.2752888,0.660571139 C12.0276353,0.660571139 12.7422852,0.901283262 13.3419957,1.35663697 C13.4872332,1.46704042 13.6944764,1.43859183 13.8047478,1.29331021 C13.9151072,1.1480286 13.8867026,0.940873492 13.741421,0.830558112 C13.0258904,0.287172293 12.173093,7.10542736e-15 11.2752888,7.10542736e-15 C10.375767,7.10542736e-15 9.52169259,0.288141131 8.80572155,0.83311232 C8.66057205,0.943603853 8.63247576,1.15084704 8.74296729,1.29599654 C8.80796749,1.38134233 8.90643663,1.42621713 9.00600672,1.42621713 L9.00600672,1.42621713 Z" id="Path"></path>
            </g>
        </g>
    </g>
</svg>