<?xml version="1.0" encoding="UTF-8"?>
<svg width="22px" height="23px" viewBox="0 0 22 23" version="1.1" xmlns="http://www.w3.org/2000/svg" xmlns:xlink="http://www.w3.org/1999/xlink">
    <!-- Generator: Sketch 63.1 (92452) - https://sketch.com -->
    <title>retirement-plan</title>
    <desc>Created with Sketch.</desc>
    <g id="Component" stroke="none" stroke-width="1" fill="none" fill-rule="evenodd">
        <g id="retirement-plan" fill-rule="nonzero">
            <polygon id="Path" fill="#B4DD7F" points="6.74442965 5.32454972 6.74442965 6.03448968 0.354969981 6.03448968 0.354969981 0.354969981 6.74442965 0.354969981 6.74442965 1.41987993"></polygon>
            <polygon id="Path" fill="#B27946" points="17.3935291 19.523349 19.523349 19.523349 20.2332889 19.523349 20.5882589 21.6531689 16.3286191 21.6531689 16.6835891 19.523349"></polygon>
            <path d="M13.8438293,6.03448968 L13.8438293,7.80933959 C13.8438293,8.39858976 13.3681695,8.87424953 12.7789193,8.87424953 C12.4842942,8.87424953 12.2180668,8.75355974 12.026383,8.56187595 C11.8346992,8.37019216 11.7140094,8.10396467 11.7140094,7.80933959 L11.7140094,6.03448968 L13.4888593,6.03448968 C13.6059994,6.03448968 13.7195898,6.01674118 13.8225311,5.97769449 L13.8438293,6.03448968 Z" id="Path" fill="#D3A06C"></path>
            <path d="M14.5537692,4.25963978 L14.3088399,4.29158707 C14.2875417,4.26673918 14.2662435,4.24189128 14.2413957,4.21704338 C14.0497119,4.02535959 13.7834844,3.90466979 13.4888593,3.90466979 L11.7140094,3.90466979 L12.7185744,2.90010475 C12.9848019,2.63387726 13.3468713,2.48478987 13.7231395,2.48478987 L17.5142189,2.48478987 C17.7272009,2.48478987 17.9366332,2.53448567 18.1247672,2.62322816 L18.103469,2.66582456 C18.9695958,3.38286392 19.523349,4.46552236 19.523349,5.6795197 L19.523349,19.523349 L17.3935291,19.523349 L17.3935291,5.6795197 C17.3935291,4.69980255 16.5983963,3.90466979 15.6186792,3.90466979 C15.2175631,3.90466979 14.851944,4.03600869 14.5537692,4.25963978 Z" id="Path" fill="#D3A06C"></path>
            <path d="M11.7140094,3.90466979 L13.4888593,3.90466979 C13.7834844,3.90466979 14.0497119,4.02535959 14.2413957,4.21704338 C14.2662435,4.24189128 14.2875417,4.26673918 14.3088399,4.29158707 C14.461477,4.47617146 14.5537692,4.71045165 14.5537692,4.96957974 C14.5537692,5.44168981 14.2484951,5.83925619 13.8225311,5.97769449 C13.7195898,6.01674118 13.6059994,6.03448968 13.4888593,6.03448968 L11.7140094,6.03448968 L10.8656311,6.03448968 C10.027902,6.03448968 9.21502072,5.7860107 8.51927955,5.32454972 L6.74442965,5.32454972 L6.74442965,1.41987993 L7.84483659,0.75963576 C8.28499936,0.493408274 8.79260644,0.354969981 9.30731291,0.354969981 L17.3438333,0.354969981 C18.2845037,0.354969981 19.1861275,0.727688462 19.8534711,1.39503203 L21.3691929,2.91075385 C21.5502276,3.09178854 21.6531689,3.34026752 21.6531689,3.59584591 L21.6531689,3.64199201 C21.6531689,4.17799668 21.2165558,4.61460976 20.6805511,4.61460976 L20.634405,4.61460976 C20.3788266,4.61460976 20.1303476,4.51166846 19.949313,4.33063377 L18.5187839,2.90010475 C18.4051935,2.78651435 18.2703049,2.69067246 18.1247672,2.62322816 C17.9366332,2.53448567 17.7272009,2.48478987 17.5142189,2.48478987 L13.7231395,2.48478987 C13.3468713,2.48478987 12.9848019,2.63387726 12.7185744,2.90010475 L11.7140094,3.90466979 Z" id="Path" fill="#F0D0B4"></path>
            <path d="M11.7140094,10.2941295 L11.7140094,14.3798339 C11.7140094,17.8194931 9.37120751,20.8189894 6.03448968,21.6531689 C2.69777186,20.8189894 0.354969981,17.8194931 0.354969981,14.3798339 L0.354969981,10.2941295 C1.27789193,10.2941295 2.18661508,10.1450421 3.04919214,9.85751638 C3.91176919,9.5699907 4.72820015,9.14402672 5.46653771,8.59027355 L6.03448968,8.16430957 L6.60244165,8.59027355 C8.07556707,9.69777989 9.87171518,10.2941295 11.7140094,10.2941295 Z" id="Path" fill="#AAB2BD"></path>
            <circle id="Oval" fill="#FCD770" cx="6.03448968" cy="14.9087392" r="4.25963978"></circle>
            <path d="M5.6795197,11.7140094 L5.6795197,12.4743551 C5.06861636,12.6330267 4.61460976,13.1839401 4.61460976,13.8438293 C4.61460976,14.6268931 5.2514259,15.2637092 6.03448968,15.2637092 C6.42602157,15.2637092 6.74442965,15.5821173 6.74442965,15.9736492 C6.74442965,16.365181 6.42602157,16.6835891 6.03448968,16.6835891 C5.64295779,16.6835891 5.32454972,16.365181 5.32454972,15.9736492 L4.61460976,15.9736492 C4.61460976,16.6335384 5.06861636,17.1844518 5.6795197,17.3431233 L5.6795197,18.103469 L6.38945966,18.103469 L6.38945966,17.3431233 C7.000363,17.1844518 7.45436961,16.6335384 7.45436961,15.9736492 C7.45436961,15.1905854 6.81755346,14.5537692 6.03448968,14.5537692 C5.64295779,14.5537692 5.32454972,14.2353612 5.32454972,13.8438293 C5.32454972,13.4522974 5.64295779,13.1338893 6.03448968,13.1338893 C6.42602157,13.1338893 6.74442965,13.4522974 6.74442965,13.8438293 L7.45436961,13.8438293 C7.45436961,13.1839401 7.000363,12.6330267 6.38945966,12.4743551 L6.38945966,11.7140094 L5.6795197,11.7140094 Z" id="Path" fill="#000000"></path>
            <path d="M6.81542364,8.30629756 L6.03448968,7.72059709 L5.25391069,8.30629756 C3.84964945,9.35913853 2.1095866,9.93915948 0.354969981,9.93915948 L0,9.93915948 L0,14.379124 C0,17.9891687 2.44609814,21.1221338 5.94858695,21.9974897 L6.03448968,22.0191429 L6.12039242,21.9971348 C9.62288122,21.1221338 12.0689794,17.9891687 12.0689794,14.379124 L12.0689794,9.93915948 L11.7140094,9.93915948 C9.95939277,9.93915948 8.21932992,9.35913853 6.81542364,8.30629756 Z M11.3590394,14.379124 C11.3590394,17.6331338 9.17419917,20.4611797 6.03448968,21.2868398 C2.8947802,20.4611797 0.709939963,17.6331338 0.709939963,14.379124 L0.709939963,10.6416451 C2.49579394,10.5688762 4.24828074,9.94767876 5.67987467,8.87424953 L6.03448968,8.60802205 L6.38945966,8.87424953 C7.82069863,9.94767876 9.57318543,10.5688762 11.3590394,10.6416451 L11.3590394,14.379124 Z" id="Shape" fill="#000000"></path>
            <path d="M21.6190917,2.65872516 L20.1037249,1.14335831 C19.3668072,0.406440629 18.3860252,0 17.3427684,0 L9.30589303,0 C8.72729196,0 8.15898502,0.157251702 7.66202705,0.455071516 L7.09939963,0.793002938 L7.09939963,0 L0,0 L0,6.38945966 L7.09939963,6.38945966 L7.09939963,5.6795197 L8.41420844,5.6795197 C9.14828636,6.14453038 9.99311491,6.38945966 10.8638563,6.38945966 L11.3590394,6.38945966 L11.3590394,7.80933959 C11.3590394,8.59240337 11.9958555,9.22921951 12.7789193,9.22921951 C13.5619831,9.22921951 14.1987993,8.59240337 14.1987993,7.80933959 L14.1987993,6.19209635 C14.6212135,5.94574719 14.9087392,5.49280549 14.9087392,4.96957974 C14.9087392,4.80664852 14.875372,4.65259155 14.8246113,4.50669888 C15.0596015,4.34696239 15.3315085,4.25963978 15.6186792,4.25963978 C16.401743,4.25963978 17.0385591,4.89645592 17.0385591,5.6795197 L17.0385591,19.168379 L16.3829295,19.168379 L15.9093996,22.0081388 L21.0071235,22.0081388 L20.5335935,19.168379 L19.878319,19.168379 L19.878319,5.6795197 C19.878319,5.3153205 19.8272033,4.95893064 19.7384608,4.61425479 C19.9819702,4.83859582 20.3046379,4.96957974 20.6361799,4.96957974 L20.6805511,4.96957974 C21.4124992,4.96957974 22.0081388,4.37394011 22.0081388,3.64199201 L22.0081388,3.59762076 C22.0081388,3.24797533 21.8665058,2.90613924 21.6190917,2.65872516 Z M6.38945966,5.6795197 L0.709939963,5.6795197 L0.709939963,0.709939963 L6.38945966,0.709939963 L6.38945966,5.6795197 Z M13.4888593,7.80933959 C13.4888593,8.20087148 13.1704512,8.51927955 12.7789193,8.51927955 C12.3873874,8.51927955 12.0689794,8.20087148 12.0689794,7.80933959 L12.0689794,6.38945966 L13.4888593,6.38945966 L13.4888593,7.80933959 Z M19.9326294,19.878319 L20.1690394,21.2981989 L16.7474837,21.2981989 L16.9838937,19.878319 L17.0385591,19.878319 L19.878319,19.878319 L19.9326294,19.878319 Z M17.7484991,19.168379 L17.7484991,5.6795197 C17.7484991,4.50492403 16.7932748,3.54969981 15.6186792,3.54969981 C15.1902304,3.54969981 14.7844997,3.6799738 14.4334344,3.91709374 C14.1817607,3.69133284 13.8530585,3.54969981 13.4888593,3.54969981 L12.5709069,3.54969981 L12.9688283,3.15177846 C13.1700962,2.95051048 13.4373886,2.83975985 13.7220746,2.83975985 L17.5152838,2.83975985 C17.6494624,2.83975985 17.7790265,2.8663826 17.9004262,2.91359361 L17.8773532,2.94128127 C18.6980438,3.61856399 19.168379,4.61673958 19.168379,5.6795197 L19.168379,19.168379 L17.7484991,19.168379 Z M21.2981989,3.64199201 C21.2981989,3.98276319 21.0213223,4.25963978 20.6805511,4.25963978 L20.6361799,4.25963978 C20.4736036,4.25963978 20.3145771,4.19361536 20.1995668,4.07860509 L18.7708126,2.64985091 C18.435366,2.31475925 17.9895237,2.12981989 17.5152838,2.12981989 L13.7220746,2.12981989 C13.2478347,2.12981989 12.8019924,2.31475925 12.4669007,2.64985091 L11.5670518,3.54969981 L11.0040694,3.54969981 L11.0040694,4.25963978 L13.4888593,4.25963978 C13.8803912,4.25963978 14.1987993,4.57804785 14.1987993,4.96957974 C14.1987993,5.36111163 13.8803912,5.6795197 13.4888593,5.6795197 L10.8638563,5.6795197 C10.0971211,5.6795197 9.35416895,5.45446873 8.71593292,5.0292147 L8.62683546,4.96957974 L7.09939963,4.96957974 L7.09939963,1.62079293 L8.02693619,1.06384503 C8.4134985,0.832404606 8.85579109,0.709939963 9.30589303,0.709939963 L17.3431233,0.709939963 C18.1964712,0.709939963 18.9987033,1.04254684 19.6021523,1.64564083 L21.1175192,3.16100768 C21.2325294,3.27601796 21.2985538,3.43504451 21.2985538,3.59762076 L21.2985538,3.64199201 L21.2981989,3.64199201 Z" id="Shape" fill="#000000"></path>
            <path d="M1.41987993,14.9087392 C1.41987993,17.453164 3.49006486,19.523349 6.03448968,19.523349 C8.57891451,19.523349 10.6490994,17.453164 10.6490994,14.9087392 C10.6490994,12.3643144 8.57891451,10.2941295 6.03448968,10.2941295 C3.49006486,10.2941295 1.41987993,12.3643144 1.41987993,14.9087392 Z M9.93915948,14.9087392 C9.93915948,17.0616322 8.18738262,18.813409 6.03448968,18.813409 C3.88159675,18.813409 2.12981989,17.0616322 2.12981989,14.9087392 C2.12981989,12.7558463 3.88159675,11.0040694 6.03448968,11.0040694 C8.18738262,11.0040694 9.93915948,12.7558463 9.93915948,14.9087392 Z" id="Shape" fill="#000000"></path>
            <polygon id="Path" fill="#000000" points="8.51927955 14.5537692 9.22921951 14.5537692 9.22921951 15.2637092 8.51927955 15.2637092"></polygon>
            <polygon id="Path" fill="#000000" points="2.83975985 14.5537692 3.54969981 14.5537692 3.54969981 15.2637092 2.83975985 15.2637092"></polygon>
        </g>
    </g>
</svg>