<?xml version="1.0" encoding="UTF-8"?>
<svg width="42px" height="48px" viewBox="0 0 42 48" version="1.1" xmlns="http://www.w3.org/2000/svg" xmlns:xlink="http://www.w3.org/1999/xlink">
    <!-- Generator: Sketch 63.1 (92452) - https://sketch.com -->
    <title>save-money</title>
    <desc>Created with Sketch.</desc>
    <g id="Component" stroke="none" stroke-width="1" fill="none" fill-rule="evenodd">
        <g id="save-money" fill-rule="nonzero">
            <path d="M30.1755824,38.9297862 L37.0320564,35.6913603 C38.5436779,34.927919 40.3883751,35.4876234 41.2212548,36.9618549 L27.2843486,45.9770252 C25.4159967,46.8392828 23.3191083,47.0765944 21.3050118,46.6538592 L11.6931288,43.9560612 C10.8083609,43.7080668 9.86216669,43.8114614 9.05217876,44.2452609 L7.04189758,45.3207938 L7.31240236,35.5173826 L7.39252359,35.5192903 C10.2650623,33.4784868 14.0372486,33.2144681 17.1657938,34.8355887 L17.7411409,35.1335636 C18.6404069,35.5994116 19.6339108,35.8561812 20.6468728,35.8836514 L26.2969492,36.0396971 C28.0703003,36.0881514 29.6223639,37.2445686 30.1755824,38.9297862 Z" id="Path" fill="#F7CAA5"></path>
            <path d="M32.0569064,21.7319438 C32.0569064,27.5582872 27.333566,32.2816275 21.5072227,32.2816275 C15.6808794,32.2816275 10.9575391,27.5582872 10.9575391,21.7319438 C10.9575391,15.9056005 15.6808794,11.1822602 21.5072227,11.1822602 C27.333566,11.1822602 32.0569064,15.9056005 32.0569064,21.7319438 Z" id="Path" fill="#FEDB41"></path>
            <polygon id="Path" fill="#32CD32" points="7.04189758 45.3207938 7.01175669 46.4241783 0.816474013 46.2543974 1.19037333 32.6574344 7.38680062 32.8275967 7.31240236 35.5173826"></polygon>
            <g id="Group" fill="#174896">
                <path d="M21.5720828,25.9978298 C21.4847125,25.9787533 21.3946714,25.9753195 21.3057749,25.98791 C20.4084166,25.8898568 19.7300564,25.1298492 19.7334901,24.2271495 C19.7334901,23.7956391 19.3836272,23.4457762 18.9521168,23.4457762 C18.5206066,23.4457762 18.1707436,23.7956391 18.1707436,24.2271495 C18.1654022,25.7334296 19.1741673,27.0542862 20.6281778,27.4464988 L20.6281778,28.2271091 C20.6281778,28.6586194 20.9780407,29.0084823 21.4095511,29.0084823 C21.8410614,29.0084823 22.1909243,28.6586194 22.1909243,28.2271091 L22.1909243,27.4930455 C23.8643145,27.1428011 25.0020367,25.5838698 24.8257699,23.883391 C24.6498846,22.1829122 23.2168583,20.8902888 21.5072227,20.8899073 C20.5274539,20.8899073 19.7334901,20.0959436 19.7334901,19.1161748 C19.7334901,18.1367874 20.5274539,17.3424422 21.5072227,17.3424422 C22.4869916,17.3424422 23.2809553,18.1367874 23.2809553,19.1161748 C23.2809553,19.5476851 23.6308182,19.897548 24.0623285,19.897548 C24.4938389,19.897548 24.8437462,19.5476851 24.8437462,19.1161748 C24.8414127,17.5377855 23.7353574,16.1761053 22.1909243,15.8506602 L22.1909243,15.1391069 C22.1909243,14.7075966 21.8410614,14.3577337 21.4095511,14.3577337 C20.9780407,14.3577337 20.6281778,14.7075966 20.6281778,15.1391069 L20.6281778,15.8983515 C19.0158324,16.3382555 17.978071,17.9036727 18.2001215,19.5598941 C18.4225534,21.2164969 19.8361217,22.4530353 21.5072227,22.4526538 C22.479361,22.4450232 23.2767584,23.2214366 23.2943089,24.1931933 C23.3122408,25.1653315 22.544221,25.9703596 21.5720828,25.9982114 L21.5720828,25.9978298 Z" id="Path"></path>
                <path d="M10.1761658,21.7319438 C10.1761658,27.9897974 15.2493691,33.0630007 21.5072227,33.0630007 C27.7650763,33.0630007 32.8382796,27.9897974 32.8382796,21.7319438 C32.8382796,15.4740903 27.7650763,10.4008869 21.5072227,10.4008869 C15.2524213,10.408136 10.1834149,15.4771425 10.1761658,21.7319438 Z M21.5072227,11.9636335 C26.9020557,11.9636335 31.2755331,16.3371109 31.2755331,21.7319438 C31.2755331,27.1267768 26.9020557,31.5002542 21.5072227,31.5002542 C16.1123898,31.5002542 11.7389124,27.1267768 11.7389124,21.7319438 C11.7450168,16.3397816 16.1150605,11.9697379 21.5072227,11.9636335 Z" id="Shape"></path>
                <path d="M36.689824,34.9885821 L30.5704658,37.8790528 C29.7227063,36.3090572 28.1019673,35.3105935 26.3186965,35.2587054 L20.6678569,35.1026596 C19.7731692,35.0767156 18.8956505,34.8504684 18.1001606,34.4395607 L17.5251951,34.1419673 C14.5813102,32.6070725 11.0727612,32.6108877 8.13192851,34.1515056 L8.16779237,32.8485809 C8.18000133,32.4174521 7.83967665,32.0580509 7.40816629,32.0462234 L1.211739,31.8760612 C1.00456824,31.8703382 0.803501948,31.9470258 0.653179211,32.0893364 C0.502474871,32.2320285 0.41472304,32.4285165 0.409381572,32.6356872 L0.0351827618,46.2326502 C0.0236549034,46.6641606 0.363597983,47.0231802 0.795108338,47.0350077 L6.99039101,47.20517 L7.01213829,47.20517 C7.43525494,47.2047884 7.7813026,46.8678975 7.79274845,46.4451625 L7.81068038,45.795417 L9.42111811,44.9335409 C10.0525501,44.5939792 10.7915736,44.513095 11.4817612,44.7080567 L21.0940258,47.4054732 C21.1104316,47.4104331 21.1272189,47.4142483 21.1443878,47.4180637 C21.8395352,47.5634266 22.5480363,47.6366803 23.2580635,47.6363003 C24.7609098,47.6370618 26.2462058,47.3131429 27.6117013,46.6859078 C27.645276,46.6702651 27.677706,46.6523331 27.7086099,46.6324936 L41.6455161,37.6173233 C41.9927083,37.3929837 42.1048782,36.9370554 41.9015227,36.5768912 C40.8668135,34.7409692 38.5722927,34.0420064 36.689824,34.9885821 L36.689824,34.9885821 Z M6.27044414,45.2990465 L6.25670907,45.6214394 L1.62150208,45.4943898 L1.95114393,33.4597919 L6.58940315,33.5868413 L6.27044414,45.2990465 Z M26.9077787,45.2902714 C25.210352,46.0563835 23.3149114,46.267751 21.4904354,45.8942332 L11.9041148,43.2036843 C10.8255298,42.8992234 9.67063873,43.0255098 8.68362082,43.5562179 L7.86027922,43.9968849 L8.08118506,35.9946766 C10.6874159,34.2610047 14.0307626,34.0828302 16.8063926,35.5295916 L17.3817398,35.8271849 C18.3863081,36.3460656 19.4950339,36.6325946 20.6251256,36.6646431 L26.2755835,36.8210703 C27.7189112,36.8622756 28.9817752,37.8035099 29.4335066,39.1747284 C29.4739488,39.298344 29.5075235,39.4238674 29.533849,39.5512984 L21.1165361,39.3189467 C20.6850258,39.3071192 20.3260061,39.6470624 20.3137972,40.0785728 C20.3019697,40.510083 20.6422944,40.8691028 21.0734232,40.8813117 L30.3610058,41.1369367 L30.382753,41.1369367 C30.8058698,41.1373183 31.1522989,40.8004274 31.1641263,40.3769291 C31.173283,40.0373675 31.1477206,39.6978059 31.0882019,39.3632042 L37.3662766,36.3971907 C37.372381,36.3945199 37.3784855,36.3914677 37.38459,36.3884155 C38.2750809,35.9378286 39.3517583,36.0885329 40.0842958,36.7665116 L26.9077787,45.2902714 Z" id="Shape"></path>
                <path d="M22.288596,8.20441925 L22.288596,0.781373261 C22.288596,0.349862906 21.9387331,0 21.5072227,0 C21.0757124,0 20.7258495,0.349862906 20.7258495,0.781373261 L20.7258495,8.20441925 C20.7258495,8.6359296 21.0757124,8.98579251 21.5072227,8.98579251 C21.9387331,8.98579251 22.288596,8.6359296 22.288596,8.20441925 Z" id="Path"></path>
                <path d="M28.1488955,8.20441925 L28.1488955,4.68823957 C28.1488955,4.25672921 27.7990326,3.90686631 27.3675222,3.90686631 C26.9360118,3.90686631 26.5861489,4.25672921 26.5861489,4.68823957 L26.5861489,8.20441925 C26.5861489,8.6359296 26.9360118,8.98579251 27.3675222,8.98579251 C27.7990326,8.98579251 28.1488955,8.6359296 28.1488955,8.20441925 Z" id="Path"></path>
                <path d="M16.4282965,8.20441925 L16.4282965,4.68823957 C16.4282965,4.25672921 16.0784336,3.90686631 15.6469233,3.90686631 C15.2154129,3.90686631 14.86555,4.25672921 14.86555,4.68823957 L14.86555,8.20441925 C14.86555,8.6359296 15.2154129,8.98579251 15.6469233,8.98579251 C16.0784336,8.98579251 16.4282965,8.6359296 16.4282965,8.20441925 Z" id="Path"></path>
            </g>
        </g>
    </g>
</svg>