<?xml version="1.0" encoding="UTF-8"?>
<svg width="17px" height="17px" viewBox="0 0 17 17" version="1.1" xmlns="http://www.w3.org/2000/svg" xmlns:xlink="http://www.w3.org/1999/xlink">
    <!-- Generator: Sketch 63.1 (92452) - https://sketch.com -->
    <title>sort-by-attributes</title>
    <desc>Created with Sketch.</desc>
    <g id="Component" stroke="none" stroke-width="1" fill="none" fill-rule="evenodd">
        <g id="sort-by-attributes" fill="#174896" fill-rule="nonzero">
            <path d="M10.697819,14.234243 L8.32552088,14.234243 C8.23898638,14.234243 8.16799953,14.2619951 8.11236558,14.3177588 C8.05689391,14.3732954 8.02901202,14.4443796 8.02901202,14.5308168 L8.02901202,16.3100322 C8.02901202,16.3967939 8.05676408,16.4675536 8.11236558,16.5233174 C8.16803199,16.5788539 8.23898638,16.606606 8.32552088,16.606606 L10.697819,16.606606 C10.7843535,16.606606 10.8554377,16.5788539 10.9108444,16.5233174 C10.9666082,16.4675211 10.9940357,16.3967939 10.9940357,16.3100322 L10.9940357,14.5308168 C10.9940357,14.4443796 10.9665758,14.373263 10.9108444,14.3177588 C10.8554377,14.2620275 10.7843535,14.234243 10.697819,14.234243 Z" id="Path"></path>
            <path d="M6.24956935,13.0480453 L4.47028898,13.0480453 L4.47028898,0.296541319 C4.47028898,0.210104199 4.44256938,0.138922597 4.38693542,0.0833860168 C4.33130146,0.0278818951 4.26031461,0 4.17374766,0 L2.39443483,0 C2.30799771,0 2.2368161,0.0277520609 2.18127952,0.0833535582 C2.12580786,0.139019973 2.09792597,0.210104199 2.09792597,0.296508861 L2.09792597,13.0480128 L0.318613134,13.0480128 C0.182806558,13.0480128 0.0901049368,13.109749 0.0406381055,13.2332862 C-0.00886118434,13.3508186 0.0128860446,13.4588731 0.105457831,13.5577419 L3.07090348,16.5233174 C3.13887169,16.5787241 3.20985854,16.6064762 3.28405878,16.6064762 C3.36436124,16.6064762 3.43547792,16.5787241 3.49721409,16.5233174 L6.45340905,13.5670575 C6.51527505,13.4930844 6.54611067,13.4186894 6.54611067,13.3449112 C6.54611067,13.2580521 6.51822878,13.1871951 6.46275711,13.1312041 C6.40715562,13.0758298 6.33616877,13.0480453 6.24956935,13.0480453 Z" id="Path"></path>
            <path d="M12.4770669,9.4896468 L8.3254235,9.4896468 C8.23888901,9.4896468 8.16790216,9.51739886 8.1122682,9.57293544 C8.05676408,9.62847202 8.02891464,9.69955625 8.02891464,9.78596091 L8.02891464,11.565436 C8.02891464,11.6518407 8.0566667,11.7229574 8.1122682,11.7784615 C8.16790216,11.8339981 8.23888901,11.8617501 8.3254235,11.8617501 L12.4770669,11.8617501 C12.5636014,11.8617501 12.6346532,11.8339981 12.6900924,11.7784615 C12.7457588,11.7229249 12.7736082,11.6518407 12.7736082,11.565436 L12.7736082,9.78596091 C12.7736082,9.69955625 12.7457588,9.62843956 12.6900924,9.57293544 C12.6346856,9.51743132 12.5636014,9.4896468 12.4770669,9.4896468 Z" id="Path"></path>
            <path d="M16.2488803,0.0833535582 C16.1932139,0.0278818951 16.1222271,0 16.0356926,0 L8.32552088,0 C8.23898638,0 8.16799953,0.0277520609 8.11236558,0.0833535582 C8.05689391,0.139019973 8.02901202,0.210104199 8.02901202,0.296508861 L8.02901202,2.07582169 C8.02901202,2.16235619 8.05676408,2.23334304 8.11236558,2.288977 C8.16803199,2.34444866 8.23898638,2.37233055 8.32552088,2.37233055 L16.0356926,2.37233055 C16.1222271,2.37233055 16.1932139,2.34457849 16.2488479,2.288977 C16.3043844,2.23334304 16.332137,2.16235619 16.332137,2.07582169 L16.332137,0.296541319 C16.3322663,0.210104199 16.3043844,0.138890138 16.2488803,0.0833535582 Z" id="Path"></path>
            <path d="M14.2564446,4.7448234 L8.3254235,4.7448234 C8.23888901,4.7448234 8.16790216,4.77257546 8.1122682,4.82824188 C8.05676408,4.88384337 8.02891464,4.95483022 8.02891464,5.04139718 L8.02891464,6.82064509 C8.02891464,6.90721205 8.0566667,6.9781989 8.1122682,7.0338004 C8.16790216,7.08933698 8.23888901,7.11721887 8.3254235,7.11721887 L14.2564446,7.11721887 C14.3428818,7.11721887 14.413966,7.08946681 14.4696973,7.0338004 C14.5251365,6.9781989 14.5528886,6.90721205 14.5528886,6.82064509 L14.5528886,5.04139718 C14.5528886,4.95483022 14.5251365,4.88371354 14.4696973,4.82824188 C14.4138362,4.7727053 14.3427519,4.7448234 14.2564446,4.7448234 Z" id="Path"></path>
        </g>
    </g>
</svg>