<?xml version="1.0" encoding="UTF-8"?>
<svg width="12px" height="13px" viewBox="0 0 12 13" version="1.1" xmlns="http://www.w3.org/2000/svg" xmlns:xlink="http://www.w3.org/1999/xlink">
    <!-- Generator: Sketch 63.1 (92452) - https://sketch.com -->
    <title>transaction2</title>
    <desc>Created with Sketch.</desc>
    <g id="Component" stroke="none" stroke-width="1" fill="none" fill-rule="evenodd">
        <g id="transaction2" transform="translate(6.000000, 6.500000) rotate(-270.000000) translate(-6.000000, -6.500000) translate(-0.500000, 0.500000)" fill-rule="nonzero">
            <path d="M10.0734666,7.86100545 L10.0734666,0.432391462 L8.29111442,0.432391462 L8.29111442,7.86100545 L7.31708682,6.8871519 L6.05690816,8.14733057 L9.18229049,11.2728869 L12.3076728,8.14733057 L11.0474942,6.8871519 L10.0734666,7.86100545 Z M6.64870477,3.52296223 L3.52332244,0.39740585 L0.397940104,3.52296223 L1.65811877,4.78314089 L2.63214637,3.80928734 L2.63214637,11.2601807 L4.41449851,11.2601807 L4.41449851,3.80928734 L5.38852611,4.78314089 L6.64870477,3.52296223 Z" id="Shape" fill="#B3C3D6"></path>
            <polygon id="Path" fill="#32CD32" points="6.64870477 3.52296223 3.52332244 0.39740585 0.397940104 3.52296223 1.65811877 4.78314089 2.63214637 3.80928734 2.63214637 11.2601807 4.41449851 11.2601807 4.41449851 3.80928734 5.38852611 4.78314089"></polygon>
        </g>
    </g>
</svg>