<?xml version="1.0" encoding="UTF-8"?>
<svg width="26px" height="23px" viewBox="0 0 26 23" version="1.1" xmlns="http://www.w3.org/2000/svg" xmlns:xlink="http://www.w3.org/1999/xlink">
    <!-- Generator: Sketch 63.1 (92452) - https://sketch.com -->
    <title>sun-umbrella</title>
    <desc>Created with Sketch.</desc>
    <g id="Component" stroke="none" stroke-width="1" fill="none" fill-rule="evenodd">
        <g id="sun-umbrella" fill-rule="nonzero">
            <path d="M12.6373983,19.0092503 L17.0234095,8.00471054 C17.2069068,7.54423433 17.7290274,7.31973979 18.1894541,7.50323709 C18.6499303,7.68673438 18.8744249,8.20885499 18.6909276,8.66928169 L14.502228,19.1786858 L12.6373983,19.0092503 Z" id="Path" fill="#90A4AE"></path>
            <path d="M14.3988582,9.46814734 C14.3999077,9.46569846 14.4009572,9.46324958 14.4020067,9.4608007 C14.4009572,9.46091732 14.3999077,9.46115054 14.3989748,9.46126716 L14.3988582,9.46814734 Z" id="Path" fill="#FFF9C5"></path>
            <path d="M18.1894541,7.50323709 C17.7289779,7.31973979 17.2069068,7.54423433 17.0234095,8.00471054 L15.8748927,10.8863014 C16.1675179,10.9330422 16.4586082,11.0129571 16.7450937,11.1271354 C17.0316288,11.2413632 17.2989525,11.3834671 17.5427574,11.5499813 L18.6909276,8.66933121 C18.8744744,8.20885499 18.6499303,7.68683341 18.1894541,7.50323709 Z" id="Path" fill="#000000" opacity="0.1"></path>
            <path d="M19.7776514,3.51863243 L16.4682138,3.87433793 L14.3662637,6.32238793 L14.3666103,9.42891891 L14.3680957,9.42832474 C14.3679472,9.42867134 14.3677986,9.42906745 14.3676006,9.42941404 C15.2855327,9.25893881 16.3075918,9.34840984 17.2969225,9.74268641 C18.2799649,10.1344873 19.079114,10.7671222 19.6279224,11.5159159 L19.637528,11.5334437 L21.3664429,9.82161104 L21.5592983,5.55007524 L19.7776514,3.51863243 Z" id="Path" fill="#FFF9C5"></path>
            <path d="M22.8492258,20.9444387 C21.6448577,19.0193016 17.5658802,17.6026193 12.7192938,17.6026193 C7.8728559,17.6026193 3.79402692,19.0192521 2.58951027,20.9442407 L3.26616273,20.9444387 L4.73458672,21.8861373 L6.27866744,22.0539388 L7.36687671,21.4252155 L9.09415765,20.7952048 L10.0211012,21.0469318 L11.9930287,22.0538893 L13.2936512,21.8441003 L14.9719137,21.2179517 L16.1886107,20.8371923 L17.7409602,21.2179517 L18.9996447,22.0539388 L21.0135102,21.8022118 L22.8492258,20.9444387 Z" id="Path" fill="#FFCA28"></path>
            <path d="M21.1547724,21.7362103 L22.8492258,20.9443892 C21.6448577,19.0193016 17.5658802,17.6025697 12.7192938,17.6025697 C11.6049909,17.6025697 10.5314376,17.6776323 9.52393545,17.8163198 C14.5235188,18.3897365 18.705138,19.8275116 21.1547724,21.7362103 Z" id="Path" fill="#000000" opacity="0.1"></path>
            <path d="M25.1788889,21.1511579 C23.9887312,20.3439877 22.4506416,20.3439877 21.2604839,21.1511579 C20.3244298,21.7859714 19.1147637,21.7859714 18.1785611,21.1511579 C16.9884034,20.3439877 15.4503138,20.3439877 14.2601561,21.1511579 C13.324102,21.7859714 12.1143865,21.7859714 11.1782334,21.1511579 C9.98807567,20.3439877 8.44998609,20.3439877 7.25982837,21.1511579 C6.32372479,21.7859714 5.11405873,21.7859714 4.17790564,21.1511579 C2.98774792,20.3439877 1.44965834,20.3439877 0.259500627,21.1511579 C0.089173942,21.2666731 0.0447107549,21.4983966 0.160225917,21.6686737 C0.275741079,21.8390004 0.507514106,21.8834141 0.677741765,21.7679485 C1.61379583,21.133135 2.82351141,21.1330854 3.7596645,21.7679485 C4.94987173,22.5750692 6.48796131,22.5750692 7.67806951,21.7679485 C8.61412358,21.133135 9.82383915,21.1330854 10.7599922,21.7679485 C11.9501995,22.5750692 13.4882891,22.5750692 14.6783973,21.7679485 C15.6144513,21.133135 16.8241669,21.1330854 17.76032,21.7679485 C18.3554236,22.1714841 19.037473,22.3733014 19.719572,22.3733014 C20.401671,22.3733014 21.0836709,22.1714841 21.6787745,21.7679485 C22.6148286,21.133135 23.8245442,21.133135 24.7606972,21.7679485 C24.9310239,21.8835131 25.1626979,21.8390004 25.2782131,21.6686737 C25.3936787,21.4983471 25.3492651,21.2666731 25.1788889,21.1511579 Z" id="Path" fill="#4FC3F7"></path>
            <g id="Group" transform="translate(9.060984, 2.921301)" fill="#EF495B">
                <path d="M5.30562674,6.5076182 C4.75652123,5.75258575 3.95311402,5.11445484 2.96383287,4.72012876 C1.97405658,4.32560462 0.951452787,4.23628214 0.0332236064,4.40705444 C0.0332236064,4.40705444 4.48875184,-1.88493215 10.7167174,0.597331725 C10.7167174,0.597331725 7.45065368,1.47089966 5.30532966,6.51123269 L5.30562674,6.5076182 Z" id="Path"></path>
                <path d="M10.5787726,8.60927125 C11.4967047,8.43889505 12.5187638,8.52836607 13.5080945,8.92264264 C14.4978708,9.31716677 15.3015751,9.95569379 15.8506311,10.7112709 C15.8506311,10.7112709 16.9446334,3.07949657 10.7166184,0.597232698 C10.7166184,0.597232698 12.4863819,3.47788277 10.5765445,8.61209352 L10.5787726,8.60927125 Z" id="Path"></path>
            </g>
            <circle id="Oval" fill="#FFCA28" cx="4.24866053" cy="4.2470761" r="2.02990788"></circle>
            <path d="M1.83764669,4.24687804 C1.83764669,5.57166316 2.91540859,6.64937555 4.2401442,6.64937555 C5.56492931,6.64937555 6.64269122,5.57161364 6.64269122,4.24687804 C6.64269122,2.92214244 5.56492931,1.84438053 4.2401442,1.84438053 C2.91545811,1.84438053 1.83764669,2.92214244 1.83764669,4.24687804 Z M4.24019371,2.5896093 C5.1540657,2.5896093 5.89751197,3.33305557 5.89751197,4.24687804 C5.89751197,5.16070051 5.15401618,5.90414679 4.24019371,5.90414679 C3.32637124,5.90414679 2.58287545,5.16075003 2.58287545,4.24687804 C2.58287545,3.33300606 3.32632172,2.5896093 4.24019371,2.5896093 Z" id="Shape" fill="#000000"></path>
            <path d="M4.61278333,1.1288104 L4.61278333,0.379273957 C4.61278333,0.173495554 4.44602163,0.00668433213 4.24019371,0.00668433213 C4.03436579,0.00668433213 3.86760409,0.173495554 3.86760409,0.379273957 L3.86760409,1.1288104 C3.86760409,1.3345888 4.03436579,1.50140002 4.24019371,1.50140002 C4.44602163,1.50140002 4.61278333,1.3345888 4.61278333,1.1288104 Z" id="Path" fill="#000000"></path>
            <path d="M6.71151508,1.24858373 L6.18152181,1.778577 C6.03600143,1.92409738 6.03600143,2.16002955 6.18152181,2.30550042 C6.25430676,2.37828537 6.34962039,2.41462833 6.44503304,2.41462833 C6.54034667,2.41462833 6.63575932,2.37828537 6.70854427,2.30554994 L7.23853754,1.77555667 C7.38405792,1.63003628 7.38405792,1.39410411 7.23853754,1.24858373 C7.09296764,1.10311286 6.85708498,1.10306334 6.71151508,1.24858373 Z" id="Path" fill="#000000"></path>
            <path d="M8.10779779,4.61946767 C8.31362571,4.61946767 8.48038742,4.45265644 8.48038742,4.24687804 C8.48038742,4.04109964 8.31362571,3.87428842 8.10779779,3.87428842 L7.35831087,3.87428842 C7.15248295,3.87428842 6.98572124,4.04109964 6.98572124,4.24687804 C6.98572124,4.45265644 7.15248295,4.61946767 7.35831087,4.61946767 L8.10779779,4.61946767 Z" id="Path" fill="#000000"></path>
            <path d="M6.18152181,6.18825566 C6.03600143,6.33377605 6.03600143,6.56970821 6.18152181,6.71517909 L6.71151508,7.24517235 C6.78430003,7.31790779 6.87966317,7.35430027 6.97502631,7.35430027 C7.07038945,7.35430027 7.16575259,7.3179573 7.23853754,7.24517235 C7.38405792,7.09965197 7.38405792,6.8637198 7.23853754,6.71819941 L6.70854427,6.18825566 C6.56292485,6.04273527 6.3270422,6.04273527 6.18152181,6.18825566 Z" id="Path" fill="#000000"></path>
            <path d="M3.86760409,7.3649952 L3.86760409,8.11453164 C3.86760409,8.32031004 4.03436579,8.48712126 4.24019371,8.48712126 C4.44602163,8.48712126 4.61278333,8.32031004 4.61278333,8.11453164 L4.61278333,7.3649952 C4.61278333,7.15921679 4.44602163,6.99240557 4.24019371,6.99240557 C4.03436579,6.99240557 3.86760409,7.15921679 3.86760409,7.3649952 Z" id="Path" fill="#000000"></path>
            <path d="M1.2418994,7.24517235 C1.31468435,7.31790779 1.40999797,7.35430027 1.50541062,7.35430027 C1.60072425,7.35430027 1.6961369,7.3179573 1.76892185,7.24517235 L2.29891512,6.71517909 C2.4444355,6.5696587 2.4444355,6.33372653 2.29891512,6.18825566 C2.15339473,6.04273527 1.91751208,6.04273527 1.77194218,6.18825566 L1.24194891,6.71819941 C1.09637901,6.8637198 1.09637901,7.09965197 1.2418994,7.24517235 Z" id="Path" fill="#000000"></path>
            <path d="M0.372589624,4.61946767 L1.12207655,4.61946767 C1.32790447,4.61946767 1.49466618,4.45265644 1.49466618,4.24687804 C1.49466618,4.04109964 1.32790447,3.87428842 1.12207655,3.87428842 L0.372589624,3.87428842 C0.166761708,3.87428842 0,4.04109964 0,4.24687804 C0,4.45265644 0.166761708,4.61946767 0.372589624,4.61946767 Z" id="Path" fill="#000000"></path>
            <path d="M1.76887234,1.24858373 C1.62330244,1.10306334 1.38741978,1.10306334 1.2418994,1.24858373 C1.09637901,1.39410411 1.09637901,1.63003628 1.2418994,1.77555667 L1.77189266,2.30554994 C1.84467761,2.37828537 1.94004075,2.41462833 2.03540389,2.41462833 C2.13071752,2.41462833 2.22613017,2.37828537 2.29891512,2.30550042 C2.4444355,2.15998004 2.4444355,1.92404787 2.29891512,1.778577 L1.76887234,1.24858373 Z" id="Path" fill="#000000"></path>
            <path d="M19.3146005,11.7305078 C19.4095675,11.8597382 19.5560782,11.9328697 19.7176905,11.8935064 C20.5993787,11.7336271 21.5343434,11.8360707 22.4225179,12.1900432 C23.3173766,12.5466895 24.0708742,13.1212449 24.6015606,13.8515701 C24.6727116,13.9494585 24.785454,14.0051117 24.9029497,14.0051117 C24.9327569,14.0051117 24.9628612,14.0015467 24.9926683,13.9941197 C25.1399217,13.9576282 25.250337,13.8354287 25.2718258,13.685254 C25.2858877,13.5866725 25.6084686,11.2412642 24.839919,8.68611631 C24.7807007,8.48905229 24.5724466,8.37739919 24.3758283,8.43661742 C24.1787642,8.49588517 24.0670616,8.70369363 24.1263789,8.90070813 C24.5749718,10.3922549 24.6239408,11.8344367 24.5964112,12.7141939 C24.0646355,12.1995498 23.4210085,11.7857154 22.698457,11.4977445 C21.8770269,11.1703607 21.0176198,11.0311781 20.1810385,11.0867818 C20.1873762,11.067521 20.1931198,11.0487059 20.1993585,11.0295441 C20.4904983,10.1400823 20.7076153,9.22343758 20.8144161,8.29292904 C20.9121064,7.44144415 20.9212169,6.5813439 20.81402,5.73030464 C20.75193,5.23744655 20.646268,4.74998544 20.4946575,4.27683375 C20.4935682,4.27341732 20.4924789,4.26975331 20.49134,4.26633688 C21.828256,4.99067091 22.8560092,6.05798545 23.5535564,7.4492673 C23.6457506,7.63321021 23.869651,7.70753008 24.0535939,7.61533581 C24.2375369,7.52314154 24.3118567,7.29924117 24.2196625,7.11524874 C23.295046,5.27106626 21.8442984,3.94454817 19.9064857,3.17208695 C17.2412692,2.10997133 14.4673209,2.45933909 11.8849901,4.18246089 C9.95737725,5.46867493 8.82856685,7.04627634 8.78142993,7.11277306 C8.6937414,7.23655699 8.68992885,7.40118962 8.77167576,7.52888512 C8.85342267,7.65663013 9.004241,7.72213659 9.15362345,7.69435947 C10.0412532,7.52933074 10.9833975,7.63058599 11.8782067,7.98723225 C12.7600434,8.33872909 13.504678,8.90179742 14.0340771,9.61707048 C14.1370654,9.75620361 14.2872896,9.84176306 14.4636074,9.7893777 C14.9368086,9.70550171 15.4250619,9.69718343 15.9130677,9.76244232 L12.9361632,17.2318121 C12.8610511,17.2311685 12.7861866,17.2298316 12.710827,17.2298316 C10.9934982,17.2298316 9.3522719,17.400901 7.83274991,17.7382864 C7.63187335,17.7828982 7.50516812,17.9818932 7.54982936,18.1828193 C7.59444109,18.3836959 7.79308954,18.5104506 7.99431269,18.4657894 C9.440208,18.1447434 11.071185,17.9750603 12.710827,17.9750603 C13.487992,17.9750603 14.2656521,18.0119975 15.0390541,18.0888425 C15.0418269,18.0890901 15.0445501,18.0890406 15.0473724,18.0892386 C16.4855931,18.2318377 17.833501,18.5062915 19.0232627,18.9047767 C20.443609,19.3804536 21.540186,20.0072954 22.1837634,20.7020203 C21.8590534,20.8028794 21.5449888,20.9524104 21.252017,21.1510589 C20.315963,21.7858724 19.1062969,21.7858724 18.1701933,21.1510589 C16.9799366,20.3438391 15.441847,20.3438886 14.2517388,21.1510589 C13.3156847,21.7858724 12.1060187,21.7858724 11.1699151,21.1510589 C9.97970787,20.3438391 8.44161829,20.3438886 7.25146058,21.1510589 C6.31540651,21.7858724 5.10574045,21.7858724 4.16963687,21.1510589 C3.87671458,20.9524104 3.56265,20.8028299 3.23794,20.7020203 C3.88062615,20.0082856 4.97527219,19.382137 6.39279622,18.9067077 C6.58787969,18.8413003 6.69299701,18.6300754 6.62758958,18.4349424 C6.56218215,18.2398589 6.35105628,18.1346921 6.15587378,18.200149 C4.37526673,18.7972827 3.08266544,19.6070772 2.39715004,20.551301 C1.65360474,20.511096 0.900651863,20.7106852 0.251231861,21.1510589 C0.0809051756,21.266574 0.0364915021,21.498248 0.152006664,21.6685747 C0.267472312,21.8389014 0.498997772,21.8833646 0.669522512,21.7678494 C1.2225891,21.3927841 1.87121689,21.2394406 2.50246541,21.3076208 C2.52519214,21.3125226 2.5480179,21.315642 2.57099219,21.3161866 C2.98433149,21.3714438 3.38846126,21.5217175 3.75144525,21.7678989 C4.94155345,22.5750197 6.47959351,22.5751187 7.66985026,21.7678989 C8.60600335,21.1330359 9.81571892,21.1330854 10.7517235,21.7678989 C11.9418812,22.5750197 13.4799213,22.5751187 14.6701285,21.7678989 C15.6062321,21.1330359 16.8159476,21.1330854 17.7520017,21.7678989 C18.3471053,22.1714841 19.0291548,22.3733014 19.7112537,22.3733014 C20.3933527,22.3733014 21.0753526,22.1714841 21.6705057,21.7678989 C22.032648,21.5223116 22.4357875,21.372137 22.848186,21.3165827 C22.8725962,21.3161371 22.8969074,21.3128197 22.92107,21.3074722 C23.5518234,21.2397377 24.1998075,21.3930812 24.752379,21.7678494 C24.9227552,21.8833646 25.1544292,21.8389509 25.2698948,21.6685747 C25.38541,21.498248 25.3409963,21.266574 25.1706696,21.1510589 C24.5212496,20.7105861 23.7682472,20.511096 23.0247514,20.551301 C22.3384438,19.6059384 21.0438125,18.7955002 19.2601356,18.1981685 C18.1529626,17.8274109 16.9173514,17.55979 15.6035583,17.400901 L18.2730825,10.7031507 C18.6757269,10.9941914 19.0272733,11.3396971 19.3146005,11.7305078 Z M14.9691905,8.98191038 C14.9731515,8.97349308 14.9772612,8.9651748 14.9812718,8.95675749 C15.3283124,8.23019534 15.7332344,7.52789485 16.2055443,6.87520695 C16.32101,6.71567422 16.2879349,6.47488973 16.1221635,6.35491834 C15.9600065,6.23752166 15.718925,6.27648884 15.6018254,6.43834871 C15.2226009,6.96235084 14.8856611,7.51695235 14.5832817,8.08858653 C14.4740547,8.29515715 14.3630948,8.50420345 14.2694152,8.71844867 C14.2677812,8.72191462 14.2660482,8.72533106 14.2644143,8.72884652 C13.6952063,8.11284818 12.9758236,7.62271334 12.1541459,7.2953296 C11.4313963,7.00725964 10.6791861,6.86500715 9.93915626,6.87273127 C10.4366191,6.31327743 11.2537911,5.49660058 12.3175407,4.79004192 C13.3722788,4.08942488 14.4609832,3.63206803 15.5532525,3.43069633 C16.6100207,3.23590994 17.676345,3.28161097 18.73445,3.56586838 C18.7301918,3.56819552 18.7256366,3.57077022 18.7213784,3.57309736 C18.148952,3.88726097 17.618216,4.27495224 17.13635,4.71502886 C16.9483964,4.88669241 16.7650477,5.06315878 16.5893735,5.24729975 C16.4473686,5.39623657 16.4529637,5.63211923 16.6019005,5.77412415 C16.7508373,5.91612907 16.9866704,5.91053404 17.1287249,5.76159722 C17.6063328,5.2606189 18.1456346,4.80246983 18.734351,4.4320588 C19.0056853,4.26128649 19.288903,4.1070022 19.5846475,3.98262411 C19.6623343,4.15884291 19.7633915,4.41972992 19.8582595,4.76142308 C20.3075457,6.37997221 20.1861384,8.12661295 19.7923074,9.74288446 C19.7075897,10.0904697 19.6097014,10.4350347 19.498692,10.7750939 C19.4975532,10.7786093 19.4963153,10.7822238 19.4951765,10.7857888 C18.9881575,10.2493588 18.3655244,9.81136173 17.6605997,9.49610882 C17.6509445,9.49180114 17.6412894,9.48749346 17.6316342,9.48323529 C16.7979742,9.11525043 15.8804877,8.93160459 14.9691905,8.98191038 Z M17.6282684,10.3076858 L14.8330776,17.3208375 C14.6603248,17.3058844 14.4863836,17.2931099 14.3114522,17.2818208 C14.1181017,17.2685512 13.9244046,17.258797 13.730757,17.2509244 L16.653048,9.91900423 C16.8299105,9.96965662 17.0040002,10.0299146 17.1744754,10.098887 C17.202104,10.1101266 17.6290595,10.3057052 17.6282684,10.3076858 Z" id="Shape" fill="#000000"></path>
        </g>
    </g>
</svg>