<?xml version="1.0" encoding="UTF-8"?>
<svg version="1.0" xmlns="http://www.w3.org/2000/svg"
 width="22.000000pt" height="22.000000pt" viewBox="0 0 512.000000 512.000000"
 preserveAspectRatio="xMidYMid meet">
    <title>Transaction selected</title>
<g transform="translate(0.000000,512.000000) scale(0.100000,-0.100000)"
fill="#59C880" fill-rule="nonzero" stroke="none">
<path d="M2320 4814 c-108 -13 -322 -58 -422 -88 -466 -142 -890 -446 -1175
-844 l-62 -87 72 -7 c94 -10 200 -60 264 -125 27 -27 98 -121 158 -210 61 -89
112 -162 115 -162 3 0 29 37 58 82 204 317 552 554 928 632 335 69 706 15
1004 -147 246 -134 464 -352 598 -598 76 -140 146 -353 165 -502 l7 -48 -73 0
c-96 0 -139 -14 -175 -55 -36 -40 -47 -81 -33 -129 14 -53 567 -854 605 -877
44 -27 114 -25 156 3 34 24 554 765 591 843 24 52 24 89 -2 135 -33 58 -69 74
-181 78 l-97 4 -5 37 c-3 20 -8 61 -11 91 -52 475 -284 954 -636 1310 -331
335 -729 546 -1198 637 -120 23 -165 26 -376 28 -132 2 -256 1 -275 -1z"/>
<path d="M645 3484 c-21 -7 -48 -23 -60 -36 -35 -36 -555 -796 -571 -834 -19
-46 -18 -80 7 -124 33 -58 69 -74 181 -78 l97 -4 5 -37 c3 -20 8 -61 11 -91
52 -475 284 -954 636 -1310 331 -335 724 -544 1198 -637 128 -25 153 -27 411
-27 258 0 283 2 411 27 589 116 1087 432 1426 905 l62 87 -72 7 c-94 10 -200
60 -264 125 -27 27 -97 121 -158 210 -60 89 -112 162 -115 162 -3 0 -29 -37
-58 -82 -204 -317 -552 -554 -928 -632 -335 -69 -706 -15 -1004 147 -246 134
-464 352 -598 598 -76 140 -146 353 -165 503 l-7 47 73 0 c96 0 139 14 175 55
36 40 47 81 33 129 -12 44 -564 851 -597 872 -39 26 -88 33 -129 18z"/>
<path d="M2483 3470 c-46 -28 -64 -61 -70 -132 -6 -64 -14 -78 -47 -78 -36 0
-146 -63 -187 -107 -84 -91 -121 -236 -102 -392 13 -99 48 -177 106 -235 90
-89 179 -116 389 -116 124 0 130 -1 153 -25 22 -21 25 -33 25 -103 0 -65 -4
-84 -21 -106 -20 -26 -20 -26 -168 -26 -170 0 -177 3 -192 85 -26 139 -174
181 -263 74 -26 -31 -28 -38 -24 -108 4 -91 36 -168 97 -234 41 -44 151 -107
187 -107 33 0 41 -14 47 -78 3 -34 13 -74 22 -88 55 -85 195 -85 250 0 9 14
19 54 22 88 6 64 14 78 47 78 36 0 146 63 187 107 84 91 121 236 102 392 -13
99 -48 177 -106 235 -90 89 -179 116 -389 116 -124 0 -130 1 -153 25 -22 21
-25 33 -25 103 0 65 4 84 21 106 20 26 20 26 168 26 170 0 177 -3 192 -85 26
-139 174 -181 263 -74 26 31 28 38 24 108 -4 91 -36 168 -97 234 -41 44 -151
107 -187 107 -33 0 -41 14 -47 78 -3 34 -13 74 -22 88 -25 39 -74 64 -125 64
-27 0 -58 -8 -77 -20z"/>
</g>
</svg>
