<?xml version="1.0" encoding="UTF-8"?>
<svg width="22px" height="22px" viewBox="0 0 22 22" version="1.1" xmlns="http://www.w3.org/2000/svg" xmlns:xlink="http://www.w3.org/1999/xlink">
    <!-- Generator: Sketch 53.2 (72643) - https://sketchapp.com -->
    <title>bank Unselected</title>
    <desc>Created with Sketch.</desc>
    <g id="Component" stroke="none" stroke-width="1" fill="none" fill-rule="evenodd" opacity="0.539574033">
        <g id="bank-Unselected" fill="#B3C3D6" fill-rule="nonzero">
            <path d="M20.6382108,18.8156849 C21.8102919,16.7569472 21.3334208,14.1537128 19.5076529,12.6441685 L19.5076529,9.75347313 L19.9510228,9.75347313 C20.19588,9.75347313 20.3943927,9.55496046 20.3943927,9.31010322 L20.3943927,7.98003503 L20.8377626,7.98003503 C21.0826199,7.97945313 21.2806338,7.78048324 21.2800519,7.535626 C21.2797193,7.39110578 21.2089763,7.25581291 21.090434,7.17314085 L10.8932584,0.0794300095 C10.7412982,-0.0260194589 10.5397928,-0.0260194589 10.3878325,0.0794300095 L0.190656961,7.17314085 C-0.0101417699,7.31329679 -0.0592711635,7.58966002 0.0808432069,7.79045875 C0.163556822,7.90895951 0.298849695,7.97970252 0.443369917,7.98003503 L0.886739834,7.98003503 L0.886739834,9.31010322 C0.886739834,9.55496046 1.08525251,9.75347313 1.33010975,9.75347313 L1.77347967,9.75347313 L1.77347967,16.847184 L1.33006819,16.847184 C1.08521095,16.847184 0.886698269,17.0456967 0.886698269,17.2905539 L0.886698269,18.7004262 C0.356582968,18.8878411 0.00157945597,19.3883624 0,19.9506487 L0,20.837347 C0,21.0822042 0.198512677,21.2807169 0.443369917,21.2807169 L20.8377626,21.2807169 C21.0826199,21.2807169 21.2811325,21.0822042 21.2811325,20.837347 L21.2811325,19.9506487 C21.2797609,19.4859977 21.0360675,19.0557206 20.6382108,18.8156849 Z M19.5076529,8.86677487 L15.9608182,8.86677487 L15.9608182,7.9800766 L19.5076529,7.9800766 L19.5076529,8.86677487 L19.5076529,8.86677487 Z M18.6209546,9.75347313 L18.6209546,12.0633444 C18.0683528,11.7795411 17.4662476,11.6048865 16.8475165,11.5490652 L16.8475165,9.75347313 L18.6209546,9.75347313 L18.6209546,9.75347313 Z M10.6405455,0.983876376 L19.4234429,7.09333676 L1.85764804,7.09333676 L10.6405455,0.983876376 Z M5.76364266,16.847184 L5.32027274,16.847184 L5.32027274,9.75347313 L5.76364266,9.75347313 C6.0084999,9.75347313 6.20701258,9.55496046 6.20701258,9.31010322 L6.20701258,7.98003503 L7.98040911,7.98003503 L7.98040911,9.31010322 C7.98040911,9.55496046 8.17892179,9.75347313 8.42377903,9.75347313 L8.86714895,9.75347313 L8.86714895,16.847184 L8.42377903,16.847184 C8.17892179,16.847184 7.98040911,17.0456967 7.98040911,17.2905539 L7.98040911,18.6206221 L6.20697101,18.6206221 L6.20697101,17.2905539 C6.20697101,17.0456551 6.0084999,16.847184 5.76364266,16.847184 Z M8.86710738,17.7338822 L11.7179007,17.7338822 C11.8051864,18.0402551 11.9224818,18.337276 12.0681659,18.6205805 L8.86714895,18.6205805 L8.86714895,17.7338822 L8.86710738,17.7338822 Z M9.75384722,16.847184 L9.75384722,9.75347313 L11.5272853,9.75347313 L11.5272853,16.847184 L9.75384722,16.847184 Z M11.9706137,8.86677487 L8.86710738,8.86677487 L8.86710738,7.9800766 L12.413942,7.9800766 L12.413942,8.86677487 L11.9706137,8.86677487 Z M12.4139836,9.75347313 L12.8573535,9.75347313 C13.1022107,9.75347313 13.3007234,9.55496046 13.3007234,9.31010322 L13.3007234,7.98003503 L15.0741615,7.98003503 L15.0741615,9.31010322 C15.0741615,9.55496046 15.2726742,9.75347313 15.5175314,9.75347313 L15.9608182,9.75347313 L15.9608182,11.5490652 C14.5336966,11.6803263 13.2365476,12.4326877 12.4139836,13.6062235 L12.4139836,9.75347313 L12.4139836,9.75347313 Z M1.7734381,7.98003503 L5.32027274,7.98003503 L5.32027274,8.8667333 L1.7734381,8.8667333 L1.7734381,7.98003503 Z M4.43357447,9.75347313 L4.43357447,16.847184 L2.66013637,16.847184 L2.66013637,9.75347313 L4.43357447,9.75347313 Z M1.7734381,17.7338822 L5.32027274,17.7338822 L5.32027274,18.6205805 L1.7734381,18.6205805 L1.7734381,17.7338822 Z M0.886698269,20.3940186 L0.886698269,19.9506487 C0.886698269,19.7057915 1.08521095,19.5072788 1.33006819,19.5072788 L12.644501,19.5072788 C12.9242726,19.8443679 13.2478116,20.1425942 13.6065975,20.3939771 L0.886698269,20.3939771 L0.886698269,20.3940186 Z M20.3943927,20.3940186 L19.1973313,20.3940186 C19.5426919,20.1528191 19.855632,19.868226 20.1283791,19.5472224 C20.2889848,19.6173004 20.3932289,19.7754538 20.3943927,19.9506903 L20.3943927,20.3940186 L20.3943927,20.3940186 Z M16.4041881,20.3940186 C14.200473,20.3940186 12.4139836,18.6075292 12.4139836,16.4038141 C12.4139836,14.2000989 14.200473,12.4136095 16.4041881,12.4136095 C18.6079033,12.4136095 20.3943927,14.2000989 20.3943927,16.4038141 C20.3943927,18.6075292 18.6079033,20.3940186 16.4041881,20.3940186 Z" id="Shape"></path>
            <path d="M15.80121,5.40415017 L10.9243072,1.85731553 L10.3789793,2.57555235 L14.1519255,5.31994023 L6.20697101,5.31994023 L6.20697101,6.20663849 L15.5174483,6.20663849 C15.7173326,6.21640618 15.8990116,6.09108882 15.9608182,5.90072281 C16.0209207,5.71808782 15.9564539,5.51753848 15.80121,5.40415017 Z" id="Path"></path>
            <path d="M17.2908864,14.1870476 L16.8475165,14.1870476 L16.8475165,13.3003493 L15.9608182,13.3003493 L15.9608182,14.1870476 L15.5174483,14.1870476 C15.0277338,14.1870476 14.63075,14.5840314 14.63075,15.0737459 L14.63075,15.9604441 C14.63075,16.4501586 15.0277338,16.8471424 15.5174483,16.8471424 L17.2908864,16.8471424 L17.2908864,17.7338407 L15.5174483,17.7338407 L15.5174483,17.2904708 L14.63075,17.2904708 L14.63075,17.7338407 C14.63075,18.2235552 15.0277338,18.620539 15.5174483,18.620539 L15.9608182,18.620539 L15.9608182,19.5072372 L16.8475165,19.5072372 L16.8475165,18.620539 L17.2908864,18.620539 C17.7806009,18.620539 18.1775847,18.2235552 18.1775847,17.7338407 L18.1775847,16.8471424 C18.1775847,16.3574279 17.7806009,15.9604441 17.2908864,15.9604441 L15.5174483,15.9604441 L15.5174483,15.0737459 L17.2908864,15.0737459 L17.2908864,15.5171158 L18.1775847,15.5171158 L18.1775847,15.0737459 C18.1775847,14.5840314 17.7806009,14.1870476 17.2908864,14.1870476 Z" id="Path"></path>
        </g>
    </g>
</svg>