<?xml version="1.0" encoding="UTF-8"?>
<svg width="20px" height="22px" viewBox="0 0 20 22" version="1.1" xmlns="http://www.w3.org/2000/svg" xmlns:xlink="http://www.w3.org/1999/xlink">
    <!-- Generator: Sketch 53.2 (72643) - https://sketchapp.com -->
    <title>noun_Home_1154205 Unselected</title>
    <desc>Created with Sketch.</desc>
    <g id="Component" stroke="none" stroke-width="1" fill="none" fill-rule="evenodd" opacity="0.543294271">
        <g id="noun_Home_1154205-Unselected" fill="#B3C3D6">
            <path d="M19.0645161,7.40882353 L11.7096774,0.905882353 C10.7419355,0.0323529412 9.25806452,0.0323529412 8.29032258,0.905882353 L0.935483871,7.40882353 C0.387096774,7.89411765 0.064516129,8.60588235 0.064516129,9.35 L0.064516129,17.8588235 C0.064516129,19.9941176 1.80645161,21.7411765 3.93548387,21.7411765 L16.0645161,21.7411765 C18.1935484,21.7411765 19.9354839,19.9941176 19.9354839,17.8588235 L19.9354839,9.35 C19.9354839,8.60588235 19.6129032,7.89411765 19.0645161,7.40882353 Z M12.1935484,20.4470588 L7.80645161,20.4470588 L7.80645161,16.4352941 C7.80645161,15.2058824 8.80645161,14.2352941 10,14.2352941 C11.1935484,14.2352941 12.1935484,15.2382353 12.1935484,16.4352941 L12.1935484,20.4470588 Z M18.6451613,17.8588235 C18.6451613,19.2823529 17.483871,20.4470588 16.0645161,20.4470588 L13.483871,20.4470588 L13.483871,16.4352941 C13.483871,14.4941176 11.9032258,12.9411765 10,12.9411765 C8.06451613,12.9411765 6.51612903,14.5264706 6.51612903,16.4352941 L6.51612903,16.4352941 L6.51612903,20.4470588 L3.93548387,20.4470588 C2.51612903,20.4470588 1.35483871,19.2823529 1.35483871,17.8588235 L1.35483871,9.35 C1.35483871,8.99411765 1.51612903,8.63823529 1.80645161,8.37941176 L9.16129032,1.87647059 C9.64516129,1.45588235 10.3870968,1.45588235 10.8709677,1.87647059 L18.2258065,8.37941176 C18.516129,8.63823529 18.6774194,8.99411765 18.6451613,9.35 L18.6451613,17.8588235 Z" id="Shape" fill-rule="nonzero"></path>
            <polygon id="Path-5" points="7.27602842 21 7.27602842 16 7.80645161 14.6780641 9.40799774 13.7007399 10.8367467 13.7007399 11.8423278 14.2352941 12.4477357 15.6620235 12.8256008 16.3931577 12.8256008 17.6128967 12.8256008 20.952381"></polygon>
        </g>
    </g>
</svg>