<?xml version="1.0" encoding="UTF-8"?>
<svg width="22px" height="24px" viewBox="0 0 22 24" version="1.1" xmlns="http://www.w3.org/2000/svg" xmlns:xlink="http://www.w3.org/1999/xlink">
    <!-- Generator: Sketch 53.2 (72643) - https://sketchapp.com -->
    <title>transaction copy 2</title>
    <desc>Created with Sketch.</desc>
    <g id="Component" stroke="none" stroke-width="1" fill="none" fill-rule="evenodd">
        <g id="transaction-copy-2" transform="translate(0.118164, 0.952381)" fill="#59C880" fill-rule="nonzero">
            <path d="M21.0427657,10.7126807 L17.5994041,10.7126807 L17.5994041,1.9129787 C17.5980963,0.856917327 16.7424867,0.00130770268 15.6864253,0 L3.06076592,0 C2.21561791,0 1.53038296,0.685234949 1.53038296,1.53038296 L1.53038296,6.12153184 L0.38259574,6.12153184 C0.171308725,6.12153184 0,6.29284057 0,6.50412758 L0,8.79970203 C0,9.01098904 0.171308725,9.18229777 0.38259574,9.18229777 L1.53038296,9.18229777 L1.53038296,13.3908509 C1.53038296,13.6021379 1.70169169,13.7734466 1.9129787,13.7734466 L3.8259574,13.7734466 L3.8259574,21.4253615 C3.8259574,22.2705095 4.51119235,22.9557444 5.35634036,22.9557444 L17.9819998,22.9557444 C18.8271478,22.9557444 19.5123828,22.2705095 19.5123828,21.4253615 C19.5123828,20.5802134 18.8271478,19.8949785 17.9819998,19.8949785 L17.5994041,19.8949785 L17.5994041,13.7734466 L21.0427657,13.7734466 C21.2540527,13.7734466 21.4253615,13.6021379 21.4253615,13.3908509 L21.4253615,11.0952765 C21.4253615,10.8839895 21.2540527,10.7126807 21.0427657,10.7126807 Z M2.29557444,1.53038296 C2.29557444,1.10780893 2.63819189,0.76519148 3.06076592,0.76519148 C3.48333995,0.76519148 3.8259574,1.10780893 3.8259574,1.53038296 L3.8259574,6.12153184 L2.29557444,6.12153184 L2.29557444,1.53038296 Z M0.76519148,6.88672332 L11.4778722,6.88672332 C11.670291,6.88672332 11.8328194,6.74399718 11.8574789,6.55307296 L13.1758276,7.6519148 L11.8574789,8.75075665 C11.8328194,8.55983243 11.670291,8.41710628 11.4778722,8.41710628 L0.76519148,8.41710628 L0.76519148,6.88672332 Z M2.29557444,13.0082552 L2.29557444,9.18229777 L3.8259574,9.18229777 L3.8259574,13.0082552 L2.29557444,13.0082552 Z M18.7471913,21.4253615 C18.7471913,21.8479355 18.4045738,22.1905529 17.9819998,22.1905529 L6.68122757,22.1905529 C6.81629434,21.9581559 6.88709693,21.6941873 6.88672332,21.4253615 L6.88672332,20.66017 L17.9819998,20.66017 C18.4045738,20.66017 18.7471913,21.0027874 18.7471913,21.4253615 Z M16.8342126,19.8949785 L6.50412758,19.8949785 C6.29284057,19.8949785 6.12153184,20.0662872 6.12153184,20.2775742 L6.12153184,21.4253615 C6.12153184,21.8479355 5.77891439,22.1905529 5.35634036,22.1905529 C4.93376633,22.1905529 4.59114888,21.8479355 4.59114888,21.4253615 L4.59114888,9.18229777 L11.0952765,9.18229777 L11.0952765,9.56489351 C11.0952765,9.71341091 11.1812111,9.84866448 11.3157174,9.9116209 C11.4502237,9.97457731 11.6090159,9.95402776 11.7231594,9.85875243 L14.0187338,7.94577373 C14.1057893,7.87310297 14.1562292,7.76549791 14.1562292,7.6519148 C14.1562292,7.53833169 14.1057893,7.43072664 14.0187338,7.35805588 L11.7231594,5.44507718 C11.6090159,5.34980185 11.4502237,5.3292523 11.3157174,5.39220871 C11.1812111,5.45516513 11.0952765,5.5904187 11.0952765,5.7389361 L11.0952765,6.12153184 L4.59114888,6.12153184 L4.59114888,1.53038296 C4.58984117,1.26099673 4.51660995,0.996841245 4.37911461,0.76519148 L15.6864253,0.76519148 C16.3202863,0.76519148 16.8342126,1.2791177 16.8342126,1.9129787 L16.8342126,10.7126807 L10.330085,10.7126807 L10.330085,10.330085 C10.330085,10.1815676 10.2441504,10.046314 10.1096441,9.9833576 C9.97513777,9.92040118 9.81634556,9.94095073 9.70220205,10.0362261 L7.40662761,11.9492048 C7.31957211,12.0218755 7.26913226,12.1294806 7.26913226,12.2430637 C7.26913226,12.3566468 7.31957211,12.4642518 7.40662761,12.5369226 L9.70220205,14.4499013 C9.81634556,14.5451766 9.97513777,14.5657262 10.1096441,14.5027698 C10.2441504,14.4398134 10.330085,14.3045598 10.330085,14.1560424 L10.330085,13.7734466 L16.8342126,13.7734466 L16.8342126,19.8949785 Z M20.66017,13.0082552 L9.94748925,13.0082552 C9.89817026,13.008442 9.84941174,13.0183432 9.80401584,13.0373982 C9.79000476,13.044684 9.77655413,13.0529038 9.76347715,13.0618709 C9.73601543,13.0760688 9.71023503,13.0934425 9.68688325,13.1138053 C9.67455353,13.1276295 9.66315787,13.142201 9.65288307,13.1575198 C9.63420163,13.1790034 9.61832243,13.2025421 9.6050586,13.2279488 C9.59758602,13.245883 9.59179477,13.2645644 9.58749803,13.2838063 C9.57946505,13.3024877 9.57311334,13.3219164 9.56862979,13.3419055 L8.24953385,12.2430637 L9.56788253,11.1442218 C9.57236608,11.1642109 9.57871774,11.1836396 9.58675077,11.2023211 C9.59086071,11.221563 9.59683877,11.2402444 9.60431134,11.2581786 C9.61738832,11.2835853 9.63345438,11.3071239 9.65213581,11.3286075 C9.66241056,11.3439263 9.67380627,11.3584978 9.68613599,11.3723221 C9.70948782,11.3926849 9.73526817,11.4100586 9.76272989,11.4242565 C9.77580687,11.4332236 9.7892575,11.4414434 9.80326859,11.4487292 C9.84885128,11.4679711 9.89798346,11.4778722 9.94748925,11.4778722 L20.66017,11.4778722 L20.66017,13.0082552 Z" id="Shape"></path>
            <polygon id="Path" points="6.12153184 2.29557444 9.94748925 2.29557444 9.94748925 3.06076592 6.12153184 3.06076592"></polygon>
            <polygon id="Path" points="6.12153184 3.8259574 9.94748925 3.8259574 9.94748925 4.59114888 6.12153184 4.59114888"></polygon>
            <polygon id="Path" points="7.6519148 16.8342126 15.3038296 16.8342126 15.3038296 17.5994041 7.6519148 17.5994041"></polygon>
            <polygon id="Path" points="7.6519148 18.3645955 15.3038296 18.3645955 15.3038296 19.129787 7.6519148 19.129787"></polygon>
            <polygon id="Path" points="13.0082552 15.3038296 15.3038296 15.3038296 15.3038296 16.0690211 13.0082552 16.0690211"></polygon>
        </g>
    </g>
</svg>